SplineFontDB: 3.0
FontName: jbaldus
FullName: jbaldus
FamilyName: jbaldus
Weight: Book
Copyright: Made with yourfonts.com. Copyright © 2009 Jason Baldus
Version: 1.00 March 16, 2009, initial release, www.yourfonts.com
ItalicAngle: 0
UnderlinePosition: -442
UnderlineWidth: 150
Ascent: 1638
Descent: 410
LayerCount: 2
Layer: 0 1 "Back" 
Layer: 1 1 "Fore" 
NeedsXUIDChange: 1
XUID: [1021 142 625796909 1801795]
FSType: 8
OS2Version: 1
OS2_WeightWidthSlopeOnly: 0
OS2_UseTypoMetrics: 1
CreationTime: 1237220796
ModificationTime: 1251310419
PfmFamily: 65
TTFWeight: 400
TTFWidth: 5
LineGap: 0
VLineGap: 0
Panose: 3 0 0 0 0 0 0 0 0 0
OS2TypoAscent: -39
OS2TypoAOffset: 1
OS2TypoDescent: 94
OS2TypoDOffset: 1
OS2TypoLinegap: 205
OS2WinAscent: 0
OS2WinAOffset: 1
OS2WinDescent: 0
OS2WinDOffset: 1
HheadAscent: 0
HheadAOffset: 1
HheadDescent: 0
HheadDOffset: 1
OS2SubXSize: 1434
OS2SubYSize: 1331
OS2SubXOff: 0
OS2SubYOff: 283
OS2SupXSize: 1434
OS2SupYSize: 1331
OS2SupXOff: 0
OS2SupYOff: 977
OS2StrikeYSize: 102
OS2StrikeYPos: 530
OS2Vendor: 'YOUR'
OS2CodePages: 00000093.0c000000
OS2UnicodeRanges: 8000000f.00000008.00000000.00000000
DEI: 0
TtTable: prep
PUSHW_1
 511
SCANCTRL
EndTTInstrs
ShortTable: cvt  2
  68
  1297
EndShort
ShortTable: maxp 16
  1
  0
  236
  367
  15
  28
  1
  1
  0
  0
  2
  1
  4
  46
  1
  1
EndShort
LangName: 1033 "" "" "Regular" "2.0.1.26;H17604763;HL;0317353;jbaldus:Version 1.00" "" "Version 1.00 March 16, 2009, initial release, www.yourfonts.com" "" "" "" "" "This font was created using the online font generation service from yourfonts.com" 
GaspTable: 1 65535 2
Encoding: UnicodeFull
UnicodeInterp: none
NameList: Adobe Glyph List
DisplaySize: -24
AntiAlias: 1
FitToEm: 1
WinInfo: 0 16 9
BeginChars: 1114115 236

StartChar: .notdef
Encoding: 1114112 -1 0
Width: 748
Flags: W
LayerCount: 2
Fore
SplineSet
68 0 m 1,0,-1
 68 1365 l 1,1,-1
 612 1365 l 1,2,-1
 612 0 l 1,3,-1
 68 0 l 1,0,-1
136 68 m 1,4,-1
 544 68 l 1,5,-1
 544 1297 l 1,6,-1
 136 1297 l 1,7,-1
 136 68 l 1,4,-1
EndSplineSet
EndChar

StartChar: exclam
Encoding: 33 33 4
Width: 413
Flags: W
LayerCount: 2
Fore
SplineSet
228 1598 m 1,0,-1
 312 1598 l 1,1,2
 312 1576 312 1576 333 1535 c 1,3,-1
 207 715 l 1,4,5
 228 680 228 680 228 610 c 1,6,-1
 123 589 l 1,7,8
 82 610 82 610 60 610 c 1,9,10
 81 946 81 946 123 946 c 1,11,12
 123 967 123 967 102 967 c 1,13,14
 117 1094 117 1094 144 1094 c 1,15,16
 144 1115 144 1115 123 1115 c 1,17,-1
 186 1493 l 1,18,19
 165 1534 165 1534 165 1556 c 1,20,-1
 228 1598 l 1,0,-1
165 315 m 1,21,-1
 228 315 l 2,22,23
 261 315 261 315 312 231 c 1,24,-1
 312 189 l 1,25,26
 239 63 239 63 207 63 c 2,27,-1
 186 63 l 1,28,-1
 81 84 l 1,29,-1
 81 147 l 1,30,-1
 123 210 l 1,31,-1
 102 252 l 1,32,33
 165 252 165 252 165 315 c 1,21,-1
EndSplineSet
EndChar

StartChar: quotedbl
Encoding: 34 34 5
Width: 729
Flags: W
LayerCount: 2
Fore
SplineSet
523 1662 m 1,0,1
 595 1662 595 1662 649 1073 c 1,2,3
 460 1073 460 1073 460 1178 c 0,4,5
 460 1199 460 1199 481 1199 c 1,6,-1
 439 1556 l 1,7,8
 479 1652 479 1652 523 1662 c 1,0,1
81 1598 m 1,9,-1
 207 1598 l 1,10,11
 228 1488 228 1488 228 1472 c 1,12,-1
 207 1472 l 1,13,14
 228 1431 228 1431 228 1409 c 1,15,-1
 207 1367 l 1,16,17
 228 1316 228 1316 270 1073 c 1,18,-1
 186 1073 l 1,19,20
 60 1117 60 1117 60 1535 c 1,21,22
 81 1576 81 1576 81 1598 c 1,9,-1
EndSplineSet
EndChar

StartChar: numbersign
Encoding: 35 35 6
Width: 1339
Flags: W
LayerCount: 2
Fore
SplineSet
1007 1451 m 2,0,-1
 1028 1451 l 1,1,2
 1070 1445 1070 1445 1070 1409 c 0,3,4
 1070 1377 1070 1377 986 1115 c 1,5,-1
 1049 1115 l 1,6,7
 1142 1178 1142 1178 1238 1178 c 1,8,-1
 1259 1136 l 1,9,-1
 1259 1052 l 1,10,11
 1091 1018 1091 1018 1091 967 c 1,12,-1
 1070 967 l 2,13,14
 1049 967 1049 967 1049 988 c 1,15,16
 909 988 909 988 859 757 c 1,17,-1
 859 736 l 1,18,-1
 922 736 l 1,19,-1
 1133 757 l 1,20,-1
 1196 673 l 1,21,22
 1196 583 1196 583 922 568 c 1,23,-1
 901 610 l 1,24,25
 754 589 754 589 754 442 c 1,26,-1
 691 399 l 1,27,28
 572 547 572 547 544 547 c 0,29,30
 418 547 418 547 376 357 c 1,31,32
 418 351 418 351 418 315 c 1,33,34
 381 194 381 194 291 126 c 1,35,36
 207 158 207 158 207 189 c 2,37,-1
 207 210 l 1,38,-1
 270 505 l 1,39,-1
 228 484 l 1,40,-1
 123 484 l 2,41,42
 93 484 93 484 60 547 c 1,43,-1
 60 568 l 2,44,45
 60 637 60 637 333 652 c 1,46,-1
 376 862 l 1,47,-1
 186 862 l 1,48,-1
 186 946 l 2,49,50
 186 983 186 983 439 1030 c 1,51,52
 445 1178 445 1178 481 1178 c 1,53,-1
 460 1220 l 1,54,55
 481 1304 481 1304 544 1304 c 1,56,57
 613 1283 613 1283 628 1220 c 1,58,59
 586 1086 586 1086 586 1052 c 1,60,-1
 607 1052 l 2,61,62
 880 1052 880 1052 880 1241 c 1,63,64
 949 1451 949 1451 1007 1451 c 2,0,-1
481 694 m 1,65,-1
 649 694 l 1,66,67
 708 713 708 713 796 925 c 1,68,-1
 775 925 l 2,69,70
 502 925 502 925 502 778 c 1,71,72
 481 741 481 741 481 694 c 1,65,-1
EndSplineSet
EndChar

StartChar: dollar
Encoding: 36 36 7
Width: 1065
Flags: W
LayerCount: 2
Fore
SplineSet
670 1619 m 1,0,-1
 670 1388 l 1,1,-1
 691 1388 l 1,2,-1
 880 1409 l 1,3,-1
 943 1325 l 1,4,-1
 943 1304 l 2,5,6
 943 1272 943 1272 859 1241 c 1,7,8
 754 1241 754 1241 754 1283 c 1,9,10
 649 1283 649 1283 649 1094 c 2,11,-1
 649 967 l 1,12,13
 986 967 986 967 986 673 c 2,14,-1
 986 589 l 1,15,16
 870 363 870 363 649 273 c 1,17,18
 649 147 649 147 586 147 c 2,19,-1
 502 147 l 1,20,21
 502 294 502 294 270 294 c 1,22,23
 270 323 270 323 102 399 c 1,24,-1
 60 463 l 1,25,-1
 60 526 l 1,26,-1
 207 547 l 1,27,28
 207 442 207 442 502 399 c 1,29,-1
 502 757 l 1,30,-1
 523 799 l 1,31,32
 249 828 249 828 249 925 c 0,33,34
 249 1109 249 1109 544 1346 c 1,35,-1
 544 1598 l 1,36,-1
 670 1619 l 1,0,-1
418 1030 m 1,37,-1
 418 967 l 1,38,-1
 523 967 l 1,39,-1
 502 1009 l 1,40,-1
 523 1115 l 1,41,-1
 502 1115 l 2,42,43
 469 1115 469 1115 418 1030 c 1,37,-1
628 799 m 1,44,-1
 649 694 l 1,45,46
 649 673 649 673 628 673 c 1,47,-1
 649 631 l 1,48,-1
 628 442 l 1,49,-1
 670 442 l 1,50,51
 838 524 838 524 838 715 c 2,52,-1
 838 736 l 1,53,54
 804 820 804 820 691 820 c 2,55,-1
 670 820 l 1,56,-1
 628 799 l 1,44,-1
EndSplineSet
EndChar

StartChar: percent
Encoding: 37 37 8
Width: 1360
Flags: W
LayerCount: 2
Fore
SplineSet
1238 1577 m 1,0,-1
 1280 1514 l 1,1,-1
 1280 1472 l 1,2,3
 642 729 642 729 418 231 c 1,4,-1
 376 231 l 2,5,6
 326 231 326 231 312 378 c 1,7,8
 341 379 341 379 649 904 c 1,9,10
 829 1112 829 1112 964 1346 c 1,11,-1
 964 1367 l 1,12,-1
 880 1367 l 1,13,14
 681 1304 681 1304 628 1304 c 2,15,-1
 586 1304 l 1,16,17
 586 1031 586 1031 291 967 c 1,18,-1
 207 967 l 1,19,20
 60 1052 60 1052 60 1157 c 0,21,22
 60 1361 60 1361 354 1535 c 1,23,-1
 586 1451 l 1,24,25
 726 1451 726 1451 1238 1577 c 1,0,-1
186 1136 m 1,26,27
 249 1136 249 1136 249 1073 c 1,28,29
 460 1151 460 1151 460 1325 c 1,30,-1
 418 1346 l 1,31,-1
 376 1346 l 1,32,33
 186 1305 186 1305 186 1136 c 1,26,27
922 778 m 1,34,-1
 986 778 l 1,35,36
 1091 749 1091 749 1154 568 c 1,37,-1
 1154 526 l 2,38,39
 1154 505 1154 505 1133 505 c 1,40,-1
 1154 463 l 1,41,42
 1069 189 1069 189 880 189 c 2,43,-1
 838 189 l 1,44,45
 733 279 733 279 691 357 c 1,46,47
 691 615 691 615 922 778 c 1,34,-1
838 378 m 1,48,49
 859 378 859 378 859 357 c 1,50,-1
 901 378 l 1,51,-1
 943 357 l 1,52,53
 1028 453 1028 453 1028 547 c 1,54,55
 996 631 996 631 964 631 c 1,56,57
 838 526 838 526 838 378 c 1,48,49
EndSplineSet
EndChar

StartChar: ampersand
Encoding: 38 38 9
Width: 1423
Flags: W
LayerCount: 2
Fore
SplineSet
817 1746 m 1,0,1
 1133 1664 1133 1664 1133 1472 c 2,2,-1
 1133 1388 l 2,3,4
 1133 1279 1133 1279 1070 1262 c 1,5,-1
 1091 1220 l 1,6,7
 872 925 872 925 523 736 c 1,8,9
 552 629 552 629 901 378 c 1,10,11
 1035 534 1035 534 1049 673 c 1,12,13
 1007 673 1007 673 986 799 c 1,14,-1
 1028 820 l 1,15,16
 1064 799 1064 799 1112 799 c 1,17,18
 1138 898 1138 898 1238 967 c 1,19,-1
 1301 967 l 1,20,21
 1301 931 1301 931 1343 862 c 1,22,23
 1329 785 1329 785 1175 610 c 1,24,25
 1070 368 1070 368 1070 336 c 1,26,-1
 1175 336 l 1,27,-1
 1175 294 l 1,28,29
 1159 232 1159 232 1028 189 c 1,30,31
 991 210 991 210 943 210 c 2,32,-1
 922 210 l 1,33,34
 922 94 922 94 607 42 c 1,35,36
 586 42 586 42 586 63 c 1,37,-1
 544 42 l 1,38,-1
 502 42 l 2,39,40
 481 42 481 42 481 63 c 1,41,-1
 439 42 l 1,42,43
 60 126 60 126 60 336 c 2,44,-1
 60 378 l 2,45,46
 60 514 60 514 354 757 c 1,47,48
 291 966 291 966 291 1115 c 0,49,50
 291 1436 291 1436 586 1662 c 0,51,52
 691 1725 691 1725 817 1746 c 1,0,1
418 1157 m 1,53,-1
 439 1115 l 1,54,55
 439 1094 439 1094 418 1094 c 1,56,-1
 439 946 l 1,57,-1
 439 862 l 1,58,59
 521 862 521 862 796 1073 c 0,60,61
 1008 1243 1008 1243 1049 1430 c 1,62,63
 1049 1538 1049 1538 880 1641 c 1,64,65
 572 1641 572 1641 418 1157 c 1,53,-1
186 336 m 0,66,67
 186 195 186 195 481 168 c 1,68,69
 817 196 817 196 817 273 c 2,70,-1
 817 294 l 1,71,72
 626 386 626 386 418 631 c 1,73,74
 186 496 186 496 186 336 c 0,66,67
EndSplineSet
EndChar

StartChar: quotesingle
Encoding: 39 39 10
Width: 329
Flags: W
LayerCount: 2
Fore
SplineSet
123 1662 m 1,0,1
 212 1662 212 1662 249 1535 c 1,2,3
 221 1212 221 1212 207 1157 c 1,4,5
 228 1120 228 1120 228 1073 c 1,6,-1
 207 988 l 1,7,-1
 144 988 l 1,8,9
 60 1177 60 1177 60 1641 c 1,10,-1
 81 1641 l 1,11,-1
 123 1662 l 1,0,1
EndSplineSet
EndChar

StartChar: parenleft
Encoding: 40 40 11
Width: 624
Flags: W
LayerCount: 2
Fore
SplineSet
397 1767 m 1,0,1
 544 1741 544 1741 544 1662 c 1,2,3
 328 1327 328 1327 207 736 c 1,4,5
 268 366 268 366 376 336 c 1,6,7
 418 202 418 202 418 189 c 1,8,9
 397 148 397 148 397 126 c 1,10,-1
 291 126 l 1,11,-1
 144 336 l 1,12,13
 60 571 60 571 60 694 c 0,14,15
 102 1048 102 1048 291 1556 c 1,16,17
 328 1556 328 1556 397 1767 c 1,0,1
EndSplineSet
EndChar

StartChar: parenright
Encoding: 41 41 12
Width: 519
Flags: W
LayerCount: 2
Fore
SplineSet
249 1788 m 1,0,-1
 270 1788 l 2,1,2
 380 1788 380 1788 439 1157 c 1,3,4
 376 564 376 564 270 420 c 1,5,-1
 291 378 l 1,6,-1
 291 336 l 1,7,8
 235 336 235 336 207 210 c 1,9,10
 165 210 165 210 165 168 c 1,11,-1
 144 168 l 2,12,13
 111 168 111 168 60 252 c 1,14,-1
 60 273 l 1,15,-1
 81 378 l 1,16,17
 60 378 60 378 60 399 c 1,18,19
 128 399 128 399 312 1052 c 1,20,-1
 291 1094 l 1,21,-1
 312 1136 l 1,22,23
 270 1422 270 1422 186 1725 c 1,24,25
 186 1755 186 1755 249 1788 c 1,0,-1
EndSplineSet
EndChar

StartChar: asterisk
Encoding: 42 42 13
Width: 982
Flags: W
LayerCount: 2
Fore
SplineSet
418 1598 m 1,0,1
 481 1577 481 1577 481 1556 c 1,2,-1
 460 1514 l 1,3,4
 481 1479 481 1479 481 1409 c 1,5,-1
 502 1409 l 1,6,7
 611 1514 611 1514 691 1514 c 1,8,9
 732 1493 732 1493 754 1493 c 1,10,-1
 754 1451 l 1,11,-1
 523 1241 l 1,12,13
 523 1212 523 1212 880 988 c 1,14,-1
 901 946 l 1,15,-1
 901 904 l 2,16,17
 901 874 901 874 838 841 c 1,18,-1
 817 841 l 1,19,-1
 502 1073 l 1,20,-1
 481 1073 l 1,21,-1
 481 862 l 1,22,-1
 376 841 l 1,23,24
 328 841 328 841 312 946 c 1,25,26
 333 987 333 987 333 1009 c 1,27,28
 312 1009 312 1009 144 841 c 1,29,-1
 123 841 l 2,30,31
 93 841 93 841 60 904 c 1,32,33
 60 1005 60 1005 291 1199 c 1,34,35
 290 1221 290 1221 60 1388 c 1,36,-1
 60 1472 l 1,37,38
 82 1472 82 1472 123 1493 c 1,39,40
 144 1493 144 1493 312 1367 c 1,41,-1
 354 1367 l 1,42,-1
 333 1556 l 1,43,44
 385 1598 385 1598 418 1598 c 1,0,1
EndSplineSet
EndChar

StartChar: plus
Encoding: 43 43 14
Width: 1066
Flags: W
LayerCount: 2
Fore
SplineSet
460 1157 m 2,0,-1
 481 1157 l 2,1,2
 544 1157 544 1157 544 1073 c 1,3,4
 523 937 523 937 523 757 c 1,5,6
 586 757 586 757 586 736 c 1,7,-1
 628 757 l 1,8,-1
 838 757 l 1,9,-1
 838 799 l 1,10,11
 943 799 943 799 964 694 c 1,12,-1
 986 694 l 1,13,-1
 986 652 l 1,14,-1
 964 652 l 1,15,-1
 922 673 l 1,16,17
 922 615 922 615 775 589 c 1,18,-1
 733 610 l 1,19,-1
 607 589 l 1,20,-1
 607 610 l 1,21,-1
 565 589 l 1,22,-1
 523 589 l 1,23,-1
 481 610 l 1,24,25
 460 505 460 505 439 505 c 1,26,-1
 481 399 l 1,27,-1
 397 231 l 1,28,29
 306 231 306 231 270 315 c 1,30,31
 291 460 291 460 312 505 c 1,32,-1
 291 547 l 1,33,34
 312 587 312 587 312 610 c 1,35,36
 60 610 60 610 60 778 c 1,37,38
 102 778 102 778 102 799 c 1,39,-1
 354 757 l 1,40,41
 397 1157 397 1157 460 1157 c 2,0,-1
EndSplineSet
EndChar

StartChar: comma
Encoding: 44 44 15
Width: 497
Flags: W
LayerCount: 2
Fore
SplineSet
270 399 m 1,0,-1
 354 399 l 2,1,2
 386 399 386 399 418 315 c 1,3,4
 418 100 418 100 186 -21 c 1,5,-1
 102 -21 l 2,6,7
 60 -21 60 -21 60 21 c 2,8,-1
 60 63 l 1,9,10
 178 63 178 63 270 294 c 1,11,-1
 249 336 l 1,12,13
 270 377 270 377 270 399 c 1,0,-1
EndSplineSet
EndChar

StartChar: hyphen
Encoding: 45 45 16
Width: 856
Flags: W
LayerCount: 2
Fore
SplineSet
123 883 m 0,0,1
 233 883 233 883 565 820 c 1,2,3
 634 862 634 862 691 862 c 2,4,-1
 712 862 l 2,5,6
 742 862 742 862 775 799 c 1,7,-1
 775 715 l 2,8,9
 775 679 775 679 670 652 c 1,10,-1
 60 757 l 1,11,-1
 60 841 l 2,12,13
 60 883 60 883 123 883 c 0,0,1
EndSplineSet
EndChar

StartChar: period
Encoding: 46 46 17
Width: 329
Flags: W
LayerCount: 2
Fore
SplineSet
186 463 m 1,0,1
 249 449 249 449 249 294 c 1,2,3
 207 294 207 294 207 231 c 1,4,-1
 165 231 l 1,5,6
 60 315 60 315 60 420 c 1,7,8
 129 463 129 463 186 463 c 1,0,1
EndSplineSet
EndChar

StartChar: slash
Encoding: 47 47 18
Width: 1023
Flags: W
LayerCount: 2
Fore
SplineSet
880 1556 m 1,0,1
 921 1535 921 1535 943 1535 c 1,2,3
 943 1401 943 1401 796 1283 c 1,4,5
 658 1123 658 1123 481 862 c 0,6,7
 245 505 245 505 207 505 c 1,8,9
 207 463 207 463 102 463 c 2,10,-1
 60 463 l 1,11,-1
 60 526 l 2,12,13
 60 547 60 547 186 715 c 1,14,-1
 186 778 l 1,15,16
 243 778 243 778 796 1514 c 1,17,18
 847 1556 847 1556 880 1556 c 1,0,1
EndSplineSet
EndChar

StartChar: zero
Encoding: 48 48 19
Width: 1087
Flags: W
LayerCount: 2
Fore
SplineSet
565 1472 m 1,0,-1
 649 1472 l 1,1,2
 964 1333 964 1333 964 1241 c 1,3,4
 1007 1031 1007 1031 1007 862 c 2,5,-1
 1007 820 l 1,6,7
 879 524 879 524 649 315 c 1,8,-1
 439 210 l 1,9,-1
 333 210 l 1,10,11
 60 316 60 316 60 568 c 1,12,13
 81 608 81 608 81 631 c 1,14,-1
 60 673 l 1,15,16
 202 1207 202 1207 523 1451 c 1,17,-1
 565 1472 l 1,0,-1
186 589 m 1,18,19
 242 400 242 400 376 357 c 1,20,21
 588 357 588 357 859 820 c 1,22,-1
 880 820 l 1,23,-1
 880 1009 l 2,24,25
 853 1262 853 1262 691 1262 c 0,26,27
 661 1262 661 1262 607 1346 c 1,28,29
 345 1189 345 1189 207 652 c 1,30,31
 207 589 207 589 186 589 c 1,18,19
EndSplineSet
EndChar

StartChar: one
Encoding: 49 49 20
Width: 1088
Flags: HW
LayerCount: 2
Fore
SplineSet
595 1514 m 5,0,1
 653 1514 653 1514 679 1304 c 5,2,-1
 637 967 l 5,3,-1
 658 925 l 5,4,5
 595 745 595 745 574 378 c 6,6,-1
 574 231 l 5,7,8
 534 210 534 210 511 210 c 5,9,-1
 406 357 l 5,10,11
 511 881 511 881 511 1030 c 6,12,-1
 511 1409 l 5,13,-1
 532 1451 l 5,14,15
 511 1451 511 1451 511 1472 c 5,16,17
 544 1472 544 1472 595 1514 c 5,0,1
EndSplineSet
EndChar

StartChar: two
Encoding: 50 50 21
Width: 1087
Flags: HW
LayerCount: 2
Fore
SplineSet
636 1619 m 5,0,-1
 657 1619 l 5,1,-1
 762 1598 l 5,2,-1
 762 1346 l 5,3,4
 678 1241 678 1241 510 715 c 5,5,6
 446 644 446 644 341 252 c 5,7,8
 320 252 320 252 320 231 c 6,9,-1
 320 210 l 5,10,-1
 426 210 l 6,11,12
 447 210 447 210 447 189 c 5,13,-1
 489 210 l 5,14,15
 510 210 510 210 510 189 c 5,16,17
 531 189 531 189 531 210 c 5,18,-1
 636 189 l 5,19,-1
 657 189 l 5,20,21
 657 236 657 236 846 273 c 5,22,23
 972 240 972 240 972 126 c 5,24,25
 940 126 940 126 888 84 c 5,26,-1
 867 84 l 6,27,28
 846 84 846 84 846 105 c 5,29,30
 708 42 708 42 552 42 c 6,31,-1
 299 42 l 6,32,33
 252 42 252 42 215 21 c 5,34,35
 110 48 110 48 110 84 c 6,36,-1
 110 210 l 5,37,38
 194 323 194 323 383 841 c 5,39,-1
 404 841 l 5,40,-1
 383 883 l 5,41,42
 510 1139 510 1139 615 1409 c 5,43,-1
 594 1409 l 6,44,45
 447 1409 447 1409 320 1262 c 5,46,47
 280 1241 280 1241 257 1241 c 5,48,-1
 194 1325 l 5,49,-1
 194 1346 l 5,50,51
 267 1470 267 1470 636 1619 c 5,0,-1
EndSplineSet
EndChar

StartChar: three
Encoding: 51 51 22
Width: 1087
Flags: HW
LayerCount: 2
Fore
SplineSet
594 1598 m 5,0,1
 731 1598 731 1598 783 1451 c 5,2,-1
 783 1346 l 6,3,4
 783 1254 783 1254 594 946 c 5,5,6
 930 946 930 946 930 547 c 5,7,8
 826 63 826 63 404 63 c 5,9,10
 404 21 404 21 257 21 c 5,11,12
 257 84 257 84 215 84 c 5,13,-1
 215 147 l 6,14,15
 215 175 215 175 552 231 c 5,16,17
 719 350 719 350 762 442 c 5,18,-1
 783 442 l 5,19,-1
 783 715 l 5,20,21
 621 778 621 778 552 778 c 6,22,-1
 362 778 l 6,23,24
 320 778 320 778 320 820 c 6,25,-1
 320 904 l 5,26,27
 467 960 467 960 657 1325 c 5,28,29
 629 1451 629 1451 594 1451 c 6,30,-1
 573 1451 l 5,31,32
 371 1384 371 1384 257 1241 c 5,33,34
 216 1220 216 1220 194 1220 c 5,35,36
 152 1289 152 1289 152 1346 c 5,37,38
 190 1458 190 1458 594 1598 c 5,0,1
EndSplineSet
EndChar

StartChar: four
Encoding: 52 52 23
Width: 1086
Flags: HW
LayerCount: 2
Fore
SplineSet
941 1486 m 5,0,1
 982 1465 982 1465 1005 1465 c 5,2,3
 899 989 899 989 899 435 c 4,4,5
 899 387 899 387 920 350 c 5,6,7
 891 224 891 224 794 224 c 5,8,9
 752 260 752 260 731 519 c 5,10,11
 773 625 773 625 773 666 c 5,12,13
 752 749 752 749 752 813 c 5,14,15
 393 687 393 687 163 687 c 6,16,-1
 142 687 l 6,17,18
 112 687 112 687 79 750 c 5,19,-1
 79 771 l 5,20,-1
 289 1444 l 5,21,-1
 331 1444 l 5,22,23
 372 1423 372 1423 395 1423 c 5,24,-1
 395 1360 l 5,25,-1
 268 855 l 5,26,27
 752 907 752 907 752 1045 c 5,28,29
 815 1045 815 1045 815 1108 c 5,30,-1
 794 1150 l 5,31,32
 857 1486 857 1486 941 1486 c 5,0,1
EndSplineSet
EndChar

StartChar: five
Encoding: 53 53 24
Width: 1090
Flags: HW
LayerCount: 2
Fore
SplineSet
311 1542 m 5,0,1
 588 1500 588 1500 690 1500 c 5,2,3
 960 1542 960 1542 1006 1542 c 5,4,-1
 1006 1479 l 6,5,6
 1006 1402 1006 1402 690 1374 c 6,7,-1
 396 1374 l 5,8,9
 352 1357 352 1357 269 1101 c 5,10,11
 516 1122 516 1122 627 1122 c 6,12,-1
 711 1122 l 6,13,14
 916 1122 916 1122 1006 785 c 5,15,16
 1006 502 1006 502 374 112 c 5,17,-1
 353 112 l 6,18,19
 149 112 149 112 80 343 c 5,20,21
 101 435 101 435 185 470 c 5,22,-1
 206 470 l 5,23,-1
 248 449 l 5,24,-1
 227 343 l 5,25,26
 248 303 248 303 248 280 c 5,27,-1
 353 280 l 5,28,29
 837 574 837 574 837 743 c 6,30,-1
 837 848 l 5,31,32
 764 974 764 974 648 974 c 4,33,34
 583 974 583 974 248 953 c 5,35,36
 248 869 248 869 185 869 c 6,37,-1
 143 869 l 6,38,39
 95 869 95 869 80 974 c 5,40,41
 239 1473 239 1473 269 1521 c 5,42,43
 311 1521 311 1521 311 1542 c 5,0,1
EndSplineSet
EndChar

StartChar: six
Encoding: 54 54 25
Width: 1085
Flags: HW
LayerCount: 2
Fore
SplineSet
435 1493 m 5,0,-1
 562 1493 l 5,1,-1
 562 1388 l 5,2,3
 372 1100 372 1100 267 673 c 5,4,5
 288 632 288 632 288 610 c 5,6,-1
 267 610 l 5,7,8
 288 502 288 502 372 336 c 5,9,-1
 414 336 l 5,10,-1
 393 378 l 5,11,12
 631 820 631 820 814 820 c 5,13,14
 901 791 901 791 940 715 c 5,15,-1
 940 610 l 6,16,17
 940 288 940 288 541 147 c 5,18,19
 198 147 198 147 141 610 c 4,20,21
 141 867 141 867 435 1493 c 5,0,-1
793 694 m 5,22,23
 562 472 562 472 562 336 c 5,24,-1
 583 336 l 5,25,-1
 625 315 l 5,26,27
 835 440 835 440 835 673 c 5,28,-1
 793 694 l 5,22,23
EndSplineSet
EndChar

StartChar: seven
Encoding: 55 55 26
Width: 1087
Flags: HW
LayerCount: 2
Fore
SplineSet
975 1575 m 5,0,-1
 996 1533 l 5,1,2
 980 1401 980 1401 639 629 c 5,3,4
 471 384 471 384 471 229 c 5,5,-1
 408 187 l 5,6,-1
 365 187 l 6,7,8
 335 187 335 187 302 250 c 5,9,-1
 302 271 l 6,10,11
 302 305 302 305 597 902 c 5,12,13
 649 947 649 947 786 1407 c 5,14,15
 442 1386 442 1386 155 1344 c 5,16,17
 92 1426 92 1426 92 1470 c 5,18,19
 176 1512 176 1512 176 1533 c 5,20,-1
 281 1512 l 5,21,22
 300 1512 300 1512 450 1533 c 5,23,-1
 492 1512 l 5,24,-1
 975 1575 l 5,0,-1
EndSplineSet
EndChar

StartChar: eight
Encoding: 56 56 27
Width: 1084
Flags: HW
LayerCount: 2
Fore
SplineSet
624 1524 m 5,0,1
 729 1524 729 1524 729 1461 c 5,2,-1
 813 1482 l 5,3,4
 882 1461 882 1461 897 1398 c 5,5,6
 897 1203 897 1203 666 914 c 5,7,-1
 666 893 l 5,8,9
 764 879 764 879 918 725 c 5,10,-1
 918 641 l 6,11,12
 873 220 873 220 540 220 c 5,13,14
 540 199 540 199 413 199 c 5,15,16
 287 267 287 267 287 367 c 6,17,-1
 287 494 l 6,18,19
 287 515 287 515 308 515 c 5,20,-1
 287 557 l 5,21,22
 413 784 413 784 413 830 c 5,23,24
 161 907 161 907 161 999 c 6,25,-1
 161 1062 l 6,26,27
 161 1272 161 1272 624 1524 c 5,0,1
729 1440 m 5,28,29
 729 1356 729 1356 561 1335 c 5,30,31
 308 1172 308 1172 308 1041 c 4,32,33
 308 982 308 982 519 956 c 5,34,35
 750 1224 750 1224 750 1419 c 6,36,-1
 750 1440 l 5,37,-1
 729 1440 l 5,28,29
561 788 m 5,38,39
 413 522 413 522 413 431 c 5,40,41
 434 346 434 346 498 346 c 4,42,43
 734 346 734 346 792 662 c 5,44,45
 601 785 601 785 561 788 c 5,38,39
EndSplineSet
EndChar

StartChar: nine
Encoding: 57 57 28
Width: 1089
Flags: HW
LayerCount: 2
Fore
SplineSet
565 1577 m 0,0,1
 785 1577 785 1577 819 1493 c 5,2,-1
 819 1451 l 6,3,4
 819 1421 819 1421 756 1388 c 5,5,6
 686 1388 686 1388 609 1451 c 5,7,8
 398 1451 398 1451 293 1241 c 5,9,-1
 293 1199 l 6,10,11
 293 1084 293 1084 419 1052 c 5,12,13
 798 1176 798 1176 798 1388 c 5,14,-1
 861 1388 l 6,15,16
 891 1388 891 1388 924 1325 c 5,17,18
 924 1270 924 1270 882 1073 c 5,19,-1
 903 1030 l 5,20,21
 861 917 861 917 819 673 c 5,22,-1
 840 631 l 5,23,-1
 840 568 l 6,24,25
 840 547 840 547 819 547 c 5,26,-1
 840 505 l 5,27,28
 819 189 819 189 735 189 c 5,29,-1
 651 273 l 5,30,31
 667 505 667 505 693 505 c 5,32,33
 693 526 693 526 672 526 c 5,34,35
 687 841 687 841 714 841 c 5,36,37
 714 862 714 862 693 862 c 5,38,-1
 714 967 l 5,39,-1
 714 1030 l 5,40,-1
 693 1030 l 5,41,42
 567 925 567 925 419 925 c 6,43,-1
 398 925 l 5,44,45
 167 967 167 967 167 1136 c 4,46,47
 167 1577 167 1577 565 1577 c 0,0,1
EndSplineSet
EndChar

StartChar: colon
Encoding: 58 58 29
Width: 413
Flags: W
LayerCount: 2
Fore
SplineSet
207 1409 m 1,0,-1
 249 1409 l 1,1,2
 333 1287 333 1287 333 1199 c 2,3,-1
 333 1178 l 1,4,-1
 228 1157 l 1,5,6
 123 1222 123 1222 123 1283 c 1,7,8
 207 1317 207 1317 207 1409 c 1,0,-1
144 526 m 1,9,-1
 186 526 l 1,10,11
 186 463 186 463 270 463 c 1,12,-1
 270 336 l 2,13,14
 270 294 270 294 228 294 c 2,15,-1
 165 294 l 1,16,17
 60 341 60 341 60 442 c 1,18,19
 144 478 144 478 144 526 c 1,9,-1
EndSplineSet
EndChar

StartChar: semicolon
Encoding: 59 59 30
Width: 434
Flags: W
LayerCount: 2
Fore
SplineSet
165 1409 m 1,0,-1
 207 1409 l 2,1,2
 228 1409 228 1409 228 1388 c 1,3,-1
 270 1409 l 1,4,-1
 291 1409 l 1,5,-1
 312 1262 l 1,6,-1
 228 1178 l 1,7,8
 160 1220 160 1220 123 1220 c 1,9,-1
 123 1367 l 1,10,11
 165 1367 165 1367 165 1409 c 1,0,-1
249 420 m 1,12,13
 333 420 333 420 354 189 c 1,14,15
 259 -63 259 -63 102 -63 c 0,16,17
 60 -63 60 -63 60 -21 c 2,18,-1
 60 0 l 1,19,-1
 144 105 l 1,20,21
 123 105 123 105 123 126 c 1,22,23
 207 126 207 126 207 189 c 2,24,-1
 207 231 l 1,25,-1
 186 378 l 1,26,-1
 249 420 l 1,12,13
EndSplineSet
EndChar

StartChar: less
Encoding: 60 60 31
Width: 898
Flags: W
LayerCount: 2
Fore
SplineSet
523 1388 m 1,0,1
 607 1357 607 1357 607 1325 c 0,2,3
 607 1165 607 1165 481 1073 c 1,4,5
 375 920 375 920 249 799 c 1,6,7
 361 715 361 715 796 526 c 1,8,-1
 817 420 l 1,9,-1
 754 378 l 1,10,-1
 733 378 l 2,11,12
 661 378 661 378 60 736 c 1,13,-1
 60 799 l 1,14,15
 435 1195 435 1195 481 1388 c 1,16,-1
 523 1388 l 1,0,1
EndSplineSet
EndChar

StartChar: equal
Encoding: 61 61 32
Width: 876
Flags: W
LayerCount: 2
Fore
SplineSet
144 1052 m 1,0,1
 249 1052 249 1052 249 1009 c 1,2,-1
 291 1030 l 1,3,-1
 376 1030 l 2,4,5
 397 1030 397 1030 397 1009 c 1,6,-1
 439 1030 l 1,7,-1
 460 1030 l 2,8,9
 546 1030 546 1030 628 1009 c 1,10,-1
 775 1009 l 1,11,12
 796 973 796 973 796 925 c 0,13,14
 796 895 796 895 733 862 c 1,15,-1
 712 862 l 2,16,17
 691 862 691 862 691 883 c 1,18,-1
 649 862 l 1,19,-1
 586 862 l 2,20,21
 539 862 539 862 502 883 c 1,22,-1
 460 862 l 1,23,-1
 354 883 l 1,24,25
 339 883 339 883 228 862 c 1,26,27
 60 883 60 883 60 967 c 1,28,29
 75 1030 75 1030 144 1052 c 1,0,1
207 610 m 1,30,-1
 291 610 l 2,31,32
 339 610 339 610 376 589 c 1,33,-1
 418 610 l 1,34,-1
 460 589 l 1,35,-1
 565 610 l 1,36,37
 796 530 796 530 796 505 c 2,38,-1
 796 484 l 1,39,40
 787 440 787 440 691 399 c 1,41,42
 556 442 556 442 291 463 c 1,43,44
 257 442 257 442 186 442 c 2,45,-1
 144 442 l 2,46,47
 102 442 102 442 102 484 c 2,48,-1
 102 589 l 1,49,-1
 207 610 l 1,30,-1
EndSplineSet
EndChar

StartChar: greater
Encoding: 62 62 33
Width: 771
Flags: W
LayerCount: 2
Fore
SplineSet
102 1514 m 1,0,-1
 207 1514 l 1,1,2
 207 1451 207 1451 607 1199 c 1,3,4
 691 1178 691 1178 691 1094 c 1,5,6
 616 962 616 962 333 694 c 1,7,8
 244 526 244 526 207 526 c 0,9,10
 185 526 185 526 144 505 c 1,11,-1
 60 547 l 1,12,13
 60 690 60 690 376 946 c 1,14,-1
 481 1094 l 1,15,16
 102 1380 102 1380 102 1409 c 2,17,-1
 102 1514 l 1,0,-1
EndSplineSet
EndChar

StartChar: question
Encoding: 63 63 34
Width: 876
Flags: W
LayerCount: 2
Fore
SplineSet
502 1662 m 1,0,1
 611 1662 611 1662 796 1430 c 1,2,-1
 796 1409 l 2,3,4
 796 1246 796 1246 418 778 c 1,5,6
 418 694 418 694 376 694 c 1,7,-1
 397 589 l 1,8,-1
 397 547 l 1,9,-1
 354 547 l 2,10,11
 307 547 307 547 270 568 c 1,12,13
 230 547 230 547 207 547 c 1,14,-1
 207 568 l 2,15,16
 207 589 207 589 228 589 c 1,17,-1
 207 631 l 1,18,-1
 207 652 l 1,19,20
 326 897 326 897 649 1346 c 1,21,-1
 649 1388 l 2,22,23
 649 1409 649 1409 523 1514 c 1,24,25
 186 1350 186 1350 186 1178 c 1,26,-1
 123 1178 l 2,27,28
 93 1178 93 1178 60 1241 c 1,29,-1
 60 1283 l 1,30,31
 269 1552 269 1552 502 1662 c 1,0,1
291 315 m 2,32,-1
 333 315 l 1,33,-1
 397 273 l 1,34,-1
 376 168 l 1,35,-1
 376 84 l 1,36,-1
 312 84 l 2,37,38
 286 84 286 84 228 231 c 1,39,40
 260 315 260 315 291 315 c 2,32,-1
EndSplineSet
EndChar

StartChar: at
Encoding: 64 64 35
Width: 1528
Flags: W
LayerCount: 2
Fore
SplineSet
1133 1619 m 0,0,1
 1255 1619 1255 1619 1406 1388 c 1,2,3
 1448 1216 1448 1216 1448 1157 c 2,4,-1
 1427 1009 l 1,5,-1
 1448 967 l 1,6,7
 1373 791 1373 791 1238 652 c 1,8,9
 1280 645 1280 645 1280 610 c 1,10,11
 1123 105 1123 105 670 105 c 1,12,13
 186 231 186 231 186 357 c 1,14,15
 60 488 60 488 60 757 c 2,16,-1
 60 904 l 1,17,18
 188 1264 188 1264 607 1472 c 0,19,20
 896 1598 896 1598 1133 1619 c 0,0,1
186 820 m 1,21,22
 207 779 207 779 207 757 c 1,23,-1
 186 715 l 1,24,25
 286 252 286 252 712 252 c 1,26,-1
 754 273 l 1,27,-1
 796 252 l 1,28,29
 999 252 999 252 1133 631 c 1,30,31
 1028 631 1028 631 901 694 c 1,32,33
 776 589 776 589 586 589 c 1,34,35
 481 710 481 710 481 799 c 1,36,37
 535 960 535 960 754 1094 c 1,38,-1
 817 1094 l 1,39,40
 938 1036 938 1036 986 946 c 1,41,42
 1034 946 1034 946 1049 820 c 1,43,44
 1070 820 1070 820 1070 799 c 1,45,46
 1322 848 1322 848 1322 1136 c 1,47,-1
 1301 1262 l 1,48,49
 1301 1283 1301 1283 1322 1283 c 1,50,51
 1245 1472 1245 1472 1091 1472 c 2,52,-1
 1049 1472 l 2,53,54
 770 1433 770 1433 354 1136 c 1,55,56
 270 1023 270 1023 186 820 c 1,21,22
649 820 m 1,57,-1
 649 757 l 1,58,-1
 712 757 l 1,59,60
 838 836 838 836 838 862 c 1,61,62
 822 946 822 946 796 946 c 1,63,64
 701 912 701 912 649 820 c 1,57,-1
EndSplineSet
EndChar

StartChar: A
Encoding: 65 65 36
Width: 1087
Flags: W
LayerCount: 2
Fore
SplineSet
607 1493 m 1,0,-1
 649 1493 l 2,1,2
 748 1493 748 1493 838 820 c 0,3,4
 838 589 838 589 964 589 c 1,5,-1
 964 568 l 1,6,7
 928 484 928 484 880 484 c 1,8,9
 922 279 922 279 1007 147 c 1,10,-1
 1007 126 l 2,11,12
 1007 17 1007 17 943 0 c 1,13,-1
 901 0 l 2,14,15
 827 0 827 0 754 484 c 1,16,-1
 628 463 l 1,17,-1
 586 484 l 1,18,-1
 544 463 l 1,19,20
 384 484 384 484 333 505 c 1,21,22
 207 105 207 105 165 105 c 2,23,-1
 123 105 l 2,24,25
 92 105 92 105 60 189 c 1,26,-1
 481 1241 l 1,27,28
 481 1262 481 1262 523 1262 c 1,29,-1
 523 1304 l 2,30,31
 523 1465 523 1465 607 1493 c 1,0,-1
607 1178 m 1,32,-1
 376 631 l 1,33,-1
 502 631 l 1,34,-1
 712 610 l 1,35,-1
 712 631 l 1,36,-1
 628 1178 l 1,37,-1
 607 1178 l 1,32,-1
EndSplineSet
EndChar

StartChar: B
Encoding: 66 66 37
Width: 1150
Flags: W
LayerCount: 2
Fore
SplineSet
628 1535 m 1,0,1
 796 1476 796 1476 838 1388 c 1,2,-1
 838 1220 l 2,3,4
 838 1109 838 1109 712 946 c 1,5,6
 1028 946 1028 946 1070 673 c 1,7,8
 864 168 864 168 544 168 c 1,9,-1
 544 189 l 1,10,-1
 439 147 l 1,11,-1
 397 168 l 1,12,13
 376 168 376 168 376 147 c 1,14,-1
 270 168 l 1,15,-1
 186 168 l 1,16,-1
 186 126 l 1,17,-1
 102 126 l 2,18,19
 60 126 60 126 60 168 c 0,20,21
 60 582 60 582 186 1430 c 1,22,23
 392 1514 392 1514 628 1535 c 1,0,1
249 841 m 1,24,25
 529 841 529 841 712 1241 c 1,26,27
 683 1388 683 1388 628 1388 c 2,28,-1
 607 1388 l 2,29,30
 291 1388 291 1388 291 1157 c 0,31,32
 291 1021 291 1021 249 841 c 1,24,25
207 652 m 2,33,-1
 207 273 l 1,34,35
 711 273 711 273 880 568 c 1,36,-1
 901 673 l 1,37,-1
 901 715 l 2,38,39
 901 748 901 748 817 799 c 1,40,-1
 733 799 l 2,41,42
 590 799 590 799 312 694 c 1,43,44
 207 694 207 694 207 652 c 2,33,-1
EndSplineSet
EndChar

StartChar: C
Encoding: 67 67 38
Width: 1108
Flags: W
LayerCount: 2
Fore
SplineSet
712 1493 m 0,0,1
 765 1493 765 1493 817 1283 c 1,2,3
 796 1220 796 1220 691 1220 c 1,4,5
 649 1271 649 1271 649 1304 c 1,6,-1
 628 1304 l 1,7,8
 341 1135 341 1135 207 778 c 1,9,-1
 186 631 l 1,10,11
 186 352 186 352 418 231 c 1,12,13
 565 210 565 210 565 189 c 1,14,15
 798 267 798 267 880 336 c 1,16,-1
 986 336 l 1,17,18
 1028 330 1028 330 1028 294 c 2,19,-1
 1028 252 l 1,20,21
 859 199 859 199 859 126 c 1,22,-1
 838 126 l 1,23,-1
 796 147 l 1,24,25
 796 84 796 84 502 63 c 2,26,-1
 460 63 l 1,27,28
 60 203 60 203 60 547 c 2,29,-1
 60 673 l 2,30,31
 60 987 60 987 460 1367 c 1,32,33
 651 1493 651 1493 712 1493 c 0,0,1
EndSplineSet
EndChar

StartChar: D
Encoding: 68 68 39
Width: 1213
Flags: W
LayerCount: 2
Fore
SplineSet
649 1346 m 1,0,1
 1133 1220 1133 1220 1133 862 c 2,2,-1
 1133 820 l 2,3,4
 1133 368 1133 368 460 189 c 1,5,-1
 270 189 l 2,6,7
 249 189 249 189 249 210 c 1,8,-1
 207 189 l 1,9,-1
 186 189 l 2,10,11
 156 189 156 189 123 252 c 1,12,-1
 123 273 l 2,13,14
 123 294 123 294 207 336 c 1,15,-1
 249 315 l 1,16,17
 312 336 312 336 312 357 c 1,18,19
 381 315 381 315 418 315 c 1,20,21
 487 357 487 357 544 357 c 1,22,-1
 544 336 l 1,23,24
 1007 529 1007 529 1007 883 c 0,25,26
 1007 1023 1007 1023 838 1136 c 0,27,28
 745 1199 745 1199 565 1220 c 1,29,-1
 523 1199 l 1,30,-1
 481 1220 l 1,31,32
 312 1165 312 1165 312 1136 c 2,33,-1
 312 883 l 1,34,-1
 333 673 l 1,35,-1
 312 673 l 1,36,-1
 333 631 l 1,37,38
 333 608 333 608 312 568 c 1,39,40
 333 454 333 454 333 378 c 1,41,42
 249 362 249 362 249 336 c 1,43,44
 165 348 165 348 165 526 c 2,45,-1
 186 715 l 1,46,47
 165 756 165 756 165 778 c 1,48,-1
 186 778 l 1,49,-1
 165 820 l 1,50,-1
 165 1073 l 1,51,52
 60 1136 60 1136 60 1220 c 1,53,54
 134 1310 134 1310 649 1346 c 1,0,1
EndSplineSet
EndChar

StartChar: E
Encoding: 69 69 40
Width: 1149
Flags: W
LayerCount: 2
Fore
SplineSet
1049 1451 m 1,0,-1
 1070 1409 l 1,1,-1
 1070 1325 l 1,2,-1
 1028 1325 l 2,3,4
 481 1283 481 1283 481 1199 c 0,5,6
 460 954 460 954 397 736 c 1,7,-1
 418 736 l 1,8,9
 424 778 424 778 460 778 c 0,10,11
 649 765 649 765 649 736 c 1,12,13
 705 752 705 752 901 778 c 1,14,-1
 901 694 l 1,15,16
 669 610 669 610 607 610 c 0,17,18
 418 626 418 626 418 715 c 1,19,-1
 376 715 l 1,20,-1
 249 315 l 1,21,22
 439 294 439 294 439 273 c 1,23,-1
 481 294 l 1,24,-1
 607 294 l 1,25,26
 894 350 894 350 943 399 c 1,27,28
 991 399 991 399 1007 294 c 1,29,30
 827 147 827 147 481 147 c 2,31,-1
 376 147 l 2,32,33
 81 147 81 147 81 252 c 1,34,35
 60 252 60 252 60 294 c 1,36,37
 203 469 203 469 354 1178 c 1,38,-1
 333 1220 l 1,39,-1
 333 1241 l 2,40,41
 333 1262 333 1262 354 1262 c 1,42,-1
 333 1304 l 1,43,-1
 333 1325 l 2,44,45
 333 1388 333 1388 1049 1451 c 1,0,-1
EndSplineSet
EndChar

StartChar: F
Encoding: 70 70 41
Width: 1129
Flags: W
LayerCount: 2
Fore
SplineSet
943 1346 m 1,0,-1
 943 1325 l 1,1,-1
 986 1346 l 1,2,3
 1016 1346 1016 1346 1049 1283 c 1,4,-1
 1049 1262 l 2,5,6
 1049 1224 1049 1224 607 1157 c 1,7,8
 376 1084 376 1084 376 1030 c 1,9,10
 312 808 312 808 312 757 c 1,11,12
 333 757 333 757 333 736 c 1,13,14
 485 757 485 757 712 820 c 1,15,-1
 754 820 l 1,16,-1
 754 778 l 2,17,18
 754 693 754 693 333 589 c 1,19,20
 236 589 236 589 228 294 c 1,21,22
 166 105 166 105 123 105 c 2,23,-1
 102 105 l 2,24,25
 60 105 60 105 60 147 c 2,26,-1
 60 252 l 2,27,28
 60 273 60 273 81 273 c 1,29,30
 81 294 81 294 60 294 c 1,31,32
 144 540 144 540 270 1325 c 1,33,-1
 312 1325 l 1,34,-1
 397 1262 l 1,35,36
 729 1346 729 1346 943 1346 c 1,0,-1
EndSplineSet
EndChar

StartChar: G
Encoding: 71 71 42
Width: 1276
Flags: W
LayerCount: 2
Fore
SplineSet
880 1493 m 1,0,1
 1154 1417 1154 1417 1154 1367 c 1,2,3
 1196 1290 1196 1290 1196 1199 c 1,4,-1
 1154 1178 l 1,5,-1
 1091 1178 l 1,6,7
 997 1325 997 1325 964 1325 c 1,8,9
 881 1346 881 1346 817 1346 c 1,10,11
 488 1195 488 1195 397 1009 c 1,12,13
 186 730 186 730 186 484 c 0,14,15
 186 407 186 407 439 315 c 1,16,-1
 481 336 l 1,17,-1
 544 336 l 2,18,19
 591 336 591 336 628 315 c 1,20,21
 1028 421 1028 421 1028 505 c 0,22,23
 1028 526 1028 526 1007 526 c 1,24,-1
 901 505 l 1,25,26
 733 526 733 526 733 568 c 2,27,-1
 733 589 l 2,28,29
 733 619 733 619 796 652 c 1,30,31
 817 652 817 652 817 631 c 1,32,-1
 859 652 l 1,33,-1
 880 652 l 2,34,35
 943 652 943 652 943 631 c 1,36,-1
 1049 652 l 1,37,-1
 1133 652 l 2,38,39
 1175 652 1175 652 1175 589 c 0,40,41
 1175 578 1175 578 1133 252 c 1,42,43
 1154 102 1154 102 1154 84 c 1,44,-1
 1112 63 l 1,45,-1
 1070 63 l 2,46,47
 1007 63 1007 63 986 273 c 1,48,49
 958 273 958 273 628 189 c 1,50,-1
 523 189 l 2,51,52
 178 189 178 189 60 399 c 1,53,-1
 60 547 l 2,54,55
 60 842 60 842 460 1283 c 0,56,57
 639 1440 639 1440 880 1493 c 1,0,1
EndSplineSet
EndChar

StartChar: H
Encoding: 72 72 43
Width: 1128
Flags: W
LayerCount: 2
Fore
SplineSet
207 1430 m 1,0,-1
 249 1430 l 2,1,2
 291 1430 291 1430 291 1367 c 1,3,-1
 270 1283 l 1,4,5
 270 1262 270 1262 291 1262 c 1,6,-1
 228 841 l 1,7,-1
 376 841 l 2,8,9
 706 841 706 841 754 925 c 1,10,-1
 817 925 l 1,11,12
 838 1030 838 1030 859 1030 c 1,13,14
 859 1052 859 1052 838 1052 c 1,15,16
 859 1262 859 1262 943 1430 c 1,17,-1
 1049 1430 l 1,18,19
 981 1239 981 1239 922 420 c 1,20,21
 943 257 943 257 986 189 c 1,22,23
 964 148 964 148 964 126 c 1,24,-1
 859 126 l 1,25,26
 859 155 859 155 796 252 c 1,27,28
 796 273 796 273 817 273 c 1,29,-1
 796 420 l 1,30,-1
 796 799 l 1,31,32
 796 715 796 715 228 694 c 1,33,-1
 207 547 l 1,34,-1
 207 526 l 1,35,-1
 228 378 l 1,36,-1
 207 378 l 1,37,38
 228 338 228 338 228 315 c 1,39,40
 207 231 207 231 123 231 c 1,41,42
 82 252 82 252 60 252 c 1,43,-1
 60 420 l 1,44,-1
 81 547 l 1,45,46
 81 568 81 568 60 568 c 1,47,48
 144 1115 144 1115 144 1346 c 2,49,-1
 144 1367 l 2,50,51
 144 1397 144 1397 207 1430 c 1,0,-1
EndSplineSet
EndChar

StartChar: I
Encoding: 73 73 44
Width: 308
Flags: W
LayerCount: 2
Fore
SplineSet
186 1367 m 1,0,-1
 207 1367 l 1,1,2
 207 1345 207 1345 228 1304 c 1,3,4
 207 930 207 930 207 694 c 2,5,-1
 207 631 l 2,6,7
 207 610 207 610 186 610 c 1,8,-1
 228 399 l 1,9,10
 207 363 207 363 207 315 c 1,11,12
 228 315 228 315 228 294 c 1,13,-1
 165 294 l 1,14,-1
 60 315 l 1,15,16
 60 336 60 336 81 336 c 1,17,-1
 60 378 l 1,18,-1
 60 736 l 2,19,20
 60 757 60 757 81 757 c 1,21,-1
 60 799 l 1,22,-1
 60 841 l 2,23,24
 60 862 60 862 81 862 c 1,25,26
 81 883 81 883 60 883 c 1,27,-1
 81 1030 l 1,28,-1
 81 1346 l 1,29,-1
 186 1367 l 1,0,-1
EndSplineSet
EndChar

StartChar: J
Encoding: 74 74 45
Width: 1234
Flags: W
LayerCount: 2
Fore
SplineSet
670 1451 m 1,0,-1
 754 1451 l 1,1,2
 754 1388 754 1388 796 1388 c 2,3,-1
 1028 1388 l 2,4,5
 1154 1375 1154 1375 1154 1325 c 2,6,-1
 1154 1304 l 1,7,8
 1118 1304 1118 1304 1028 1262 c 1,9,-1
 901 1283 l 1,10,-1
 859 1262 l 1,11,12
 823 1283 823 1283 775 1283 c 1,13,-1
 775 1262 l 1,14,15
 1007 693 1007 693 1007 463 c 0,16,17
 1007 306 1007 306 544 84 c 1,18,-1
 502 84 l 1,19,-1
 502 105 l 1,20,-1
 460 84 l 1,21,22
 439 84 439 84 439 105 c 1,23,-1
 333 84 l 1,24,-1
 249 84 l 1,25,26
 60 176 60 176 60 294 c 0,27,28
 60 336 60 336 165 336 c 1,29,30
 165 210 165 210 354 210 c 1,31,32
 859 300 859 300 859 526 c 2,33,-1
 859 568 l 2,34,35
 859 696 859 696 628 1262 c 1,36,-1
 607 1262 l 1,37,38
 358 1220 358 1220 291 1220 c 1,39,-1
 291 1346 l 1,40,41
 615 1388 615 1388 670 1451 c 1,0,-1
EndSplineSet
EndChar

StartChar: K
Encoding: 75 75 46
Width: 1045
Flags: W
LayerCount: 2
Fore
SplineSet
270 1451 m 1,0,1
 311 1430 311 1430 333 1430 c 1,2,3
 312 1079 312 1079 270 820 c 1,4,-1
 312 820 l 1,5,6
 688 1262 688 1262 817 1262 c 1,7,-1
 817 1241 l 2,8,9
 817 1177 817 1177 439 757 c 1,10,-1
 565 673 l 1,11,12
 964 313 964 313 964 168 c 1,13,14
 933 84 933 84 901 84 c 1,15,16
 850 126 850 126 817 126 c 1,17,-1
 838 168 l 1,18,19
 367 694 367 694 249 694 c 1,20,21
 249 105 249 105 144 105 c 2,22,-1
 81 105 l 1,23,24
 81 127 81 127 60 168 c 1,25,26
 81 357 81 357 102 357 c 1,27,28
 102 378 102 378 81 378 c 1,29,30
 165 932 165 932 165 1304 c 1,31,32
 200 1304 200 1304 228 1451 c 1,33,-1
 270 1451 l 1,0,1
EndSplineSet
EndChar

StartChar: L
Encoding: 76 76 47
Width: 1087
Flags: W
LayerCount: 2
Fore
SplineSet
354 1388 m 1,0,-1
 376 1346 l 1,1,2
 376 1299 376 1299 207 526 c 1,3,4
 207 294 207 294 354 294 c 1,5,6
 481 252 481 252 712 210 c 1,7,8
 753 231 753 231 775 231 c 1,9,-1
 859 210 l 1,10,-1
 986 210 l 1,11,12
 986 188 986 188 1007 147 c 1,13,14
 978 60 978 60 901 21 c 1,15,16
 828 57 828 57 607 105 c 1,17,-1
 565 84 l 1,18,19
 81 194 81 194 81 231 c 1,20,21
 60 268 60 268 60 315 c 0,22,23
 60 363 60 363 81 399 c 1,24,25
 60 513 60 513 60 589 c 1,26,27
 228 1272 228 1272 270 1367 c 1,28,29
 281 1367 281 1367 354 1388 c 1,0,-1
EndSplineSet
EndChar

StartChar: M
Encoding: 77 77 48
Width: 1802
Flags: W
LayerCount: 2
Fore
SplineSet
460 1556 m 1,0,-1
 502 1556 l 2,1,2
 537 1556 537 1556 733 1241 c 1,3,4
 768 1241 768 1241 964 1030 c 1,5,-1
 1427 1346 l 1,6,7
 1457 1451 1457 1451 1574 1451 c 0,8,9
 1680 1451 1680 1451 1680 1283 c 1,10,11
 1659 1242 1659 1242 1659 1220 c 0,12,13
 1659 1199 1659 1199 1680 1199 c 1,14,-1
 1659 1052 l 1,15,-1
 1659 820 l 2,16,17
 1659 799 1659 799 1638 799 c 1,18,19
 1638 778 1638 778 1659 778 c 1,20,21
 1659 756 1659 756 1638 715 c 1,22,23
 1659 599 1659 599 1659 547 c 1,24,-1
 1638 547 l 1,25,26
 1722 310 1722 310 1722 294 c 1,27,-1
 1701 252 l 1,28,-1
 1722 210 l 1,29,30
 1680 97 1680 97 1617 84 c 1,31,32
 1574 359 1574 359 1511 442 c 1,33,-1
 1511 631 l 2,34,35
 1511 678 1511 678 1490 715 c 1,36,37
 1532 862 1532 862 1532 1241 c 1,38,-1
 1490 1241 l 1,39,40
 1054 862 1054 862 922 862 c 1,41,42
 481 1278 481 1278 481 1367 c 1,43,-1
 439 1367 l 1,44,45
 439 1241 439 1241 207 336 c 1,46,47
 228 296 228 296 228 273 c 1,48,49
 199 126 199 126 144 126 c 2,50,-1
 123 126 l 2,51,52
 93 126 93 126 60 189 c 1,53,-1
 60 231 l 1,54,55
 300 1451 300 1451 354 1451 c 0,56,57
 368 1451 368 1451 460 1556 c 1,0,-1
EndSplineSet
EndChar

StartChar: N
Encoding: 78 78 49
Width: 1466
Flags: W
LayerCount: 2
Fore
SplineSet
333 1409 m 1,0,-1
 439 1388 l 1,1,-1
 418 1283 l 1,2,3
 470 1125 470 1125 817 694 c 0,4,5
 968 463 968 463 1049 463 c 1,6,-1
 1049 484 l 1,7,8
 1185 920 1185 920 1217 946 c 1,9,10
 1217 1136 1217 1136 1259 1136 c 1,11,-1
 1238 1241 l 1,12,-1
 1238 1262 l 2,13,14
 1238 1292 1238 1292 1301 1325 c 1,15,-1
 1364 1325 l 1,16,-1
 1385 1220 l 1,17,18
 1312 736 1312 736 1238 736 c 1,19,-1
 1238 589 l 2,20,21
 1238 542 1238 542 1091 231 c 1,22,23
 980 231 980 231 733 589 c 1,24,25
 686 589 686 589 397 1030 c 1,26,27
 376 1030 376 1030 376 1073 c 1,28,29
 304 1014 304 1014 249 399 c 1,30,31
 199 231 199 231 165 231 c 2,32,-1
 123 231 l 2,33,34
 93 231 93 231 60 294 c 1,35,36
 186 1041 186 1041 291 1409 c 1,37,-1
 333 1409 l 1,0,-1
EndSplineSet
EndChar

StartChar: O
Encoding: 79 79 50
Width: 1297
Flags: W
LayerCount: 2
Fore
SplineSet
670 1472 m 1,0,1
 784 1472 784 1472 1112 1178 c 1,2,3
 1196 973 1196 973 1217 799 c 1,4,5
 1200 715 1200 715 1175 715 c 1,6,-1
 1196 673 l 1,7,8
 997 259 997 259 754 189 c 0,9,10
 607 154 607 154 607 126 c 1,11,12
 217 126 217 126 81 547 c 1,13,14
 81 722 81 722 60 736 c 1,15,16
 194 1283 194 1283 354 1283 c 1,17,18
 439 1388 439 1388 544 1388 c 1,19,20
 550 1346 550 1346 586 1346 c 1,21,22
 586 1366 586 1366 670 1472 c 1,0,1
649 1241 m 1,23,24
 608 1262 608 1262 586 1262 c 1,25,-1
 376 1136 l 1,26,27
 207 962 207 962 207 652 c 1,28,29
 295 273 295 273 565 273 c 2,30,-1
 586 273 l 2,31,32
 831 273 831 273 1070 673 c 1,33,34
 1091 821 1091 821 1091 925 c 0,35,36
 1091 1101 1091 1101 817 1262 c 0,37,38
 780 1283 780 1283 733 1283 c 1,39,-1
 649 1241 l 1,23,24
EndSplineSet
EndChar

StartChar: P
Encoding: 80 80 51
Width: 1297
Flags: W
LayerCount: 2
Fore
SplineSet
796 1535 m 1,0,1
 907 1514 907 1514 922 1514 c 1,2,-1
 964 1535 l 1,3,4
 1217 1469 1217 1469 1217 1262 c 2,5,-1
 1217 1241 l 2,6,7
 1217 1075 1217 1075 901 925 c 1,8,9
 839 925 839 925 439 757 c 1,10,11
 354 757 354 757 312 841 c 1,12,-1
 312 862 l 2,13,14
 312 894 312 894 523 946 c 0,15,16
 1000 1105 1000 1105 1070 1220 c 1,17,-1
 1070 1304 l 1,18,19
 1035 1388 1035 1388 922 1388 c 2,20,-1
 691 1388 l 2,21,22
 315 1388 315 1388 270 1030 c 0,23,24
 270 1009 270 1009 291 1009 c 1,25,26
 243 694 243 694 228 694 c 1,27,-1
 249 652 l 1,28,29
 233 568 233 568 207 568 c 1,30,31
 228 527 228 527 228 505 c 1,32,33
 207 394 207 394 207 378 c 1,34,-1
 228 336 l 1,35,36
 188 240 188 240 144 231 c 1,37,-1
 123 231 l 2,38,39
 71 231 71 231 60 315 c 1,40,41
 123 956 123 956 186 1346 c 1,42,43
 471 1535 471 1535 796 1535 c 1,0,1
EndSplineSet
EndChar

StartChar: Q
Encoding: 81 81 52
Width: 1444
Flags: W
LayerCount: 2
Fore
SplineSet
754 1514 m 1,0,1
 754 1484 754 1484 817 1451 c 1,2,3
 817 1481 817 1481 880 1514 c 1,4,5
 991 1514 991 1514 1112 1283 c 0,6,7
 1212 1115 1212 1115 1259 1115 c 1,8,-1
 1259 1009 l 1,9,10
 1217 773 1217 773 1028 505 c 1,11,12
 1028 397 1028 397 1364 252 c 1,13,-1
 1364 189 l 2,14,15
 1364 147 1364 147 1322 147 c 2,16,-1
 1259 147 l 2,17,18
 1161 147 1161 147 922 357 c 1,19,20
 663 147 663 147 439 147 c 1,21,22
 60 260 60 260 60 631 c 2,23,-1
 60 694 l 2,24,25
 60 1022 60 1022 565 1451 c 1,26,-1
 754 1514 l 1,0,1
649 1367 m 1,27,28
 317 1092 317 1092 249 862 c 2,29,30
 195 805 195 805 186 652 c 2,31,-1
 186 610 l 2,32,33
 186 348 186 348 481 294 c 1,34,-1
 523 294 l 1,35,36
 838 395 838 395 838 484 c 1,37,38
 733 615 733 615 733 694 c 1,39,40
 754 735 754 735 754 757 c 1,41,-1
 859 757 l 1,42,43
 922 605 922 605 922 589 c 1,44,45
 1133 844 1133 844 1133 1052 c 1,46,47
 952 1325 952 1325 880 1325 c 1,48,49
 677 1367 677 1367 649 1367 c 1,27,28
EndSplineSet
EndChar

StartChar: R
Encoding: 82 82 53
Width: 1150
Flags: W
LayerCount: 2
Fore
SplineSet
733 1619 m 2,0,-1
 880 1619 l 1,1,2
 986 1582 986 1582 986 1430 c 2,3,-1
 986 1409 l 1,4,5
 850 946 850 946 691 946 c 1,6,7
 544 842 544 842 544 820 c 1,8,9
 674 811 674 811 964 568 c 0,10,11
 1070 483 1070 483 1070 420 c 0,12,13
 1057 252 1057 252 1007 252 c 2,14,-1
 964 252 l 2,15,16
 906 252 906 252 880 463 c 1,17,18
 678 643 678 643 312 736 c 1,19,20
 276 715 276 715 228 715 c 1,21,-1
 228 610 l 2,22,23
 228 189 228 189 123 189 c 1,24,25
 82 210 82 210 60 210 c 1,26,27
 102 954 102 954 165 1157 c 1,28,29
 165 1178 165 1178 144 1178 c 1,30,31
 144 1451 144 1451 291 1451 c 1,32,33
 602 1619 602 1619 733 1619 c 2,0,-1
270 1052 m 2,34,-1
 270 904 l 1,35,36
 817 1076 817 1076 817 1304 c 1,37,38
 859 1304 859 1304 859 1451 c 1,39,-1
 796 1493 l 1,40,41
 755 1472 755 1472 733 1472 c 1,42,-1
 733 1493 l 1,43,44
 270 1389 270 1389 270 1052 c 2,34,-1
EndSplineSet
EndChar

StartChar: S
Encoding: 83 83 54
Width: 1255
Flags: W
LayerCount: 2
Fore
SplineSet
880 1577 m 1,0,-1
 901 1535 l 1,1,-1
 901 1493 l 2,2,3
 901 1451 901 1451 607 1409 c 1,4,5
 417 1318 417 1318 354 1220 c 1,6,-1
 354 1178 l 2,7,8
 354 1091 354 1091 943 988 c 1,9,10
 1175 904 1175 904 1175 694 c 1,11,12
 1119 491 1119 491 754 231 c 1,13,14
 608 189 608 189 502 189 c 0,15,16
 354 189 354 189 354 252 c 1,17,18
 186 252 186 252 81 336 c 1,19,-1
 60 336 l 1,20,-1
 60 442 l 1,21,-1
 102 442 l 1,22,23
 462 336 462 336 565 336 c 0,24,25
 784 336 784 336 1028 715 c 2,26,-1
 1049 757 l 1,27,28
 951 883 951 883 418 946 c 1,29,30
 207 1091 207 1091 207 1220 c 2,31,-1
 207 1241 l 1,32,33
 434 1577 434 1577 880 1577 c 1,0,-1
EndSplineSet
EndChar

StartChar: T
Encoding: 84 84 55
Width: 1360
Flags: W
LayerCount: 2
Fore
SplineSet
123 1430 m 1,0,-1
 544 1367 l 1,1,2
 585 1388 585 1388 607 1388 c 1,3,-1
 607 1367 l 1,4,5
 628 1367 628 1367 628 1388 c 1,6,-1
 733 1367 l 1,7,-1
 964 1367 l 2,8,9
 989 1367 989 1367 1196 1409 c 1,10,11
 1247 1367 1247 1367 1280 1367 c 1,12,13
 1280 1266 1280 1266 1175 1220 c 1,14,-1
 1070 1241 l 1,15,-1
 691 1241 l 1,16,17
 712 1200 712 1200 712 1178 c 0,18,19
 712 942 712 942 607 315 c 1,20,-1
 607 294 l 2,21,22
 607 273 607 273 628 273 c 1,23,24
 565 -21 565 -21 502 -21 c 2,25,-1
 481 -21 l 2,26,27
 425 -21 425 -21 397 126 c 1,28,29
 469 126 469 126 565 1073 c 0,30,31
 565 1184 565 1184 586 1262 c 1,32,33
 565 1262 565 1262 565 1241 c 1,34,35
 60 1273 60 1273 60 1346 c 1,36,-1
 123 1430 l 1,0,-1
EndSplineSet
EndChar

StartChar: U
Encoding: 85 85 56
Width: 1192
Flags: W
LayerCount: 2
Fore
SplineSet
291 1451 m 1,0,1
 291 1404 291 1404 312 1367 c 1,2,3
 228 1054 228 1054 228 694 c 1,4,-1
 207 694 l 1,5,6
 228 576 228 576 333 315 c 1,7,8
 591 315 591 315 859 757 c 1,9,10
 922 973 922 973 922 1346 c 2,11,-1
 922 1367 l 2,12,13
 922 1397 922 1397 986 1430 c 1,14,15
 1112 1430 1112 1430 1112 1241 c 2,16,-1
 1112 1220 l 1,17,-1
 1091 1178 l 1,18,-1
 1112 1052 l 1,19,20
 1007 653 1007 653 1007 589 c 1,21,-1
 1028 547 l 1,22,-1
 986 463 l 1,23,24
 1049 284 1049 284 1049 210 c 1,25,-1
 922 189 l 1,26,27
 838 245 838 245 838 442 c 1,28,29
 528 152 528 152 376 147 c 2,30,-1
 291 147 l 2,31,32
 260 147 260 147 165 336 c 1,33,34
 123 480 123 480 60 610 c 1,35,36
 144 1392 144 1392 165 1451 c 1,37,-1
 291 1451 l 1,0,1
EndSplineSet
EndChar

StartChar: V
Encoding: 86 86 57
Width: 1234
Flags: W
LayerCount: 2
Fore
SplineSet
186 1430 m 1,0,1
 249 1325 249 1325 312 1094 c 1,2,-1
 291 1094 l 1,3,4
 291 1048 291 1048 460 378 c 1,5,6
 639 558 639 558 964 1220 c 1,7,8
 964 1304 964 1304 1070 1304 c 2,9,-1
 1154 1304 l 1,10,-1
 1154 1199 l 1,11,12
 1099 1149 1099 1149 691 420 c 0,13,14
 556 126 556 126 397 126 c 2,15,-1
 376 126 l 1,16,17
 249 562 249 562 123 1262 c 1,18,19
 92 1262 92 1262 60 1346 c 1,20,21
 81 1430 81 1430 186 1430 c 1,0,1
EndSplineSet
EndChar

StartChar: W
Encoding: 87 87 58
Width: 1802
Flags: W
LayerCount: 2
Fore
SplineSet
81 1409 m 1,0,-1
 144 1409 l 2,1,2
 239 1409 239 1409 397 399 c 1,3,4
 418 399 418 399 418 357 c 1,5,6
 571 469 571 469 775 736 c 1,7,-1
 838 736 l 1,8,9
 881 724 881 724 1091 420 c 1,10,11
 1128 399 1128 399 1175 399 c 1,12,13
 1353 761 1353 761 1574 1409 c 1,14,15
 1623 1409 1623 1409 1722 1346 c 1,16,17
 1600 1099 1600 1099 1385 442 c 1,18,-1
 1238 189 l 1,19,-1
 1196 168 l 1,20,21
 1091 168 1091 168 796 547 c 1,22,23
 467 126 467 126 354 126 c 0,24,25
 280 126 280 126 102 1262 c 1,26,27
 76 1262 76 1262 60 1346 c 1,28,29
 81 1387 81 1387 81 1409 c 1,0,-1
EndSplineSet
EndChar

StartChar: X
Encoding: 88 88 59
Width: 1360
Flags: W
LayerCount: 2
Fore
SplineSet
1028 1577 m 1,0,-1
 1154 1577 l 1,1,-1
 1154 1535 l 2,2,3
 1154 1469 1154 1469 796 883 c 1,4,5
 796 844 796 844 1028 631 c 1,6,7
 1028 573 1028 573 1259 315 c 1,8,9
 1280 279 1280 279 1280 231 c 2,10,-1
 1280 189 l 1,11,-1
 1133 189 l 1,12,13
 1133 217 1133 217 1028 357 c 1,14,15
 957 533 957 533 712 757 c 1,16,17
 475 520 475 520 270 126 c 1,18,19
 291 85 291 85 291 63 c 1,20,-1
 207 0 l 1,21,22
 60 0 60 0 60 147 c 1,23,24
 91 147 91 147 376 526 c 1,25,26
 376 567 376 567 607 883 c 1,27,28
 607 904 607 904 586 904 c 1,29,-1
 165 1388 l 1,30,-1
 165 1472 l 1,31,32
 188 1472 188 1472 228 1493 c 1,33,34
 268 1493 268 1493 691 988 c 1,35,36
 1028 1485 1028 1485 1028 1577 c 1,0,-1
EndSplineSet
EndChar

StartChar: Y
Encoding: 89 89 60
Width: 1087
Flags: W
LayerCount: 2
Fore
SplineSet
102 1535 m 0,0,1
 207 1535 207 1535 397 1241 c 1,2,-1
 565 1094 l 1,3,-1
 607 1094 l 1,4,5
 607 1131 607 1131 754 1241 c 1,6,7
 756 1273 756 1273 922 1409 c 1,8,-1
 922 1430 l 1,9,-1
 1007 1430 l 1,10,-1
 1007 1325 l 1,11,12
 670 1028 670 1028 670 862 c 0,13,14
 670 799 670 799 649 799 c 1,15,-1
 670 757 l 1,16,-1
 670 736 l 2,17,18
 670 410 670 410 733 315 c 1,19,20
 712 275 712 275 712 252 c 1,21,-1
 565 252 l 1,22,23
 502 568 502 568 502 904 c 2,24,-1
 502 925 l 1,25,26
 70 1412 70 1412 60 1451 c 1,27,28
 76 1535 76 1535 102 1535 c 0,0,1
EndSplineSet
EndChar

StartChar: Z
Encoding: 90 90 61
Width: 1424
Flags: W
LayerCount: 2
Fore
SplineSet
922 1493 m 1,0,1
 963 1472 963 1472 986 1472 c 1,2,-1
 986 1346 l 1,3,4
 523 641 523 641 523 610 c 1,5,-1
 354 357 l 1,6,-1
 354 315 l 1,7,-1
 586 315 l 2,8,9
 753 315 753 315 1028 294 c 1,10,-1
 1070 315 l 1,11,-1
 1112 294 l 1,12,13
 1152 294 1152 294 1259 336 c 1,14,15
 1296 315 1296 315 1343 315 c 1,16,-1
 1343 231 l 2,17,18
 1343 198 1343 198 1259 147 c 1,19,20
 1237 147 1237 147 1196 168 c 1,21,22
 1112 147 1112 147 1049 147 c 1,23,-1
 1007 168 l 1,24,25
 986 168 986 168 986 147 c 1,26,-1
 775 168 l 1,27,-1
 565 168 l 1,28,-1
 354 147 l 1,29,-1
 354 168 l 1,30,-1
 312 147 l 1,31,-1
 165 147 l 1,32,33
 165 184 165 184 123 252 c 1,34,35
 123 303 123 303 312 526 c 1,36,-1
 544 946 l 1,37,38
 624 987 624 987 775 1325 c 1,39,40
 528 1304 528 1304 418 1304 c 2,41,-1
 123 1304 l 2,42,43
 93 1304 93 1304 60 1367 c 1,44,-1
 60 1451 l 1,45,46
 102 1451 102 1451 102 1472 c 1,47,48
 319 1446 319 1446 354 1430 c 1,49,50
 438 1451 438 1451 502 1451 c 1,51,-1
 544 1430 l 1,52,53
 579 1451 579 1451 922 1493 c 1,0,1
EndSplineSet
EndChar

StartChar: bracketleft
Encoding: 91 91 62
Width: 1002
Flags: W
LayerCount: 2
Fore
SplineSet
859 1556 m 2,0,-1
 880 1556 l 1,1,2
 922 1550 922 1550 922 1514 c 2,3,-1
 922 1430 l 1,4,5
 900 1430 900 1430 859 1409 c 1,6,7
 823 1430 823 1430 775 1430 c 1,8,9
 439 1333 439 1333 439 1283 c 1,10,11
 291 720 291 720 249 315 c 1,12,-1
 354 315 l 2,13,14
 402 315 402 315 439 294 c 1,15,-1
 586 336 l 1,16,17
 623 315 623 315 670 315 c 1,18,-1
 817 336 l 1,19,-1
 859 273 l 1,20,-1
 859 168 l 1,21,22
 823 168 823 168 754 126 c 1,23,24
 586 168 586 168 586 189 c 1,25,26
 523 168 523 168 523 147 c 1,27,-1
 376 168 l 1,28,-1
 354 168 l 2,29,30
 330 168 330 168 123 126 c 1,31,-1
 102 126 l 2,32,33
 60 126 60 126 60 168 c 2,34,-1
 60 189 l 1,35,36
 144 672 144 672 291 1304 c 1,37,-1
 270 1346 l 1,38,39
 270 1493 270 1493 523 1493 c 1,40,41
 753 1556 753 1556 859 1556 c 2,0,-1
EndSplineSet
EndChar

StartChar: backslash
Encoding: 92 92 63
Width: 1087
Flags: W
LayerCount: 2
Fore
SplineSet
102 1472 m 1,0,-1
 186 1472 l 1,1,2
 512 1115 512 1115 544 1115 c 1,3,4
 544 1063 544 1063 880 715 c 0,5,6
 1007 597 1007 597 1007 505 c 1,7,-1
 943 463 l 1,8,9
 867 463 867 463 649 778 c 0,10,11
 342 1148 342 1148 123 1304 c 1,12,13
 60 1397 60 1397 60 1451 c 1,14,-1
 102 1472 l 1,0,-1
EndSplineSet
EndChar

StartChar: bracketright
Encoding: 93 93 64
Width: 940
Flags: W
LayerCount: 2
Fore
SplineSet
249 1662 m 1,0,1
 859 1616 859 1616 859 1535 c 2,2,-1
 859 1430 l 1,3,-1
 691 484 l 1,4,-1
 712 442 l 1,5,6
 691 405 691 405 691 357 c 0,7,8
 691 310 691 310 712 273 c 1,9,10
 685 168 685 168 649 168 c 2,11,-1
 502 168 l 2,12,13
 481 168 481 168 481 189 c 1,14,15
 249 105 249 105 186 63 c 1,16,-1
 102 63 l 2,17,18
 60 63 60 63 60 105 c 2,19,-1
 60 252 l 1,20,21
 93 252 93 252 144 294 c 1,22,-1
 165 294 l 1,23,-1
 165 252 l 1,24,25
 205 252 205 252 502 357 c 1,26,27
 502 336 502 336 523 336 c 1,28,29
 523 517 523 517 691 1283 c 1,30,-1
 691 1430 l 1,31,32
 514 1493 514 1493 249 1535 c 1,33,-1
 249 1662 l 1,0,1
EndSplineSet
EndChar

StartChar: asciicircum
Encoding: 94 94 65
Width: 8990
Flags: W
LayerCount: 2
Fore
SplineSet
1039 1957 m 2,0,-1
 1076 1957 l 2,1,2
 1136 1957 1136 1957 1150 1754 c 1,3,4
 1021 1039 1021 1039 651 -57 c 1,5,6
 629 -261 629 -261 540 -444 c 1,7,-1
 448 -463 l 1,8,-1
 429 -426 l 1,9,10
 429 -312 429 -312 670 350 c 1,11,12
 411 54 411 54 189 54 c 1,13,14
 60 110 60 110 60 239 c 0,15,16
 60 259 60 259 78 294 c 1,17,-1
 60 331 l 1,18,19
 175 755 175 755 781 1625 c 0,20,21
 1008 1954 1008 1954 1039 1957 c 2,0,-1
5436 1828 m 1,22,-1
 5528 1828 l 1,23,24
 5658 1728 5658 1728 5658 1625 c 2,25,-1
 5658 1551 l 2,26,27
 5658 1261 5658 1261 5399 1033 c 1,28,29
 5806 1033 5806 1033 5806 756 c 2,30,-1
 5806 738 l 2,31,32
 5806 645 5806 645 5639 461 c 1,33,34
 5321 239 5321 239 4974 239 c 1,35,-1
 4937 258 l 1,36,37
 4902 239 4902 239 4882 239 c 1,38,-1
 4845 294 l 1,39,-1
 4808 276 l 1,40,41
 4753 289 4753 289 4734 350 c 1,42,43
 4956 1146 4956 1146 4956 1163 c 0,44,45
 4956 1181 4956 1181 4937 1181 c 1,46,47
 4937 1348 4937 1348 5011 1348 c 1,48,-1
 5085 1311 l 1,49,50
 5346 1802 5346 1802 5436 1828 c 1,22,-1
984 1754 m 1,51,52
 511 1074 511 1074 263 590 c 0,53,54
 175 421 175 421 171 239 c 1,55,56
 189 203 189 203 189 184 c 1,57,-1
 226 184 l 2,58,59
 369 184 369 184 688 535 c 1,60,61
 772 535 772 535 854 960 c 0,62,63
 1021 1535 1021 1535 1021 1754 c 1,64,-1
 984 1754 l 1,51,52
5067 978 m 1,65,-1
 5085 978 l 1,66,67
 5547 1204 5547 1204 5547 1588 c 0,68,69
 5547 1687 5547 1687 5473 1717 c 1,70,71
 5174 1362 5174 1362 5067 978 c 1,65,-1
7542 1477 m 2,72,-1
 7579 1477 l 1,73,74
 7653 1452 7653 1452 7653 1311 c 0,75,76
 7653 1292 7653 1292 7635 1292 c 1,77,-1
 7653 1181 l 1,78,-1
 7635 1052 l 1,79,-1
 7653 1015 l 1,80,81
 7616 800 7616 800 7468 479 c 1,82,-1
 7524 331 l 1,83,-1
 7561 331 l 1,84,85
 7777 471 7777 471 7875 738 c 0,86,87
 7935 923 7935 923 7967 923 c 2,88,-1
 7986 923 l 2,89,90
 8013 923 8013 923 8041 849 c 1,91,92
 7949 566 7949 566 7949 442 c 1,93,-1
 7986 442 l 1,94,95
 7986 475 7986 475 8115 793 c 1,96,97
 8151 812 8151 812 8170 812 c 1,98,99
 8207 758 8207 758 8244 535 c 1,100,-1
 8226 498 l 1,101,102
 8249 405 8249 405 8281 405 c 2,103,-1
 8318 405 l 2,104,105
 8395 405 8395 405 8577 775 c 1,106,107
 8661 849 8661 849 8743 849 c 1,108,109
 8909 795 8909 795 8909 609 c 2,110,-1
 8909 498 l 1,111,112
 8822 282 8822 282 8503 147 c 1,113,114
 8447 147 8447 147 8374 128 c 1,115,-1
 8115 202 l 1,116,-1
 8115 313 l 1,117,-1
 8133 313 l 1,118,-1
 8244 258 l 1,119,-1
 8244 294 l 1,120,121
 8160 294 8160 294 8133 424 c 1,122,-1
 8096 442 l 1,123,-1
 8078 442 l 1,124,125
 8035 239 8035 239 7912 239 c 1,126,127
 7823 424 7823 424 7801 424 c 1,128,129
 7662 184 7662 184 7542 184 c 0,130,131
 7413 184 7413 184 7394 368 c 1,132,-1
 7376 368 l 1,133,134
 7210 245 7210 245 7210 221 c 1,135,-1
 7099 202 l 1,136,-1
 7006 202 l 2,137,138
 6951 202 6951 202 6951 331 c 1,139,-1
 6896 331 l 1,140,141
 6758 221 6758 221 6655 221 c 0,142,143
 6489 239 6489 239 6489 387 c 1,144,-1
 6360 368 l 1,145,146
 6237 368 6237 368 6231 442 c 1,147,148
 6188 442 6188 442 5972 313 c 1,149,150
 5888 313 5888 313 5824 424 c 1,151,-1
 5824 442 l 2,152,153
 5824 637 5824 637 6027 849 c 0,154,155
 6067 904 6067 904 6120 904 c 1,156,157
 6231 867 6231 867 6231 775 c 1,158,-1
 6323 775 l 1,159,160
 6360 769 6360 769 6360 738 c 2,161,-1
 6360 682 l 1,162,163
 6304 597 6304 597 6304 535 c 1,164,-1
 6360 498 l 1,165,-1
 6378 498 l 2,166,167
 6495 498 6495 498 6526 609 c 1,168,-1
 6508 646 l 1,169,170
 6545 701 6545 701 6655 1255 c 1,171,172
 6669 1255 6669 1255 6748 1440 c 1,173,-1
 6840 1440 l 2,174,175
 6922 1440 6922 1440 6988 1126 c 1,176,177
 6988 665 6988 665 6618 479 c 1,178,-1
 6618 368 l 1,179,-1
 6637 331 l 1,180,181
 6850 364 6850 364 7191 793 c 1,182,-1
 7247 830 l 1,183,-1
 7302 830 l 2,184,185
 7357 830 7357 830 7357 756 c 1,186,-1
 7376 756 l 1,187,188
 7446 1477 7446 1477 7542 1477 c 2,72,-1
6618 627 m 1,189,190
 6896 803 6896 803 6896 1163 c 1,191,192
 6859 1301 6859 1301 6859 1311 c 1,193,-1
 6840 1311 l 2,194,195
 6769 1311 6769 1311 6618 627 c 1,189,190
7561 1255 m 1,196,197
 7561 1181 7561 1181 7524 1181 c 1,198,199
 7524 1163 7524 1163 7542 1163 c 1,200,201
 7487 919 7487 919 7487 830 c 2,202,-1
 7487 793 l 1,203,-1
 7505 793 l 1,204,205
 7579 1002 7579 1002 7579 1237 c 2,206,-1
 7579 1255 l 1,207,-1
 7561 1255 l 1,196,197
5067 849 m 1,208,-1
 5067 867 l 1,209,210
 4988 867 4988 867 4882 405 c 1,211,-1
 4919 387 l 1,212,-1
 4919 424 l 1,213,-1
 4993 424 l 1,214,-1
 4993 368 l 1,215,-1
 5104 368 l 2,216,217
 5326 368 5326 368 5584 590 c 0,218,219
 5676 662 5676 662 5676 756 c 2,220,-1
 5676 812 l 2,221,222
 5676 833 5676 833 5473 923 c 1,223,224
 5350 886 5350 886 5067 849 c 1,208,-1
1205 812 m 1,225,-1
 1261 812 l 2,226,227
 1287 812 1287 812 1316 756 c 1,228,-1
 1316 664 l 1,229,-1
 1353 664 l 1,230,-1
 1372 738 l 1,231,-1
 1409 738 l 2,232,233
 1435 738 1435 738 1464 682 c 1,234,235
 1464 647 1464 647 1390 461 c 1,236,237
 1390 368 1390 368 1427 368 c 1,238,239
 1600 456 1600 456 1686 535 c 1,240,241
 1806 719 1806 719 1834 719 c 2,242,-1
 1871 719 l 2,243,244
 1989 719 1989 719 2018 553 c 1,245,-1
 2018 498 l 1,246,-1
 2055 498 l 2,247,248
 2092 498 2092 498 2222 682 c 1,249,250
 2252 701 2252 701 2314 701 c 0,251,252
 2397 701 2397 701 2554 682 c 1,253,-1
 2665 701 l 1,254,255
 2831 701 2831 701 2831 498 c 1,256,-1
 2850 498 l 1,257,258
 3099 701 3099 701 3201 701 c 0,259,260
 3297 701 3297 701 3385 424 c 1,261,262
 3526 320 3526 320 3570 294 c 1,263,-1
 3607 294 l 1,264,-1
 3663 331 l 1,265,-1
 3699 331 l 1,266,-1
 3718 239 l 1,267,268
 3718 195 3718 195 3570 184 c 0,269,270
 3378 184 3378 184 3219 498 c 1,271,272
 3193 498 3193 498 3164 553 c 1,273,274
 3034 516 3034 516 2757 202 c 1,275,276
 2757 110 2757 110 2702 110 c 2,277,-1
 2646 110 l 2,278,279
 2609 110 2609 110 2609 147 c 2,280,-1
 2609 165 l 1,281,282
 2642 387 2642 387 2683 387 c 1,283,284
 2683 405 2683 405 2665 405 c 1,285,-1
 2683 498 l 1,286,-1
 2683 516 l 2,287,288
 2683 553 2683 553 2646 553 c 2,289,-1
 2628 553 l 2,290,291
 2518 553 2518 553 2480 442 c 1,292,-1
 2499 405 l 1,293,294
 2411 165 2411 165 2203 165 c 0,295,296
 2144 166 2144 166 2055 350 c 1,297,298
 1890 309 1890 309 1704 221 c 0,299,300
 1674 202 1674 202 1612 202 c 2,301,-1
 1593 202 l 2,302,303
 1581 202 1581 202 1538 258 c 1,304,305
 1477 221 1477 221 1427 221 c 0,306,307
 1360 221 1360 221 1279 294 c 1,308,309
 1128 73 1128 73 1002 73 c 0,310,311
 963 73 963 73 891 165 c 1,312,313
 1002 634 1002 634 1205 812 c 1,225,-1
6064 738 m 1,314,315
 5953 539 5953 539 5953 461 c 1,316,-1
 5972 461 l 1,317,318
 6102 516 6102 516 6175 646 c 1,319,320
 6101 664 6101 664 6101 738 c 1,321,-1
 6064 738 l 1,314,315
8688 738 m 1,322,323
 8666 679 8666 679 8521 461 c 1,324,325
 8449 276 8449 276 8300 276 c 2,326,-1
 8263 276 l 1,327,-1
 8263 258 l 1,328,-1
 8337 258 l 2,329,330
 8632 258 8632 258 8798 553 c 1,331,-1
 8798 627 l 1,332,333
 8734 738 8734 738 8706 738 c 2,334,-1
 8688 738 l 1,322,323
7062 331 m 1,335,-1
 7099 331 l 1,336,337
 7259 413 7259 413 7376 553 c 1,338,339
 7357 627 7357 627 7265 627 c 2,340,-1
 7247 627 l 2,341,342
 7163 627 7163 627 7062 331 c 1,335,-1
1649 368 m 1,343,-1
 1649 331 l 1,344,345
 1790 385 1790 385 1889 516 c 1,346,-1
 1889 553 l 1,347,-1
 1871 553 l 2,348,349
 1837 553 1837 553 1741 424 c 1,350,351
 1681 368 1681 368 1649 368 c 1,343,-1
1039 294 m 1,352,-1
 1039 221 l 1,353,354
 1215 359 1215 359 1242 424 c 1,355,356
 1168 424 1168 424 1168 535 c 1,357,358
 1137 535 1137 535 1039 294 c 1,352,-1
2258 498 m 1,359,-1
 2222 368 l 1,360,-1
 2222 331 l 1,361,362
 2258 331 2258 331 2258 313 c 1,363,364
 2332 313 2332 313 2369 461 c 1,365,366
 2309 498 2309 498 2258 498 c 1,359,-1
EndSplineSet
EndChar

StartChar: underscore
Encoding: 95 95 66
Width: 1339
Flags: W
LayerCount: 2
Fore
SplineSet
102 189 m 2,0,-1
 986 105 l 1,1,2
 1055 147 1055 147 1112 147 c 2,3,-1
 1154 147 l 2,4,5
 1182 147 1182 147 1259 42 c 1,6,-1
 1259 -42 l 1,7,8
 1195 -42 1195 -42 1112 -63 c 1,9,10
 682 0 682 0 397 0 c 2,11,-1
 186 0 l 2,12,13
 77 0 77 0 60 63 c 1,14,-1
 60 147 l 1,15,16
 67 189 67 189 102 189 c 2,0,-1
EndSplineSet
EndChar

StartChar: a
Encoding: 97 97 67
Width: 1213
Flags: W
LayerCount: 2
Fore
SplineSet
628 988 m 1,0,-1
 649 988 l 1,1,2
 712 967 712 967 712 862 c 2,3,-1
 712 799 l 1,4,5
 838 799 838 799 838 420 c 1,6,7
 898 306 898 306 964 294 c 1,8,9
 1005 294 1005 294 1112 336 c 1,10,11
 1112 315 1112 315 1133 315 c 1,12,13
 1106 168 1106 168 943 168 c 2,14,-1
 880 168 l 2,15,16
 796 168 796 168 691 420 c 1,17,-1
 670 420 l 1,18,19
 397 147 397 147 207 147 c 0,20,21
 94 147 94 147 60 231 c 1,22,-1
 60 336 l 2,23,24
 83 528 83 528 481 925 c 1,25,26
 564 946 564 946 628 988 c 1,0,-1
186 294 m 1,27,-1
 312 294 l 1,28,29
 670 534 670 534 670 715 c 1,30,31
 565 736 565 736 565 799 c 1,32,-1
 544 799 l 1,33,34
 186 428 186 428 186 294 c 1,27,-1
EndSplineSet
EndChar

StartChar: b
Encoding: 98 98 68
Width: 981
Flags: W
LayerCount: 2
Fore
SplineSet
333 1683 m 2,0,-1
 376 1683 l 1,1,2
 460 1641 460 1641 460 1556 c 1,3,-1
 439 1556 l 1,4,5
 439 1535 439 1535 460 1535 c 1,6,7
 333 856 333 856 333 841 c 1,8,-1
 544 1009 l 1,9,-1
 628 1009 l 2,10,11
 901 1009 901 1009 901 631 c 1,12,13
 762 296 762 296 586 231 c 1,14,15
 586 206 586 206 418 147 c 1,16,-1
 376 168 l 1,17,18
 339 147 339 147 291 147 c 1,19,20
 207 210 207 210 207 252 c 1,21,-1
 144 210 l 1,22,23
 101 219 101 219 60 315 c 1,24,25
 123 397 123 397 312 1472 c 1,26,-1
 312 1493 l 1,27,28
 291 1534 291 1534 291 1556 c 1,29,-1
 312 1556 l 1,30,-1
 291 1598 l 1,31,-1
 291 1641 l 1,32,33
 298 1683 298 1683 333 1683 c 2,0,-1
228 315 m 1,34,-1
 333 294 l 1,35,-1
 418 294 l 1,36,37
 754 464 754 464 754 736 c 2,38,-1
 754 757 l 1,39,40
 712 862 712 862 607 862 c 2,41,-1
 565 862 l 1,42,43
 291 603 291 603 228 315 c 1,34,-1
EndSplineSet
EndChar

StartChar: c
Encoding: 99 99 69
Width: 1087
Flags: W
LayerCount: 2
Fore
SplineSet
586 946 m 0,0,1
 701 946 701 946 754 820 c 1,2,-1
 754 778 l 2,3,4
 754 745 754 745 670 694 c 1,5,-1
 649 694 l 2,6,7
 607 694 607 694 586 820 c 1,8,9
 373 746 373 746 228 399 c 1,10,-1
 207 294 l 1,11,12
 249 208 249 208 249 168 c 1,13,-1
 312 168 l 2,14,15
 516 168 516 168 964 357 c 1,16,-1
 986 357 l 1,17,-1
 1007 315 l 1,18,-1
 1007 294 l 1,19,20
 966 218 966 218 733 105 c 1,21,-1
 712 105 l 2,22,23
 691 105 691 105 691 126 c 1,24,25
 460 21 460 21 354 21 c 2,26,-1
 165 21 l 1,27,28
 60 185 60 185 60 315 c 1,29,30
 191 744 191 744 460 904 c 0,31,32
 529 946 529 946 586 946 c 0,0,1
EndSplineSet
EndChar

StartChar: d
Encoding: 100 100 70
Width: 1129
Flags: W
LayerCount: 2
Fore
SplineSet
943 1598 m 1,0,1
 1049 1577 1049 1577 1049 1493 c 1,2,3
 943 1178 943 1178 817 673 c 1,4,-1
 817 484 l 1,5,-1
 838 231 l 1,6,-1
 796 210 l 1,7,-1
 754 210 l 1,8,-1
 670 273 l 1,9,-1
 649 273 l 1,10,11
 452 84 452 84 270 84 c 0,12,13
 172 84 172 84 60 294 c 1,14,15
 126 535 126 535 376 799 c 0,16,17
 558 967 558 967 775 967 c 1,18,19
 817 1201 817 1201 943 1598 c 1,0,1
249 252 m 1,20,21
 286 231 286 231 333 231 c 2,22,-1
 354 231 l 2,23,24
 370 231 370 231 670 420 c 1,25,-1
 670 442 l 2,26,27
 670 557 670 557 691 736 c 1,28,-1
 649 820 l 1,29,30
 228 586 228 586 228 252 c 1,31,-1
 249 252 l 1,20,21
EndSplineSet
EndChar

StartChar: e
Encoding: 101 101 71
Width: 792
Flags: W
LayerCount: 2
Fore
SplineSet
481 1094 m 1,0,-1
 544 1094 l 2,1,2
 712 1073 712 1073 712 925 c 0,3,4
 712 591 712 591 312 505 c 1,5,-1
 291 505 l 1,6,-1
 249 568 l 1,7,-1
 249 610 l 2,8,9
 249 635 249 635 481 715 c 1,10,11
 586 824 586 824 586 904 c 2,12,-1
 586 967 l 1,13,-1
 565 967 l 2,14,15
 422 967 422 967 249 652 c 2,16,-1
 207 547 l 1,17,-1
 270 357 l 1,18,19
 600 430 600 430 691 505 c 1,20,-1
 712 505 l 1,21,-1
 712 442 l 1,22,23
 554 231 554 231 228 231 c 1,24,25
 106 322 106 322 60 399 c 1,26,27
 60 838 60 838 481 1094 c 1,0,-1
EndSplineSet
EndChar

StartChar: f
Encoding: 102 102 72
Width: 919
Flags: W
LayerCount: 2
Fore
SplineSet
607 1662 m 1,0,1
 838 1626 838 1626 838 1493 c 1,2,3
 807 1409 807 1409 775 1409 c 0,4,5
 732 1409 732 1409 691 1514 c 1,6,7
 628 1514 628 1514 628 1535 c 1,8,-1
 586 1514 l 1,9,-1
 544 1535 l 1,10,11
 376 1450 376 1450 376 1115 c 0,12,13
 376 1073 376 1073 354 1073 c 1,14,-1
 376 1030 l 1,15,-1
 354 904 l 1,16,-1
 502 904 l 2,17,18
 544 904 544 904 544 946 c 1,19,-1
 649 925 l 1,20,-1
 712 925 l 1,21,-1
 712 883 l 2,22,23
 712 828 712 828 354 757 c 1,24,-1
 228 63 l 1,25,-1
 165 63 l 1,26,27
 123 176 123 176 123 231 c 0,28,29
 186 681 186 681 228 736 c 1,30,31
 207 736 207 736 207 757 c 1,32,33
 166 736 166 736 144 736 c 1,34,35
 60 768 60 768 60 799 c 2,36,-1
 60 820 l 2,37,38
 60 873 60 873 144 883 c 1,39,40
 185 862 185 862 207 862 c 1,41,-1
 228 904 l 1,42,-1
 228 1094 l 2,43,44
 228 1115 228 1115 249 1115 c 1,45,46
 249 1136 249 1136 228 1136 c 1,47,48
 281 1577 281 1577 418 1577 c 1,49,50
 418 1610 418 1610 607 1662 c 1,0,1
EndSplineSet
EndChar

StartChar: g
Encoding: 103 103 73
Width: 1002
Flags: W
LayerCount: 2
Fore
SplineSet
649 967 m 1,0,-1
 817 967 l 2,1,2
 844 967 844 967 922 841 c 1,3,-1
 922 673 l 2,4,5
 922 652 922 652 901 652 c 1,6,-1
 922 610 l 1,7,8
 922 589 922 589 901 589 c 1,9,-1
 922 442 l 1,10,-1
 922 252 l 2,11,12
 922 231 922 231 901 231 c 1,13,14
 901 210 901 210 922 210 c 1,15,16
 810 -421 810 -421 670 -421 c 1,17,18
 670 -463 670 -463 397 -463 c 0,19,20
 93 -463 93 -463 60 -253 c 1,21,-1
 60 -190 l 1,22,-1
 123 -190 l 1,23,24
 201 -309 201 -309 354 -316 c 1,25,26
 354 -337 354 -337 376 -337 c 0,27,28
 691 -316 691 -316 691 -147 c 1,29,30
 775 114 775 114 775 399 c 1,31,-1
 733 399 l 1,32,33
 726 311 726 311 460 210 c 1,34,-1
 439 210 l 1,35,36
 291 268 291 268 291 463 c 1,37,38
 390 792 390 792 649 967 c 1,0,-1
439 463 m 1,39,-1
 481 378 l 1,40,41
 593 407 593 407 712 568 c 1,42,-1
 733 568 l 1,43,-1
 733 820 l 1,44,45
 581 820 581 820 439 463 c 1,39,-1
EndSplineSet
EndChar

StartChar: h
Encoding: 104 104 74
Width: 1171
Flags: W
LayerCount: 2
Fore
SplineSet
312 1598 m 1,0,-1
 354 1598 l 2,1,2
 385 1598 385 1598 418 1535 c 1,3,4
 354 808 354 808 291 715 c 1,5,-1
 312 715 l 1,6,-1
 565 883 l 1,7,-1
 712 883 l 1,8,9
 775 862 775 862 775 757 c 0,10,11
 754 492 754 492 754 442 c 1,12,13
 886 315 886 315 922 315 c 1,14,-1
 922 336 l 1,15,-1
 964 315 l 1,16,-1
 1091 336 l 1,17,-1
 1091 252 l 1,18,19
 1014 189 1014 189 943 189 c 2,20,-1
 880 189 l 2,21,22
 719 189 719 189 628 357 c 1,23,-1
 628 505 l 1,24,-1
 607 631 l 1,25,26
 628 668 628 668 628 715 c 1,27,-1
 607 715 l 2,28,29
 401 715 401 715 249 273 c 0,30,31
 220 126 220 126 165 126 c 2,32,-1
 144 126 l 2,33,34
 111 126 111 126 60 210 c 1,35,36
 123 429 123 429 291 1409 c 1,37,-1
 270 1451 l 1,38,-1
 291 1493 l 1,39,40
 270 1530 270 1530 270 1577 c 1,41,-1
 312 1598 l 1,0,-1
EndSplineSet
EndChar

StartChar: i
Encoding: 105 105 75
Width: 560
Flags: W
LayerCount: 2
Fore
SplineSet
354 1367 m 1,0,1
 423 1325 423 1325 460 1325 c 1,2,-1
 460 1241 l 1,3,4
 427 1241 427 1241 376 1199 c 1,5,6
 291 1230 291 1230 291 1262 c 2,7,-1
 291 1325 l 2,8,9
 291 1367 291 1367 354 1367 c 1,0,1
291 1009 m 2,10,11
 348 1002 348 1002 376 904 c 1,12,13
 207 607 207 607 207 484 c 2,14,-1
 207 463 l 1,15,16
 228 399 228 399 333 399 c 2,17,-1
 481 420 l 1,18,-1
 481 336 l 2,19,20
 481 289 481 289 270 252 c 1,21,22
 60 315 60 315 60 463 c 0,23,24
 60 625 60 625 270 1009 c 1,25,-1
 291 1009 l 2,10,11
EndSplineSet
EndChar

StartChar: j
Encoding: 106 106 76
Width: 1149
Flags: W
LayerCount: 2
Fore
SplineSet
964 1304 m 1,0,1
 1070 1277 1070 1277 1070 1241 c 2,2,-1
 1070 1220 l 1,3,-1
 1049 1115 l 1,4,-1
 1028 1115 l 1,5,6
 901 1188 901 1188 901 1220 c 2,7,-1
 901 1241 l 2,8,9
 901 1271 901 1271 964 1304 c 1,0,1
880 841 m 2,10,-1
 943 841 l 2,11,12
 986 835 986 835 986 799 c 0,13,14
 964 410 964 410 964 231 c 1,15,-1
 943 231 l 1,16,17
 943 210 943 210 964 210 c 1,18,19
 847 -358 847 -358 712 -358 c 1,20,21
 712 -379 712 -379 481 -442 c 1,22,23
 81 -377 81 -377 81 -253 c 1,24,25
 60 -253 60 -253 60 -232 c 2,26,-1
 60 -105 l 1,27,28
 102 -54 102 -54 102 -21 c 1,29,-1
 165 -21 l 1,30,-1
 165 -168 l 1,31,32
 241 -295 241 -295 418 -295 c 2,33,-1
 481 -295 l 2,34,35
 779 -295 779 -295 838 315 c 0,36,37
 838 336 838 336 817 336 c 1,38,-1
 838 442 l 1,39,-1
 838 610 l 2,40,41
 838 631 838 631 859 631 c 1,42,-1
 838 673 l 1,43,-1
 838 694 l 2,44,45
 838 715 838 715 859 715 c 1,46,-1
 838 757 l 1,47,-1
 838 799 l 1,48,49
 845 841 845 841 880 841 c 2,10,-1
EndSplineSet
EndChar

StartChar: k
Encoding: 107 107 77
Width: 1318
Flags: W
LayerCount: 2
Fore
SplineSet
397 1451 m 2,0,-1
 481 1451 l 1,1,2
 481 1136 481 1136 439 1136 c 1,3,-1
 460 1094 l 1,4,-1
 418 988 l 1,5,-1
 439 988 l 1,6,7
 643 1157 643 1157 733 1157 c 0,8,9
 838 1157 838 1157 838 1030 c 2,10,-1
 838 925 l 1,11,12
 811 851 811 851 565 652 c 1,13,14
 619 463 619 463 712 442 c 1,15,16
 906 273 906 273 1070 273 c 1,17,18
 1156 315 1156 315 1196 315 c 1,19,-1
 1238 231 l 1,20,21
 1133 225 1133 225 1133 147 c 1,22,-1
 1112 147 l 2,23,24
 647 147 647 147 418 589 c 1,25,-1
 397 589 l 2,26,27
 317 589 317 589 249 147 c 1,28,29
 184 21 184 21 144 21 c 1,30,31
 60 52 60 52 60 84 c 1,32,33
 170 332 170 332 312 1115 c 1,34,-1
 333 1115 l 1,35,-1
 312 1157 l 1,36,37
 327 1451 327 1451 397 1451 c 2,0,-1
376 778 m 1,38,-1
 376 715 l 1,39,40
 566 787 566 787 712 988 c 1,41,-1
 712 1009 l 1,42,-1
 691 1009 l 1,43,44
 559 924 559 924 418 778 c 1,45,-1
 376 778 l 1,38,-1
EndSplineSet
EndChar

StartChar: l
Encoding: 108 108 78
Width: 498
Flags: W
LayerCount: 2
Fore
SplineSet
354 1409 m 2,0,-1
 376 1409 l 1,1,2
 418 1403 418 1403 418 1367 c 2,3,-1
 418 1178 l 1,4,5
 228 723 228 723 228 526 c 2,6,-1
 228 420 l 1,7,-1
 249 168 l 1,8,-1
 186 126 l 1,9,-1
 144 126 l 1,10,11
 60 268 60 268 60 336 c 0,12,13
 60 575 60 575 270 1262 c 1,14,15
 286 1409 286 1409 354 1409 c 2,0,-1
EndSplineSet
EndChar

StartChar: m
Encoding: 109 109 79
Width: 1339
Flags: W
LayerCount: 2
Fore
SplineSet
502 946 m 1,0,1
 665 946 665 946 733 694 c 1,2,-1
 754 694 l 1,3,4
 754 791 754 791 1007 946 c 1,5,6
 1238 946 1238 946 1238 463 c 1,7,8
 1259 463 1259 463 1259 442 c 1,9,-1
 1238 336 l 1,10,-1
 1175 336 l 2,11,12
 1061 336 1061 336 1049 715 c 1,13,-1
 986 778 l 1,14,-1
 964 778 l 1,15,16
 964 749 964 749 670 315 c 1,17,-1
 628 315 l 2,18,19
 599 315 599 315 565 442 c 1,20,-1
 586 547 l 1,21,22
 586 778 586 778 523 778 c 2,23,-1
 502 778 l 1,24,25
 285 485 285 485 186 273 c 1,26,27
 186 231 186 231 102 231 c 1,28,-1
 60 294 l 1,29,-1
 60 357 l 1,30,31
 123 647 123 647 123 778 c 1,32,33
 102 819 102 819 102 841 c 1,34,-1
 123 841 l 1,35,-1
 102 883 l 1,36,37
 109 925 109 925 144 925 c 2,38,-1
 186 925 l 2,39,40
 249 925 249 925 249 694 c 1,41,42
 270 694 270 694 502 946 c 1,0,1
EndSplineSet
EndChar

StartChar: n
Encoding: 110 110 80
Width: 1065
Flags: W
LayerCount: 2
Fore
SplineSet
649 946 m 1,0,1
 740 820 740 820 901 336 c 1,2,3
 986 320 986 320 986 294 c 1,4,5
 964 254 964 254 964 231 c 1,6,-1
 859 231 l 2,7,8
 759 231 759 231 586 757 c 1,9,-1
 565 757 l 1,10,11
 319 545 319 545 207 252 c 1,12,-1
 165 231 l 1,13,-1
 123 231 l 1,14,-1
 60 273 l 1,15,-1
 186 883 l 1,16,-1
 249 883 l 2,17,18
 291 883 291 883 291 694 c 1,19,20
 317 694 317 694 481 883 c 1,21,22
 531 917 531 917 649 946 c 1,0,1
EndSplineSet
EndChar

StartChar: o
Encoding: 111 111 81
Width: 834
Flags: W
LayerCount: 2
Fore
SplineSet
544 1030 m 1,0,1
 754 894 754 894 754 841 c 1,2,3
 651 210 651 210 249 210 c 1,4,5
 60 279 60 279 60 463 c 2,6,-1
 60 547 l 2,7,8
 60 764 60 764 502 1030 c 1,9,-1
 544 1030 l 1,0,1
481 862 m 1,10,11
 387 837 387 837 333 736 c 2,12,13
 228 657 228 657 186 484 c 1,14,15
 229 357 229 357 270 357 c 2,16,-1
 354 357 l 1,17,18
 466 429 466 429 607 694 c 1,19,-1
 607 778 l 1,20,21
 586 862 586 862 481 862 c 1,10,11
EndSplineSet
EndChar

StartChar: p
Encoding: 112 112 82
Width: 1066
Flags: W
LayerCount: 2
Fore
SplineSet
775 1052 m 0,0,1
 943 1052 943 1052 986 820 c 1,2,-1
 986 778 l 1,3,4
 891 564 891 564 733 484 c 1,5,6
 552 336 552 336 460 336 c 1,7,-1
 418 399 l 1,8,-1
 418 484 l 1,9,10
 633 484 633 484 859 841 c 1,11,-1
 859 862 l 1,12,13
 778 925 778 925 733 925 c 0,14,15
 646 925 646 925 354 820 c 1,16,-1
 312 820 l 1,17,-1
 312 925 l 1,18,19
 489 1052 489 1052 775 1052 c 0,0,1
354 799 m 1,20,-1
 460 778 l 1,21,-1
 460 736 l 1,22,23
 270 79 270 79 207 -316 c 1,24,-1
 81 -316 l 1,25,26
 81 -293 81 -293 60 -253 c 1,27,28
 312 799 312 799 354 799 c 1,20,-1
EndSplineSet
EndChar

StartChar: q
Encoding: 113 113 83
Width: 919
Flags: W
LayerCount: 2
Fore
SplineSet
481 1009 m 1,0,-1
 628 1009 l 2,1,2
 680 1009 680 1009 796 820 c 1,3,4
 838 814 838 814 838 778 c 2,5,-1
 838 715 l 1,6,7
 670 428 670 428 523 -211 c 1,8,9
 544 -247 544 -247 544 -295 c 1,10,-1
 691 -295 l 1,11,12
 691 -232 691 -232 817 -232 c 1,13,-1
 817 -253 l 2,14,15
 817 -405 817 -405 691 -442 c 0,16,17
 577 -463 577 -463 502 -463 c 1,18,-1
 397 -337 l 1,19,20
 397 -316 397 -316 418 -316 c 1,21,22
 376 -232 376 -232 376 -168 c 1,23,-1
 502 231 l 1,24,-1
 481 273 l 1,25,-1
 481 294 l 1,26,-1
 523 294 l 1,27,-1
 523 315 l 1,28,-1
 481 315 l 1,29,30
 412 279 412 279 249 231 c 1,31,32
 60 290 60 290 60 420 c 0,33,34
 60 686 60 686 481 1009 c 1,0,-1
523 883 m 1,35,36
 250 678 250 678 186 420 c 1,37,-1
 249 378 l 1,38,-1
 270 378 l 2,39,40
 517 378 517 378 670 736 c 1,41,42
 607 736 607 736 586 862 c 1,43,44
 545 883 545 883 523 883 c 1,35,36
EndSplineSet
EndChar

StartChar: r
Encoding: 114 114 84
Width: 1002
Flags: W
LayerCount: 2
Fore
SplineSet
649 1052 m 0,0,1
 922 1052 922 1052 922 904 c 1,2,3
 901 904 901 904 901 883 c 1,4,-1
 754 904 l 1,5,-1
 691 904 l 2,6,7
 373 904 373 904 207 399 c 1,8,-1
 228 357 l 1,9,10
 207 317 207 317 207 294 c 1,11,-1
 186 294 l 2,12,13
 77 294 77 294 60 357 c 1,14,15
 65 463 65 463 102 463 c 1,16,-1
 81 505 l 1,17,18
 81 580 81 580 102 694 c 1,19,20
 81 729 81 729 81 799 c 1,21,-1
 144 841 l 1,22,-1
 207 841 l 1,23,-1
 207 799 l 1,24,-1
 228 799 l 1,25,26
 425 1028 425 1028 649 1052 c 0,0,1
EndSplineSet
EndChar

StartChar: s
Encoding: 115 115 85
Width: 940
Flags: W
LayerCount: 2
Fore
SplineSet
565 1009 m 2,0,-1
 628 1009 l 1,1,-1
 628 967 l 1,2,-1
 607 862 l 1,3,-1
 586 862 l 2,4,5
 565 862 565 862 565 883 c 1,6,-1
 376 778 l 1,7,8
 376 743 376 743 712 694 c 1,9,10
 859 641 859 641 859 463 c 2,11,-1
 859 442 l 2,12,13
 859 220 859 220 481 147 c 1,14,-1
 186 147 l 1,15,16
 60 215 60 215 60 315 c 1,17,-1
 81 315 l 1,18,19
 270 273 270 273 354 273 c 2,20,-1
 418 273 l 2,21,22
 665 273 665 273 712 463 c 1,23,-1
 712 505 l 2,24,25
 712 563 712 563 249 652 c 1,26,-1
 186 736 l 1,27,-1
 186 757 l 1,28,29
 433 1005 433 1005 565 1009 c 2,0,-1
EndSplineSet
EndChar

StartChar: t
Encoding: 116 116 86
Width: 877
Flags: W
LayerCount: 2
Fore
SplineSet
544 1598 m 1,0,1
 574 1598 574 1598 607 1535 c 1,2,-1
 397 904 l 1,3,-1
 418 904 l 1,4,5
 675 967 675 967 733 967 c 1,6,7
 733 828 733 828 502 799 c 0,8,9
 312 799 312 799 312 673 c 1,10,11
 207 378 207 378 207 294 c 2,12,-1
 207 273 l 1,13,14
 214 231 214 231 249 231 c 2,15,-1
 312 231 l 1,16,-1
 460 273 l 1,17,-1
 460 252 l 1,18,19
 655 357 655 357 775 357 c 1,20,-1
 796 315 l 1,21,22
 586 84 586 84 207 84 c 1,23,24
 60 126 60 126 60 294 c 0,25,26
 60 380 60 380 186 736 c 1,27,28
 165 736 165 736 165 757 c 1,29,-1
 123 736 l 1,30,31
 60 757 60 757 60 862 c 1,32,-1
 165 883 l 1,33,-1
 249 883 l 1,34,35
 397 1283 397 1283 439 1535 c 1,36,-1
 439 1577 l 1,37,-1
 544 1598 l 1,0,1
EndSplineSet
EndChar

StartChar: u
Encoding: 117 117 87
Width: 1045
Flags: W
LayerCount: 2
Fore
SplineSet
207 946 m 1,0,-1
 312 925 l 1,1,-1
 312 904 l 1,2,-1
 186 442 l 1,3,4
 186 315 186 315 312 315 c 2,5,-1
 333 315 l 1,6,7
 607 478 607 478 607 904 c 1,8,-1
 670 946 l 1,9,10
 754 915 754 915 754 883 c 2,11,-1
 754 862 l 2,12,13
 754 841 754 841 733 841 c 1,14,15
 733 820 733 820 754 820 c 1,16,-1
 733 673 l 1,17,-1
 733 547 l 2,18,19
 733 363 733 363 964 294 c 1,20,-1
 964 273 l 1,21,-1
 943 168 l 1,22,-1
 817 168 l 2,23,24
 718 168 718 168 649 336 c 1,25,-1
 607 336 l 1,26,-1
 628 378 l 1,27,-1
 607 378 l 1,28,29
 443 147 443 147 312 147 c 0,30,31
 60 182 60 182 60 357 c 2,32,-1
 60 378 l 2,33,34
 133 946 133 946 207 946 c 1,0,-1
EndSplineSet
EndChar

StartChar: v
Encoding: 118 118 88
Width: 940
Flags: W
LayerCount: 2
Fore
SplineSet
754 1157 m 2,0,-1
 817 1157 l 1,1,2
 859 1150 859 1150 859 1115 c 2,3,-1
 859 1030 l 1,4,5
 760 1030 760 1030 460 294 c 1,6,-1
 397 252 l 1,7,-1
 376 252 l 1,8,9
 328 292 328 292 81 946 c 1,10,11
 60 946 60 946 60 967 c 0,12,13
 60 998 60 998 123 1030 c 1,14,-1
 165 1030 l 2,15,16
 201 1030 201 1030 312 757 c 1,17,18
 338 757 338 757 376 547 c 1,19,-1
 418 547 l 1,20,21
 672 1157 672 1157 754 1157 c 2,0,-1
EndSplineSet
EndChar

StartChar: w
Encoding: 119 119 89
Width: 1276
Flags: W
LayerCount: 2
Fore
SplineSet
1091 1009 m 1,0,-1
 1133 1009 l 1,1,2
 1196 988 1196 988 1196 883 c 2,3,-1
 1196 778 l 2,4,5
 1196 315 1196 315 922 315 c 2,6,-1
 796 315 l 2,7,8
 765 315 765 315 586 505 c 1,9,10
 422 273 422 273 228 273 c 2,11,-1
 186 273 l 1,12,13
 60 372 60 372 60 526 c 2,14,-1
 60 631 l 2,15,16
 60 706 60 706 81 820 c 1,17,-1
 60 862 l 1,18,19
 101 958 101 958 144 967 c 1,20,-1
 228 925 l 1,21,22
 213 610 213 610 186 610 c 1,23,24
 212 467 212 467 249 420 c 1,25,26
 408 458 408 458 586 799 c 1,27,-1
 628 820 l 1,28,29
 691 820 691 820 733 568 c 1,30,31
 786 512 786 512 901 463 c 1,32,33
 1070 520 1070 520 1070 757 c 2,34,-1
 1070 778 l 2,35,36
 1070 796 1070 796 1028 946 c 1,37,38
 1028 977 1028 977 1091 1009 c 1,0,-1
EndSplineSet
EndChar

StartChar: x
Encoding: 120 120 90
Width: 686
Flags: W
LayerCount: 2
Fore
SplineSet
544 1030 m 1,0,-1
 565 1030 l 1,1,2
 607 1024 607 1024 607 988 c 2,3,-1
 607 967 l 1,4,-1
 376 589 l 1,5,6
 413 589 413 589 523 442 c 1,7,8
 565 442 565 442 607 315 c 1,9,10
 552 211 552 211 523 210 c 1,11,12
 333 378 333 378 333 463 c 1,13,-1
 312 463 l 1,14,15
 144 303 144 303 144 273 c 1,16,-1
 102 273 l 1,17,18
 102 306 102 306 60 357 c 1,19,-1
 60 399 l 1,20,-1
 207 589 l 1,21,-1
 207 610 l 1,22,23
 60 772 60 772 60 904 c 1,24,-1
 102 925 l 1,25,-1
 186 925 l 1,26,27
 214 778 214 778 312 715 c 1,28,29
 460 953 460 953 460 967 c 1,30,-1
 544 1030 l 1,0,-1
EndSplineSet
EndChar

StartChar: y
Encoding: 121 121 91
Width: 1023
Flags: W
LayerCount: 2
Fore
SplineSet
859 904 m 1,0,1
 943 873 943 873 943 841 c 2,2,-1
 943 799 l 2,3,4
 943 778 943 778 922 778 c 1,5,-1
 943 736 l 1,6,7
 922 673 922 673 901 673 c 1,8,-1
 922 631 l 1,9,-1
 922 420 l 2,10,11
 922 -243 922 -243 691 -421 c 1,12,-1
 586 -442 l 1,13,-1
 502 -442 l 1,14,15
 60 -331 60 -331 60 -147 c 1,16,17
 81 -107 81 -107 81 -84 c 1,18,-1
 102 -84 l 1,19,20
 349 -289 349 -289 523 -316 c 1,21,22
 775 -316 775 -316 775 273 c 1,23,-1
 754 315 l 1,24,25
 775 352 775 352 775 399 c 1,26,-1
 628 315 l 1,27,28
 376 315 376 315 376 736 c 1,29,-1
 397 736 l 1,30,-1
 376 778 l 1,31,32
 376 808 376 808 439 841 c 1,33,-1
 481 841 l 2,34,35
 529 841 529 841 565 526 c 1,36,37
 586 526 586 526 586 484 c 1,38,-1
 607 484 l 1,39,40
 733 549 733 549 796 778 c 1,41,42
 775 815 775 815 775 862 c 1,43,44
 826 904 826 904 859 904 c 1,0,1
EndSplineSet
EndChar

StartChar: z
Encoding: 122 122 92
Width: 1108
Flags: W
LayerCount: 2
Fore
SplineSet
81 904 m 1,0,1
 291 883 291 883 397 883 c 2,2,-1
 544 883 l 2,3,4
 670 870 670 870 670 820 c 2,5,-1
 670 694 l 1,6,-1
 439 357 l 1,7,8
 445 315 445 315 481 315 c 1,9,-1
 523 336 l 1,10,-1
 649 315 l 1,11,-1
 754 336 l 1,12,-1
 754 315 l 1,13,14
 775 315 775 315 775 336 c 1,15,-1
 859 315 l 1,16,17
 870 315 870 315 943 336 c 1,18,19
 1028 305 1028 305 1028 273 c 0,20,21
 1028 196 1028 196 565 168 c 1,22,-1
 565 189 l 1,23,24
 544 189 544 189 544 168 c 1,25,26
 228 168 228 168 228 315 c 2,27,-1
 228 336 l 1,28,29
 523 699 523 699 523 736 c 1,30,31
 502 736 502 736 502 757 c 1,32,-1
 397 736 l 1,33,-1
 207 736 l 2,34,35
 89 736 89 736 60 841 c 1,36,37
 81 882 81 882 81 904 c 1,0,1
EndSplineSet
EndChar

StartChar: braceleft
Encoding: 123 123 93
Width: 750
Flags: W
LayerCount: 2
Fore
SplineSet
565 1641 m 2,0,-1
 649 1641 l 1,1,2
 649 1593 649 1593 670 1556 c 1,3,4
 670 1498 670 1498 333 1346 c 1,5,6
 333 1310 333 1310 270 1241 c 1,7,8
 406 1241 406 1241 439 1052 c 1,9,-1
 439 946 l 1,10,-1
 333 799 l 1,11,12
 365 799 365 799 397 715 c 1,13,14
 291 420 291 420 291 357 c 1,15,16
 320 357 320 357 397 252 c 1,17,-1
 565 294 l 1,18,19
 606 273 606 273 628 273 c 1,20,21
 628 159 628 159 523 105 c 1,22,-1
 376 105 l 2,23,24
 165 105 165 105 123 505 c 1,25,26
 186 505 186 505 186 547 c 2,27,-1
 186 652 l 1,28,29
 81 652 81 652 60 736 c 1,30,31
 254 972 254 972 291 1009 c 1,32,-1
 291 1052 l 1,33,34
 123 1190 123 1190 123 1262 c 0,35,36
 123 1394 123 1394 544 1619 c 1,37,38
 544 1641 544 1641 565 1641 c 2,0,-1
EndSplineSet
EndChar

StartChar: bar
Encoding: 124 124 94
Width: 434
Flags: W
LayerCount: 2
Fore
SplineSet
228 1956 m 1,0,-1
 354 1956 l 1,1,-1
 354 1935 l 2,2,3
 354 1524 354 1524 291 967 c 0,4,5
 291 946 291 946 312 946 c 1,6,7
 270 611 270 611 270 189 c 1,8,-1
 249 189 l 1,9,10
 249 168 249 168 270 168 c 1,11,-1
 249 63 l 1,12,-1
 249 -84 l 2,13,14
 249 -105 249 -105 228 -105 c 1,15,16
 228 -126 228 -126 249 -126 c 1,17,18
 233 -337 233 -337 186 -337 c 2,19,-1
 123 -337 l 2,20,21
 93 -337 93 -337 60 -274 c 1,22,23
 123 -33 123 -33 186 1451 c 1,24,25
 207 1451 207 1451 207 1472 c 256,26,27
 207 1493 207 1493 186 1493 c 1,28,-1
 207 1598 l 1,29,-1
 207 1788 l 2,30,31
 207 1809 207 1809 228 1809 c 1,32,33
 228 1830 228 1830 207 1830 c 1,34,-1
 228 1956 l 1,0,-1
EndSplineSet
EndChar

StartChar: braceright
Encoding: 125 125 95
Width: 729
Flags: W
LayerCount: 2
Fore
SplineSet
123 1619 m 1,0,-1
 312 1619 l 2,1,2
 473 1619 473 1619 565 1472 c 1,3,-1
 565 1388 l 2,4,5
 565 1334 565 1334 460 1030 c 1,6,7
 607 994 607 994 607 946 c 2,8,-1
 607 883 l 1,9,-1
 523 757 l 1,10,11
 649 484 649 484 649 399 c 2,12,-1
 649 378 l 1,13,14
 551 -63 551 -63 249 -63 c 0,15,16
 186 -63 186 -63 186 63 c 1,17,18
 336 105 336 105 460 273 c 1,19,-1
 481 273 l 1,20,-1
 481 378 l 1,21,-1
 502 484 l 1,22,23
 354 586 354 586 354 715 c 2,24,-1
 354 799 l 2,25,26
 354 820 354 820 376 820 c 1,27,-1
 354 862 l 1,28,-1
 376 904 l 1,29,30
 291 917 291 917 291 1073 c 1,31,32
 397 1310 397 1310 397 1388 c 2,33,-1
 397 1409 l 2,34,35
 397 1451 397 1451 354 1451 c 2,36,-1
 165 1451 l 1,37,-1
 60 1472 l 1,38,-1
 60 1556 l 2,39,40
 60 1587 60 1587 123 1619 c 1,0,-1
EndSplineSet
EndChar

StartChar: asciitilde
Encoding: 126 126 96
Width: 1360
Flags: W
LayerCount: 2
Fore
SplineSet
376 1283 m 1,0,1
 570 1283 570 1283 817 1073 c 1,2,3
 854 1052 854 1052 901 1052 c 2,4,-1
 922 1052 l 1,5,-1
 1196 1220 l 1,6,-1
 1217 1220 l 2,7,8
 1247 1220 1247 1220 1280 1157 c 1,9,10
 1280 1009 1280 1009 859 862 c 1,11,12
 628 946 628 946 628 1009 c 1,13,14
 549 1067 549 1067 418 1115 c 1,15,16
 371 1115 371 1115 165 862 c 1,17,-1
 102 862 l 1,18,19
 102 904 102 904 60 904 c 1,20,-1
 60 925 l 2,21,22
 60 1020 60 1020 376 1283 c 1,0,1
EndSplineSet
EndChar

StartChar: exclamdown
Encoding: 161 161 97
Width: 456
Flags: W
LayerCount: 2
Fore
SplineSet
186 1663 m 1,0,-1
 249 1663 l 1,1,2
 376 1610 376 1610 376 1473 c 1,3,4
 264 1347 264 1347 228 1347 c 0,5,6
 134 1347 134 1347 60 1494 c 1,7,8
 60 1574 60 1574 186 1663 c 1,0,-1
165 1052 m 1,9,-1
 249 1052 l 2,10,11
 282 1052 282 1052 334 968 c 1,12,13
 334 946 334 946 313 905 c 1,14,15
 313 883 313 883 334 842 c 1,16,-1
 291 442 l 1,17,-1
 313 400 l 1,18,19
 291 286 291 286 291 211 c 2,20,-1
 291 169 l 1,21,-1
 313 42 l 1,22,23
 291 -42 291 -42 186 -42 c 2,24,-1
 165 -42 l 1,25,26
 165 0 165 0 123 0 c 1,27,28
 123 21 123 21 144 21 c 1,29,30
 144 42 144 42 123 42 c 1,31,32
 165 269 165 269 165 526 c 2,33,-1
 165 1052 l 1,9,-1
EndSplineSet
EndChar

StartChar: cent
Encoding: 162 162 98
Width: 961
Flags: W
LayerCount: 2
Fore
SplineSet
354 1325 m 1,0,-1
 439 1325 l 1,1,-1
 523 1199 l 1,2,3
 654 1199 654 1199 691 1094 c 1,4,-1
 691 1052 l 1,5,6
 649 967 649 967 565 967 c 1,7,8
 544 1008 544 1008 544 1030 c 1,9,10
 502 1030 502 1030 481 820 c 1,11,12
 502 737 502 737 502 673 c 1,13,-1
 481 568 l 1,14,-1
 691 568 l 1,15,-1
 796 652 l 1,16,-1
 859 652 l 1,17,-1
 880 547 l 1,18,-1
 880 505 l 2,19,20
 880 420 880 420 502 420 c 2,21,-1
 481 420 l 1,22,-1
 481 399 l 1,23,-1
 502 357 l 1,24,25
 502 336 502 336 481 336 c 1,26,-1
 502 231 l 1,27,-1
 502 189 l 1,28,-1
 397 168 l 1,29,30
 344 226 344 226 333 420 c 1,31,32
 189 420 189 420 60 610 c 1,33,-1
 60 652 l 2,34,35
 60 954 60 954 354 1199 c 1,36,-1
 354 1325 l 1,0,-1
207 715 m 1,37,38
 207 666 207 666 270 568 c 1,39,-1
 354 568 l 1,40,-1
 354 589 l 2,41,42
 376 923 376 923 376 988 c 1,43,44
 292 988 292 988 207 715 c 1,37,38
EndSplineSet
EndChar

StartChar: sterling
Encoding: 163 163 99
Width: 1402
Flags: W
LayerCount: 2
Fore
SplineSet
964 1577 m 1,0,-1
 1091 1514 l 1,1,-1
 1196 1514 l 1,2,-1
 1196 1430 l 2,3,4
 1196 1388 1196 1388 1154 1388 c 2,5,-1
 1112 1388 l 1,6,-1
 986 1451 l 1,7,8
 796 1422 796 1422 796 1262 c 2,9,-1
 796 1115 l 2,10,11
 796 1067 796 1067 817 1030 c 1,12,-1
 817 967 l 1,13,14
 931 946 931 946 1007 946 c 0,15,16
 1054 946 1054 946 1091 967 c 1,17,18
 1196 946 1196 946 1196 883 c 1,19,-1
 1175 778 l 1,20,21
 1064 778 1064 778 817 799 c 1,22,23
 838 689 838 689 838 673 c 0,24,25
 838 633 838 633 796 420 c 1,26,-1
 880 420 l 2,27,28
 1322 408 1322 408 1322 315 c 2,29,-1
 1322 252 l 1,30,31
 1243 252 1243 252 1154 189 c 1,32,33
 1063 273 1063 273 817 273 c 2,34,-1
 712 273 l 2,35,36
 355 231 355 231 312 231 c 2,37,-1
 165 231 l 1,38,39
 74 280 74 280 60 336 c 1,40,41
 128 505 128 505 397 505 c 1,42,43
 533 463 533 463 586 463 c 1,44,-1
 712 673 l 1,45,-1
 628 841 l 1,46,47
 640 1052 640 1052 670 1052 c 1,48,-1
 649 1157 l 1,49,-1
 649 1304 l 2,50,51
 649 1508 649 1508 964 1577 c 1,0,-1
EndSplineSet
EndChar

StartChar: currency
Encoding: 164 164 100
Width: 1255
Flags: W
LayerCount: 2
Fore
SplineSet
1154 1388 m 1,0,-1
 1175 1346 l 1,1,-1
 1175 1325 l 1,2,3
 1144 1246 1144 1246 796 967 c 1,4,5
 826 967 826 967 859 904 c 1,6,-1
 859 883 l 2,7,8
 859 761 859 761 775 673 c 1,9,-1
 775 652 l 1,10,11
 943 457 943 457 943 336 c 1,12,-1
 901 315 l 1,13,14
 670 489 670 489 670 568 c 1,15,-1
 649 568 l 1,16,-1
 523 505 l 1,17,18
 407 526 407 526 354 526 c 1,19,20
 165 419 165 419 165 315 c 1,21,-1
 60 336 l 1,22,-1
 60 399 l 2,23,24
 60 490 60 490 249 652 c 1,25,26
 249 772 249 772 333 946 c 1,27,28
 300 946 300 946 207 1115 c 1,29,-1
 207 1136 l 1,30,31
 214 1178 214 1178 249 1178 c 2,32,-1
 312 1178 l 2,33,34
 351 1178 351 1178 439 1030 c 1,35,36
 586 1030 586 1030 586 1157 c 1,37,-1
 649 1157 l 1,38,-1
 712 1115 l 1,39,-1
 733 1115 l 1,40,41
 933 1236 933 1236 986 1346 c 1,42,43
 1120 1388 1120 1388 1154 1388 c 1,0,-1
523 946 m 1,44,45
 523 904 523 904 397 757 c 1,46,-1
 376 715 l 1,47,-1
 439 673 l 1,48,-1
 502 673 l 2,49,50
 600 673 600 673 733 841 c 1,51,52
 733 914 733 914 544 946 c 1,53,-1
 523 946 l 1,44,45
EndSplineSet
EndChar

StartChar: section
Encoding: 167 167 101
Width: 686
Flags: W
LayerCount: 2
Fore
SplineSet
312 1725 m 1,0,1
 586 1619 586 1619 586 1514 c 1,2,-1
 523 1472 l 1,3,-1
 502 1472 l 1,4,-1
 376 1556 l 1,5,-1
 312 1556 l 2,6,7
 262 1556 262 1556 207 1283 c 1,8,9
 228 1104 228 1104 228 1009 c 1,10,-1
 249 1009 l 1,11,-1
 354 1073 l 1,12,13
 607 1052 607 1052 607 883 c 2,14,-1
 607 736 l 2,15,16
 502 -168 502 -168 376 -168 c 1,17,-1
 376 -190 l 1,18,19
 81 -177 81 -177 81 42 c 1,20,21
 102 105 102 105 123 105 c 0,22,23
 191 105 191 105 291 0 c 1,24,25
 333 52 333 52 418 484 c 1,26,-1
 418 568 l 1,27,-1
 354 568 l 1,28,29
 278 505 278 505 207 505 c 0,30,31
 161 505 161 505 81 631 c 1,32,-1
 102 778 l 1,33,34
 102 842 102 842 60 1199 c 0,35,36
 60 1658 60 1658 270 1704 c 1,37,38
 270 1725 270 1725 312 1725 c 1,0,1
228 736 m 1,39,-1
 270 715 l 1,40,41
 397 715 397 715 439 862 c 1,42,-1
 397 883 l 1,43,-1
 376 883 l 1,44,45
 247 817 247 817 228 736 c 1,39,-1
EndSplineSet
EndChar

StartChar: copyright
Encoding: 169 169 102
Width: 1591
Flags: W
LayerCount: 2
Fore
SplineSet
1028 1619 m 2,0,-1
 1112 1619 l 2,1,2
 1347 1619 1347 1619 1490 1325 c 1,3,4
 1490 1241 1490 1241 1511 1241 c 1,5,6
 1511 752 1511 752 1238 315 c 1,7,8
 998 96 998 96 754 42 c 1,9,-1
 628 42 l 1,10,11
 168 214 168 214 60 505 c 1,12,-1
 60 589 l 2,13,14
 60 1179 60 1179 733 1556 c 0,15,16
 895 1619 895 1619 1028 1619 c 2,0,-1
186 631 m 2,17,-1
 186 568 l 2,18,19
 186 312 186 312 691 147 c 1,20,-1
 733 147 l 1,21,22
 794 260 794 260 1049 315 c 1,23,24
 1259 507 1259 507 1385 1052 c 1,25,26
 1385 1421 1385 1421 1175 1472 c 1,27,28
 1007 1486 1007 1486 1007 1514 c 1,29,30
 710 1488 710 1488 291 1009 c 1,31,32
 186 794 186 794 186 631 c 2,17,-1
817 1136 m 1,33,-1
 1028 1115 l 1,34,-1
 1049 1115 l 1,35,-1
 1091 967 l 1,36,37
 1091 937 1091 937 1028 904 c 1,38,39
 994 904 994 904 901 988 c 1,40,-1
 880 988 l 1,41,42
 754 904 754 904 754 820 c 0,43,44
 754 794 754 794 817 652 c 1,45,46
 971 652 971 652 1091 799 c 1,47,-1
 1112 799 l 2,48,49
 1175 799 1175 799 1175 715 c 0,50,51
 1175 595 1175 595 901 526 c 1,52,-1
 796 526 l 1,53,54
 607 639 607 639 607 778 c 0,55,56
 607 965 607 965 817 1115 c 1,57,-1
 817 1136 l 1,33,-1
EndSplineSet
EndChar

StartChar: guillemotleft
Encoding: 171 171 103
Width: 939
Flags: W
LayerCount: 2
Fore
SplineSet
355 1052 m 1,0,1
 395 1031 395 1031 418 1031 c 1,2,3
 287 653 287 653 228 653 c 1,4,5
 228 623 228 623 418 379 c 1,6,7
 418 274 418 274 334 253 c 1,8,9
 234 253 234 253 60 631 c 1,10,11
 332 1051 332 1051 355 1052 c 1,0,1
670 1010 m 1,12,13
 766 969 766 969 775 926 c 1,14,15
 775 846 775 846 628 695 c 1,16,17
 671 606 671 606 860 379 c 1,18,19
 860 346 860 346 775 295 c 1,20,-1
 733 295 l 2,21,22
 693 295 693 295 523 526 c 1,23,24
 460 547 460 547 460 653 c 2,25,-1
 460 695 l 1,26,27
 583 905 583 905 607 905 c 1,28,-1
 586 947 l 1,29,-1
 586 968 l 1,30,31
 619 968 619 968 670 1010 c 1,12,13
EndSplineSet
EndChar

StartChar: registered
Encoding: 174 174 104
Width: 1486
Flags: W
LayerCount: 2
Fore
SplineSet
817 1619 m 1,0,1
 1132 1494 1132 1494 1301 1304 c 1,2,3
 1406 971 1406 971 1406 673 c 0,4,5
 1406 426 1406 426 943 63 c 1,6,7
 744 21 744 21 691 21 c 0,8,9
 353 21 353 21 144 315 c 0,10,11
 85 420 85 420 60 757 c 1,12,13
 245 1619 245 1619 691 1619 c 2,14,-1
 817 1619 l 1,0,1
207 736 m 1,15,16
 207 340 207 340 439 231 c 1,17,18
 649 194 649 194 649 168 c 1,19,20
 1022 168 1022 168 1280 673 c 1,21,22
 1280 1304 1280 1304 1049 1304 c 1,23,-1
 922 1430 l 1,24,-1
 922 1451 l 1,25,-1
 943 1493 l 1,26,-1
 922 1493 l 1,27,-1
 880 1472 l 1,28,-1
 796 1493 l 1,29,30
 440 1493 440 1493 333 1115 c 1,31,32
 249 1017 249 1017 207 736 c 1,15,16
733 1283 m 2,33,34
 922 1283 922 1283 922 988 c 2,35,-1
 922 946 l 1,36,37
 873 841 873 841 817 841 c 1,38,-1
 817 820 l 1,39,40
 866 720 866 720 986 694 c 1,41,42
 986 661 986 661 1028 610 c 1,43,-1
 1028 547 l 2,44,45
 1028 514 1028 514 943 463 c 1,46,47
 864 475 864 475 817 589 c 1,48,49
 769 589 769 589 691 652 c 1,50,-1
 649 652 l 1,51,-1
 649 547 l 2,52,53
 649 516 649 516 586 484 c 1,54,-1
 565 484 l 2,55,56
 532 484 532 484 481 568 c 1,57,58
 502 631 502 631 523 631 c 1,59,-1
 502 673 l 1,60,-1
 502 967 l 1,61,-1
 481 1115 l 1,62,63
 544 1115 544 1115 670 1283 c 1,64,-1
 733 1283 l 2,33,34
628 883 m 1,65,-1
 670 883 l 2,66,67
 682 883 682 883 796 1009 c 1,68,69
 754 1096 754 1096 754 1136 c 1,70,-1
 733 1136 l 2,71,72
 655 1136 655 1136 628 883 c 1,65,-1
EndSplineSet
EndChar

StartChar: degree
Encoding: 176 176 105
Width: 666
Flags: W
LayerCount: 2
Fore
SplineSet
312 1556 m 1,0,-1
 418 1493 l 1,1,-1
 523 1493 l 1,2,3
 523 1430 523 1430 586 1430 c 1,4,-1
 586 1325 l 1,5,6
 432 1090 432 1090 333 1030 c 1,7,-1
 207 1030 l 1,8,9
 144 1046 144 1046 60 1199 c 1,10,-1
 60 1346 l 1,11,12
 173 1556 173 1556 312 1556 c 1,0,-1
207 1304 m 1,13,-1
 207 1241 l 2,14,15
 207 1211 207 1211 270 1178 c 1,16,17
 370 1283 370 1283 397 1283 c 1,18,-1
 397 1346 l 1,19,20
 344 1346 344 1346 291 1388 c 1,21,22
 259 1388 259 1388 207 1304 c 1,13,-1
EndSplineSet
EndChar

StartChar: plusminus
Encoding: 177 177 106
Width: 1045
Flags: W
LayerCount: 2
Fore
SplineSet
439 1241 m 2,0,-1
 502 1241 l 1,1,2
 502 1199 502 1199 544 1199 c 1,3,-1
 523 1052 l 1,4,-1
 523 1030 l 1,5,6
 792 1073 792 1073 838 1073 c 1,7,-1
 859 1030 l 1,8,-1
 859 967 l 2,9,10
 859 904 859 904 481 841 c 1,11,12
 481 652 481 652 418 652 c 2,13,-1
 354 652 l 1,14,-1
 333 799 l 1,15,-1
 333 841 l 1,16,-1
 228 841 l 2,17,18
 119 841 119 841 102 904 c 1,19,-1
 102 946 l 1,20,21
 109 988 109 988 144 988 c 2,22,-1
 376 988 l 1,23,24
 376 1036 376 1036 397 1073 c 1,25,26
 376 1109 376 1109 376 1157 c 1,27,28
 407 1241 407 1241 439 1241 c 2,0,-1
922 589 m 1,29,-1
 943 589 l 1,30,-1
 964 505 l 1,31,32
 964 406 964 406 291 357 c 1,33,34
 60 378 60 378 60 463 c 1,35,36
 81 503 81 503 81 526 c 1,37,-1
 186 526 l 2,38,39
 249 526 249 526 249 505 c 1,40,-1
 607 547 l 2,41,42
 628 547 628 547 628 526 c 1,43,-1
 922 589 l 1,29,-1
EndSplineSet
EndChar

StartChar: uni00B2
Encoding: 178 178 107
Width: 792
Flags: W
LayerCount: 2
Fore
SplineSet
418 1684 m 1,0,1
 544 1667 544 1667 544 1557 c 1,2,3
 464 1256 464 1256 355 1115 c 1,4,-1
 355 1094 l 1,5,-1
 376 1052 l 1,6,-1
 418 1073 l 1,7,-1
 460 1073 l 2,8,9
 507 1073 507 1073 544 1052 c 1,10,11
 585 1073 585 1073 607 1073 c 1,12,-1
 712 1052 l 1,13,-1
 712 989 l 1,14,15
 670 800 670 800 607 800 c 2,16,-1
 586 800 l 1,17,-1
 544 905 l 1,18,-1
 313 905 l 2,19,20
 265 905 265 905 228 884 c 1,21,22
 132 925 132 925 123 968 c 1,23,-1
 376 1494 l 1,24,-1
 355 1494 l 1,25,26
 165 1389 165 1389 102 1389 c 0,27,28
 60 1389 60 1389 60 1431 c 2,29,-1
 60 1494 l 1,30,31
 99 1573 99 1573 418 1684 c 1,0,1
EndSplineSet
EndChar

StartChar: uni00B3
Encoding: 179 179 108
Width: 687
Flags: W
LayerCount: 2
Fore
SplineSet
228 1642 m 1,0,-1
 291 1642 l 2,1,2
 313 1642 313 1642 313 1621 c 1,3,-1
 355 1642 l 1,4,5
 502 1578 502 1578 502 1473 c 1,6,7
 439 1334 439 1334 439 1284 c 1,8,9
 607 1221 607 1221 607 1031 c 1,10,11
 408 758 408 758 144 758 c 1,12,13
 60 789 60 789 60 821 c 2,14,-1
 60 842 l 1,15,16
 173 945 173 945 376 1010 c 1,17,18
 376 1052 376 1052 418 1052 c 1,19,-1
 418 1115 l 1,20,-1
 313 1137 l 1,21,22
 265 1137 265 1137 228 1115 c 1,23,24
 144 1147 144 1147 144 1179 c 2,25,-1
 144 1200 l 2,26,27
 144 1291 144 1291 334 1431 c 1,28,-1
 334 1494 l 1,29,-1
 186 1473 l 1,30,-1
 165 1515 l 1,31,-1
 165 1578 l 2,32,33
 165 1609 165 1609 228 1642 c 1,0,-1
EndSplineSet
EndChar

StartChar: uni00B5
Encoding: 181 181 109
Width: 1613
Flags: W
LayerCount: 2
Fore
SplineSet
733 1726 m 1,0,-1
 839 1726 l 2,1,2
 912 1718 912 1718 986 1389 c 1,3,4
 1040 1284 1040 1284 1070 1284 c 1,5,-1
 1112 1305 l 1,6,7
 1153 1284 1153 1284 1175 1284 c 1,8,9
 1325 1326 1325 1326 1407 1326 c 1,10,-1
 1428 1284 l 1,11,-1
 1428 1242 l 2,12,13
 1428 1118 1428 1118 1217 1073 c 1,14,15
 1174 989 1174 989 1112 989 c 1,16,17
 1344 463 1344 463 1491 463 c 1,18,-1
 1533 358 l 1,19,20
 1501 274 1501 274 1470 274 c 2,21,-1
 1449 274 l 1,22,23
 1077 379 1077 379 839 379 c 0,24,25
 712 379 712 379 712 190 c 2,26,-1
 712 -42 l 1,27,-1
 733 -294 l 1,28,-1
 649 -358 l 1,29,-1
 628 -358 l 1,30,31
 544 -323 544 -323 544 -210 c 2,32,-1
 544 -42 l 1,33,-1
 565 84 l 1,34,35
 529 316 529 316 502 316 c 1,36,37
 234 253 234 253 165 190 c 1,38,-1
 102 190 l 2,39,40
 60 190 60 190 60 232 c 2,41,-1
 60 358 l 1,42,43
 119 358 119 358 481 674 c 1,44,45
 317 1200 317 1200 228 1200 c 1,46,-1
 228 1221 l 2,47,48
 241 1389 241 1389 291 1389 c 0,49,50
 365 1389 365 1389 439 1305 c 1,51,-1
 754 1305 l 1,52,53
 754 1375 754 1375 775 1410 c 1,54,-1
 712 1663 l 1,55,56
 733 1703 733 1703 733 1726 c 1,0,-1
460 1179 m 1,57,-1
 586 758 l 1,58,-1
 607 758 l 2,59,60
 708 758 708 758 733 1179 c 1,61,-1
 460 1179 l 1,57,-1
839 947 m 1,62,63
 986 1035 986 1035 986 1073 c 1,64,65
 945 1169 945 1169 902 1179 c 1,66,67
 839 1179 839 1179 839 947 c 1,62,63
754 505 m 1,68,-1
 775 505 l 2,69,70
 1196 484 1196 484 1238 484 c 1,71,72
 1191 610 1191 610 1133 610 c 1,73,74
 1133 631 1133 631 1154 631 c 1,75,76
 1049 791 1049 791 1049 884 c 1,77,-1
 986 884 l 1,78,79
 754 777 754 777 754 505 c 1,68,-1
EndSplineSet
EndChar

StartChar: paragraph
Encoding: 182 182 110
Width: 1087
Flags: W
LayerCount: 2
Fore
SplineSet
712 1577 m 1,0,1
 838 1577 838 1577 838 1493 c 1,2,-1
 859 1493 l 1,3,4
 859 1556 859 1556 901 1556 c 1,5,6
 938 1535 938 1535 986 1535 c 1,7,8
 1007 1317 1007 1317 1007 1283 c 1,9,-1
 986 1241 l 1,10,11
 1007 1204 1007 1204 1007 1157 c 1,12,-1
 986 1157 l 1,13,14
 986 1136 986 1136 1007 1136 c 1,15,-1
 943 505 l 1,16,-1
 964 463 l 1,17,18
 943 379 943 379 943 315 c 1,19,20
 964 275 964 275 964 252 c 1,21,-1
 901 210 l 1,22,-1
 838 210 l 1,23,-1
 796 442 l 1,24,-1
 817 442 l 1,25,26
 817 463 817 463 796 463 c 1,27,-1
 817 568 l 1,28,29
 817 589 817 589 796 589 c 1,30,-1
 817 694 l 1,31,-1
 817 778 l 1,32,-1
 670 757 l 1,33,-1
 670 589 l 2,34,35
 670 568 670 568 649 568 c 1,36,37
 670 568 670 568 670 315 c 1,38,-1
 628 294 l 1,39,40
 502 323 502 323 502 399 c 1,41,-1
 523 442 l 1,42,43
 523 463 523 463 502 463 c 1,44,-1
 523 610 l 1,45,-1
 523 715 l 1,46,47
 60 767 60 767 60 1052 c 0,48,49
 60 1299 60 1299 712 1577 c 1,0,1
691 1409 m 1,50,-1
 733 1346 l 1,51,52
 691 1188 691 1188 691 1052 c 2,53,-1
 691 925 l 1,54,-1
 754 925 l 1,55,-1
 859 946 l 1,56,-1
 859 1472 l 1,57,58
 804 1409 804 1409 691 1409 c 1,50,-1
228 1073 m 1,59,-1
 228 1009 l 2,60,61
 228 904 228 904 544 883 c 1,62,63
 544 967 544 967 565 967 c 1,64,-1
 544 1009 l 1,65,66
 565 1224 565 1224 565 1346 c 1,67,68
 445 1346 445 1346 228 1073 c 1,59,-1
EndSplineSet
EndChar

StartChar: guillemotright
Encoding: 187 187 111
Width: 1045
Flags: W
LayerCount: 2
Fore
SplineSet
607 1179 m 1,0,-1
 965 884 l 1,1,-1
 965 821 l 1,2,-1
 839 589 l 1,3,-1
 860 547 l 1,4,5
 794 532 794 532 628 295 c 1,6,7
 587 316 587 316 565 316 c 1,8,9
 565 407 565 407 754 758 c 0,10,11
 775 795 775 795 775 842 c 1,12,13
 544 1010 544 1010 544 1115 c 0,14,15
 544 1146 544 1146 607 1179 c 1,0,-1
60 1137 m 1,16,-1
 81 1137 l 2,17,18
 147 1137 147 1137 418 947 c 1,19,20
 439 947 439 947 481 863 c 1,21,-1
 481 821 l 1,22,23
 412 568 412 568 376 568 c 0,24,25
 318 568 318 568 207 421 c 1,26,27
 165 421 165 421 165 463 c 2,28,-1
 165 547 l 1,29,-1
 186 589 l 1,30,-1
 165 589 l 1,31,-1
 60 568 l 1,32,-1
 228 674 l 1,33,34
 291 740 291 740 291 842 c 1,35,36
 111 989 111 989 60 989 c 1,37,-1
 60 1137 l 1,16,-1
EndSplineSet
EndChar

StartChar: onequarter
Encoding: 188 188 112
Width: 1087
Flags: W
LayerCount: 2
Fore
SplineSet
565 1599 m 2,0,-1
 628 1599 l 1,1,2
 670 1593 670 1593 670 1557 c 0,3,4
 649 1036 649 1036 628 968 c 1,5,-1
 502 968 l 1,6,-1
 481 1073 l 1,7,8
 523 1356 523 1356 523 1431 c 2,9,-1
 523 1557 l 1,10,11
 530 1599 530 1599 565 1599 c 2,0,-1
123 905 m 1,12,-1
 355 905 l 2,13,14
 376 905 376 905 376 884 c 1,15,-1
 418 905 l 1,16,-1
 944 905 l 2,17,18
 974 905 974 905 1007 842 c 1,19,-1
 986 737 l 1,20,-1
 860 737 l 1,21,-1
 733 758 l 1,22,-1
 691 737 l 1,23,24
 578 758 578 758 502 758 c 2,25,-1
 439 758 l 2,26,27
 391 758 391 758 355 737 c 1,28,29
 318 758 318 758 270 758 c 2,30,-1
 123 758 l 2,31,32
 93 758 93 758 60 821 c 1,33,-1
 60 842 l 2,34,35
 60 872 60 872 123 905 c 1,12,-1
291 653 m 1,36,-1
 376 653 l 1,37,38
 418 646 418 646 418 610 c 2,39,-1
 418 526 l 1,40,-1
 397 379 l 1,41,42
 649 379 649 379 649 526 c 1,43,44
 628 567 628 567 628 589 c 1,45,46
 649 630 649 630 649 653 c 1,47,-1
 754 653 l 1,48,-1
 775 568 l 1,49,50
 775 458 775 458 733 126 c 1,51,52
 775 57 775 57 775 0 c 1,53,-1
 670 -21 l 1,54,-1
 607 -21 l 1,55,56
 607 32 607 32 565 84 c 1,57,58
 586 200 586 200 586 253 c 1,59,-1
 565 253 l 1,60,61
 396 211 396 211 355 211 c 2,62,-1
 270 211 l 2,63,64
 228 211 228 211 228 253 c 1,65,-1
 291 653 l 1,36,-1
EndSplineSet
EndChar

StartChar: onehalf
Encoding: 189 189 113
Width: 981
Flags: W
LayerCount: 2
Fore
SplineSet
628 1599 m 1,0,-1
 670 1515 l 1,1,2
 633 1461 633 1461 607 1010 c 1,3,-1
 565 1010 l 1,4,-1
 460 1031 l 1,5,6
 460 1578 460 1578 523 1578 c 1,7,-1
 628 1599 l 1,0,-1
691 863 m 1,8,-1
 691 821 l 1,9,-1
 818 863 l 1,10,11
 902 842 902 842 902 716 c 1,12,-1
 839 674 l 1,13,-1
 818 674 l 2,14,15
 797 674 797 674 797 695 c 1,16,-1
 586 653 l 1,17,-1
 460 674 l 1,18,-1
 334 674 l 1,19,-1
 228 653 l 1,20,21
 228 695 228 695 186 695 c 1,22,23
 186 653 186 653 144 653 c 2,24,-1
 123 653 l 2,25,26
 93 653 93 653 60 716 c 1,27,-1
 60 779 l 1,28,29
 93 779 93 779 144 821 c 1,30,31
 165 821 165 821 165 800 c 1,32,-1
 418 842 l 1,33,-1
 460 821 l 1,34,35
 663 863 663 863 691 863 c 1,8,-1
439 589 m 1,36,37
 523 558 523 558 523 526 c 2,38,-1
 523 505 l 2,39,40
 523 406 523 406 355 84 c 1,41,-1
 376 84 l 1,42,43
 412 105 412 105 460 105 c 1,44,45
 691 69 691 69 691 -21 c 1,46,47
 660 -105 660 -105 628 -105 c 2,48,-1
 544 -105 l 2,49,50
 497 -105 497 -105 460 -84 c 1,51,52
 439 -84 439 -84 439 -105 c 1,53,-1
 123 -63 l 1,54,-1
 123 -21 l 2,55,56
 123 46 123 46 334 358 c 1,57,-1
 334 421 l 1,58,-1
 291 421 l 1,59,-1
 165 316 l 1,60,-1
 144 316 l 2,61,62
 113 316 113 316 81 400 c 1,63,64
 81 530 81 530 439 589 c 1,36,37
EndSplineSet
EndChar

StartChar: threequarters
Encoding: 190 190 114
Width: 856
Flags: W
LayerCount: 2
Fore
SplineSet
397 1642 m 1,0,-1
 481 1642 l 2,1,2
 628 1642 628 1642 628 1515 c 0,3,4
 628 1497 628 1497 565 1347 c 1,5,6
 712 1289 712 1289 712 1179 c 0,7,8
 712 1070 712 1070 439 926 c 1,9,10
 439 905 439 905 418 905 c 1,11,12
 291 954 291 954 291 989 c 2,13,-1
 291 1031 l 2,14,15
 294 1072 294 1072 502 1158 c 1,16,-1
 523 1200 l 1,17,-1
 460 1200 l 1,18,-1
 397 1158 l 1,19,-1
 334 1158 l 2,20,21
 291 1158 291 1158 291 1200 c 2,22,-1
 291 1263 l 1,23,24
 384 1346 384 1346 439 1473 c 1,25,-1
 418 1473 l 1,26,27
 291 1452 291 1452 291 1347 c 1,28,-1
 207 1347 l 2,29,30
 177 1347 177 1347 144 1410 c 1,31,-1
 144 1452 l 1,32,33
 186 1529 186 1529 397 1642 c 1,0,-1
544 842 m 2,34,-1
 565 842 l 1,35,-1
 565 800 l 1,36,-1
 628 800 l 1,37,-1
 733 821 l 1,38,-1
 775 758 l 1,39,-1
 775 695 l 1,40,-1
 733 631 l 1,41,42
 418 653 418 653 270 653 c 2,43,-1
 102 653 l 2,44,45
 60 653 60 653 60 695 c 2,46,-1
 60 779 l 1,47,48
 262 821 262 821 355 821 c 1,49,-1
 502 800 l 1,50,51
 508 842 508 842 544 842 c 2,34,-1
207 568 m 2,52,-1
 249 568 l 1,53,54
 291 562 291 562 291 526 c 2,55,-1
 291 484 l 1,56,-1
 270 337 l 1,57,58
 313 337 313 337 313 316 c 1,59,-1
 355 337 l 1,60,-1
 502 316 l 1,61,62
 523 568 523 568 586 568 c 1,63,64
 670 537 670 537 670 505 c 2,65,-1
 670 379 l 2,66,67
 670 209 670 209 607 -147 c 1,68,-1
 481 -147 l 1,69,70
 481 -110 481 -110 439 -42 c 1,71,72
 481 35 481 35 481 126 c 2,73,-1
 481 148 l 1,74,75
 410 148 410 148 376 169 c 1,76,77
 355 169 355 169 355 148 c 1,78,79
 102 169 102 169 102 211 c 2,80,-1
 102 253 l 1,81,82
 165 568 165 568 207 568 c 2,52,-1
EndSplineSet
EndChar

StartChar: questiondown
Encoding: 191 191 115
Width: 813
Flags: W
LayerCount: 2
Fore
SplineSet
523 1726 m 2,0,-1
 565 1726 l 2,1,2
 623 1726 623 1726 649 1494 c 1,3,4
 637 1410 637 1410 502 1410 c 1,5,-1
 460 1557 l 1,6,-1
 460 1599 l 2,7,8
 473 1726 473 1726 523 1726 c 2,0,-1
502 1242 m 1,9,-1
 565 1242 l 2,10,11
 607 1242 607 1242 628 1115 c 1,12,-1
 607 1115 l 1,13,14
 649 1008 649 1008 649 947 c 1,15,-1
 628 947 l 1,16,-1
 649 905 l 1,17,-1
 649 863 l 2,18,19
 649 758 649 758 565 737 c 1,20,-1
 439 758 l 1,21,22
 228 729 228 729 228 400 c 1,23,24
 287 126 287 126 502 126 c 2,25,-1
 544 126 l 1,26,-1
 607 169 l 1,27,28
 712 169 712 169 733 84 c 1,29,30
 681 -63 681 -63 586 -63 c 1,31,32
 545 -42 545 -42 523 -42 c 1,33,-1
 439 -63 l 1,34,35
 299 -21 299 -21 165 105 c 1,36,37
 110 105 110 105 60 484 c 1,38,39
 126 926 126 926 439 926 c 2,40,-1
 481 926 l 1,41,42
 481 968 481 968 502 968 c 1,43,44
 481 1004 481 1004 460 1221 c 1,45,-1
 502 1242 l 1,9,-1
EndSplineSet
EndChar

StartChar: multiply
Encoding: 215 215 116
Width: 792
Flags: W
LayerCount: 2
Fore
SplineSet
207 905 m 1,0,-1
 270 905 l 1,1,-1
 397 695 l 1,2,-1
 460 695 l 1,3,4
 572 905 572 905 691 905 c 1,5,-1
 712 863 l 1,6,-1
 712 821 l 1,7,8
 560 626 560 626 502 547 c 1,9,-1
 649 337 l 1,10,-1
 628 190 l 1,11,12
 439 245 439 245 439 400 c 1,13,-1
 397 400 l 1,14,15
 397 324 397 324 165 84 c 1,16,-1
 102 84 l 1,17,18
 102 105 102 105 60 105 c 1,19,-1
 60 253 l 1,20,21
 121 253 121 253 270 484 c 1,22,23
 313 484 313 484 313 589 c 1,24,-1
 144 800 l 1,25,-1
 144 842 l 2,26,27
 144 872 144 872 207 905 c 1,0,-1
EndSplineSet
EndChar

StartChar: Oslash
Encoding: 216 216 117
Width: 1466
Flags: W
LayerCount: 2
Fore
SplineSet
1196 1578 m 1,0,-1
 1238 1578 l 2,1,2
 1281 1572 1281 1572 1281 1536 c 1,3,4
 1175 1425 1175 1425 1175 1368 c 1,5,6
 1237 1358 1237 1358 1323 1052 c 1,7,8
 1344 1052 1344 1052 1386 926 c 1,9,10
 1386 232 1386 232 818 -21 c 1,11,12
 449 8 449 8 397 63 c 1,13,-1
 334 63 l 1,14,15
 299 -76 299 -76 186 -252 c 1,16,17
 60 -252 60 -252 60 -126 c 2,18,-1
 60 -84 l 1,19,20
 123 -84 123 -84 144 21 c 1,21,22
 186 105 186 105 228 105 c 1,23,-1
 228 169 l 1,24,25
 60 169 60 169 60 800 c 1,26,27
 109 1132 109 1132 418 1389 c 0,28,29
 502 1473 502 1473 607 1515 c 1,30,-1
 733 1494 l 1,31,-1
 818 1557 l 1,32,-1
 881 1557 l 1,33,-1
 1049 1473 l 1,34,35
 1069 1473 1069 1473 1196 1578 c 1,0,-1
207 695 m 1,36,-1
 270 316 l 1,37,-1
 313 316 l 1,38,39
 363 345 363 345 965 1305 c 1,40,41
 965 1326 965 1326 944 1326 c 1,42,43
 907 1347 907 1347 860 1347 c 2,44,-1
 797 1347 l 1,45,-1
 797 1305 l 1,46,-1
 775 1305 l 2,47,48
 733 1305 733 1305 733 1368 c 1,49,50
 488 1368 488 1368 249 926 c 1,51,52
 228 739 228 739 207 695 c 1,36,-1
1049 1200 m 1,53,54
 1049 1157 1049 1157 460 274 c 1,55,56
 460 251 460 251 439 211 c 1,57,58
 481 211 481 211 691 148 c 1,59,60
 1057 148 1057 148 1217 758 c 1,61,-1
 1217 947 l 1,62,63
 1108 1200 1108 1200 1091 1200 c 2,64,-1
 1049 1200 l 1,53,54
EndSplineSet
EndChar

StartChar: ntilde
Encoding: 241 241 118
Width: 1066
Flags: W
LayerCount: 2
Fore
SplineSet
291 1473 m 1,0,1
 362 1473 362 1473 754 1347 c 1,2,3
 754 1380 754 1380 839 1431 c 1,4,-1
 986 1431 l 1,5,6
 986 1179 986 1179 775 1179 c 2,7,-1
 733 1179 l 1,8,9
 507 1221 507 1221 376 1305 c 1,10,-1
 355 1305 l 1,11,-1
 207 1263 l 1,12,-1
 228 1221 l 1,13,-1
 186 1221 l 1,14,-1
 81 1242 l 1,15,-1
 81 1326 l 2,16,17
 82 1380 82 1380 291 1473 c 1,0,1
628 989 m 0,18,19
 783 989 783 989 881 421 c 1,20,21
 817 316 817 316 733 316 c 2,22,-1
 712 316 l 1,23,24
 712 821 712 821 565 821 c 2,25,-1
 544 821 l 1,26,27
 348 611 348 611 228 274 c 1,28,-1
 144 232 l 1,29,30
 60 263 60 263 60 295 c 1,31,32
 144 827 144 827 144 947 c 1,33,-1
 249 968 l 1,34,35
 291 917 291 917 291 884 c 0,36,37
 270 734 270 734 270 716 c 1,38,-1
 313 716 l 1,39,40
 429 989 429 989 628 989 c 0,18,19
EndSplineSet
EndChar

StartChar: divide
Encoding: 247 247 119
Width: 1213
Flags: W
LayerCount: 2
Fore
SplineSet
607 1031 m 1,0,-1
 691 1031 l 1,1,2
 691 998 691 998 733 947 c 1,3,-1
 733 926 l 2,4,5
 733 896 733 896 670 863 c 1,6,-1
 607 863 l 1,7,8
 544 884 544 884 544 989 c 1,9,-1
 607 1031 l 1,0,-1
1028 610 m 1,10,11
 1124 570 1124 570 1133 526 c 1,12,-1
 1133 505 l 2,13,14
 1133 472 1133 472 1049 421 c 1,15,-1
 902 421 l 1,16,-1
 775 442 l 1,17,18
 689 400 689 400 649 400 c 1,19,-1
 649 421 l 1,20,-1
 102 337 l 1,21,-1
 60 400 l 1,22,-1
 60 421 l 2,23,24
 60 533 60 533 691 568 c 2,25,-1
 797 568 l 1,26,-1
 902 589 l 1,27,-1
 902 568 l 1,28,-1
 1028 610 l 1,10,11
670 211 m 1,29,-1
 733 105 l 1,30,31
 733 -21 733 -21 586 -21 c 0,32,33
 570 -21 570 -21 523 42 c 1,34,35
 523 211 523 211 649 211 c 2,36,-1
 670 211 l 1,29,-1
EndSplineSet
EndChar

StartChar: oslash
Encoding: 248 248 120
Width: 940
Flags: W
LayerCount: 2
Fore
SplineSet
733 1179 m 1,0,-1
 860 1179 l 1,1,-1
 860 1115 l 2,2,3
 860 1071 860 1071 733 863 c 1,4,5
 860 752 860 752 860 653 c 2,6,-1
 860 610 l 2,7,8
 860 426 860 426 565 253 c 1,9,10
 518 253 518 253 481 232 c 1,11,-1
 355 253 l 1,12,-1
 291 253 l 1,13,14
 212 42 212 42 165 42 c 2,15,-1
 123 42 l 1,16,17
 60 63 60 63 60 169 c 1,18,-1
 165 337 l 1,19,-1
 165 358 l 1,20,21
 72 465 72 465 60 526 c 1,22,-1
 81 568 l 1,23,-1
 60 610 l 1,24,25
 60 774 60 774 376 1031 c 1,26,-1
 397 1031 l 1,27,-1
 649 1010 l 1,28,29
 733 1115 733 1115 733 1179 c 1,0,-1
228 568 m 1,30,-1
 249 463 l 1,31,32
 502 763 502 763 502 884 c 1,33,34
 352 884 352 884 228 610 c 1,35,-1
 228 568 l 1,30,-1
649 779 m 1,36,37
 649 736 649 736 502 568 c 1,38,39
 418 428 418 428 418 379 c 1,40,41
 616 379 616 379 712 610 c 1,42,-1
 712 695 l 1,43,44
 670 746 670 746 670 779 c 1,45,-1
 649 779 l 1,36,37
EndSplineSet
EndChar

StartChar: lacute
Encoding: 314 314 121
Width: 877
Flags: W
LayerCount: 2
Fore
SplineSet
586 1663 m 1,0,-1
 628 1663 l 2,1,2
 661 1663 661 1663 712 1578 c 1,3,4
 712 999 712 999 460 589 c 1,5,6
 486 295 486 295 649 295 c 1,7,8
 797 265 797 265 797 169 c 1,9,10
 764 169 764 169 712 126 c 1,11,-1
 670 126 l 2,12,13
 355 126 355 126 355 337 c 1,14,-1
 313 337 l 1,15,16
 231 125 231 125 165 105 c 1,17,18
 69 146 69 146 60 190 c 1,19,-1
 60 232 l 1,20,21
 313 553 313 553 313 631 c 0,22,23
 313 720 313 720 270 842 c 1,24,25
 380 1526 380 1526 586 1663 c 1,0,-1
544 1368 m 1,26,27
 481 1118 481 1118 439 863 c 1,28,29
 503 863 503 863 565 1347 c 2,30,-1
 565 1368 l 1,31,-1
 544 1368 l 1,26,27
EndSplineSet
EndChar

StartChar: Omega
Encoding: 937 937 122
Width: 2097
Flags: W
LayerCount: 2
Fore
SplineSet
1070 1642 m 1,0,1
 1217 1599 1217 1599 1217 1578 c 1,2,-1
 1259 1599 l 1,3,4
 1612 1405 1612 1405 1659 1347 c 0,5,6
 1807 1183 1807 1183 1807 800 c 2,7,-1
 1807 737 l 2,8,9
 1807 523 1807 523 1680 232 c 1,10,-1
 1701 232 l 1,11,-1
 1807 190 l 1,12,-1
 1849 211 l 1,13,14
 1959 211 1959 211 2017 63 c 1,15,-1
 2017 0 l 2,16,17
 2017 -42 2017 -42 1975 -42 c 1,18,19
 1496 84 1496 84 1470 84 c 1,20,-1
 1449 190 l 1,21,22
 1659 407 1659 407 1659 737 c 0,23,24
 1659 1175 1659 1175 1449 1326 c 1,25,26
 1185 1452 1185 1452 1028 1452 c 2,27,-1
 965 1452 l 1,28,29
 629 1387 629 1387 460 1115 c 1,30,31
 418 942 418 942 418 926 c 0,32,33
 418 487 418 487 628 295 c 0,34,35
 797 171 797 171 797 84 c 1,36,37
 775 15 775 15 712 0 c 1,38,-1
 291 42 l 1,39,40
 208 21 208 21 144 21 c 1,41,42
 60 42 60 42 60 148 c 2,43,-1
 60 169 l 1,44,45
 93 169 93 169 144 211 c 1,46,47
 431 190 431 190 502 190 c 1,48,49
 270 438 270 438 270 737 c 2,50,-1
 270 905 l 2,51,52
 270 1153 270 1153 397 1242 c 1,53,54
 397 1360 397 1360 628 1515 c 1,55,-1
 628 1536 l 1,56,-1
 649 1536 l 1,57,-1
 691 1515 l 1,58,59
 744 1591 744 1591 1070 1642 c 1,0,1
EndSplineSet
EndChar

StartChar: alpha
Encoding: 945 945 123
Width: 1129
Flags: W
LayerCount: 2
Fore
SplineSet
839 1052 m 1,0,1
 923 1031 923 1031 923 968 c 1,2,3
 839 808 839 808 754 589 c 1,4,-1
 923 442 l 1,5,-1
 986 484 l 1,6,-1
 1007 484 l 1,7,8
 1049 478 1049 478 1049 442 c 2,9,-1
 1049 337 l 2,10,11
 1049 309 1049 309 944 232 c 1,12,13
 775 304 775 304 775 337 c 0,14,15
 775 400 775 400 649 463 c 1,16,17
 522 232 522 232 270 232 c 1,18,19
 60 287 60 287 60 463 c 2,20,-1
 60 526 l 1,21,22
 118 905 118 905 355 905 c 2,23,-1
 376 905 l 1,24,25
 628 842 628 842 628 758 c 1,26,-1
 649 758 l 1,27,-1
 818 1031 l 1,28,29
 818 1052 818 1052 839 1052 c 1,0,1
186 484 m 0,30,31
 199 379 199 379 313 379 c 0,32,33
 431 379 431 379 565 610 c 1,34,35
 391 758 391 758 334 758 c 1,36,37
 186 688 186 688 186 484 c 0,30,31
EndSplineSet
EndChar

StartChar: beta
Encoding: 946 946 124
Width: 897
Flags: W
LayerCount: 2
Fore
SplineSet
439 1621 m 2,0,-1
 481 1621 l 1,1,2
 481 1586 481 1586 607 1515 c 1,3,4
 607 1468 607 1468 628 1431 c 1,5,6
 628 1373 628 1373 565 1242 c 1,7,8
 784 1242 784 1242 818 989 c 1,9,10
 658 589 658 589 439 589 c 2,11,-1
 270 589 l 1,12,-1
 228 610 l 1,13,14
 228 589 228 589 207 589 c 1,15,-1
 249 337 l 1,16,17
 218 253 218 253 186 253 c 2,18,-1
 123 253 l 2,19,20
 88 253 88 253 60 379 c 1,21,-1
 81 421 l 1,22,23
 60 462 60 462 60 484 c 1,24,-1
 81 526 l 1,25,26
 60 567 60 567 60 589 c 0,27,28
 60 631 60 631 81 631 c 1,29,-1
 60 779 l 1,30,-1
 60 800 l 2,31,32
 60 1361 60 1361 249 1494 c 1,33,34
 334 1621 334 1621 439 1621 c 2,0,-1
228 1158 m 1,35,36
 335 1158 335 1158 460 1389 c 1,37,-1
 460 1410 l 1,38,-1
 418 1431 l 1,39,-1
 397 1431 l 1,40,41
 228 1304 228 1304 228 1158 c 1,35,36
207 968 m 1,42,-1
 207 905 l 2,43,44
 207 758 207 758 291 758 c 1,45,-1
 397 737 l 1,46,47
 649 861 649 861 649 1031 c 1,48,-1
 607 1052 l 1,49,-1
 544 1052 l 2,50,51
 425 1047 425 1047 313 989 c 1,52,53
 313 968 313 968 207 968 c 1,42,-1
EndSplineSet
EndChar

StartChar: gamma
Encoding: 947 947 125
Width: 939
Flags: W
LayerCount: 2
Fore
SplineSet
797 1179 m 0,0,1
 827 1179 827 1179 860 1115 c 1,2,-1
 860 1031 l 2,3,4
 860 968 860 968 775 968 c 1,5,-1
 670 989 l 1,6,7
 464 589 464 589 355 148 c 1,8,9
 318 126 318 126 270 126 c 2,10,-1
 249 126 l 2,11,12
 207 126 207 126 207 169 c 2,13,-1
 207 190 l 2,14,15
 207 208 207 208 249 358 c 1,16,-1
 249 421 l 2,17,18
 249 659 249 659 60 1115 c 1,19,20
 67 1158 67 1158 102 1158 c 2,21,-1
 186 1158 l 1,22,23
 281 1047 281 1047 355 674 c 1,24,-1
 376 674 l 1,25,26
 544 1158 544 1158 733 1158 c 1,27,28
 733 1137 733 1137 754 1137 c 1,29,30
 761 1179 761 1179 797 1179 c 0,0,1
EndSplineSet
EndChar

StartChar: delta
Encoding: 948 948 126
Width: 1045
Flags: W
LayerCount: 2
Fore
SplineSet
775 1831 m 1,0,-1
 839 1831 l 1,1,2
 965 1774 965 1774 965 1747 c 2,3,-1
 965 1642 l 1,4,5
 900 1621 900 1621 839 1621 c 1,6,-1
 839 1642 l 1,7,-1
 818 1642 l 2,8,9
 774 1641 774 1641 565 1389 c 1,10,-1
 565 1326 l 2,11,12
 565 1280 565 1280 797 884 c 1,13,-1
 797 863 l 1,14,-1
 775 863 l 1,15,-1
 797 821 l 1,16,-1
 797 779 l 1,17,18
 682 358 682 358 502 358 c 1,19,20
 502 337 502 337 481 337 c 2,21,-1
 397 337 l 2,22,23
 349 337 349 337 313 358 c 1,24,25
 272 337 272 337 249 337 c 1,26,27
 163 355 163 355 60 547 c 1,28,29
 60 927 60 927 249 1031 c 1,30,-1
 397 1073 l 1,31,-1
 502 1052 l 1,32,-1
 502 1094 l 1,33,34
 454 1155 454 1155 376 1347 c 1,35,36
 453 1572 453 1572 775 1831 c 1,0,-1
228 610 m 1,37,38
 240 505 240 505 397 505 c 1,39,40
 397 484 397 484 418 484 c 1,41,42
 604 610 604 610 628 842 c 2,43,-1
 628 863 l 1,44,-1
 544 842 l 1,45,-1
 418 947 l 1,46,-1
 376 947 l 2,47,48
 270 947 270 947 228 610 c 1,37,38
EndSplineSet
EndChar

StartChar: epsilon
Encoding: 949 949 127
Width: 856
Flags: W
LayerCount: 2
Fore
SplineSet
397 1326 m 2,0,-1
 481 1326 l 2,1,2
 570 1326 570 1326 712 1242 c 1,3,-1
 712 1137 l 2,4,5
 712 1106 712 1106 649 1073 c 1,6,-1
 628 1073 l 2,7,8
 586 1073 586 1073 565 1200 c 1,9,-1
 418 1200 l 2,10,11
 326 1200 326 1200 249 947 c 1,12,-1
 291 926 l 1,13,-1
 334 947 l 1,14,15
 460 947 460 947 460 821 c 0,16,17
 460 771 460 771 291 737 c 1,18,19
 228 585 228 585 228 547 c 2,20,-1
 228 526 l 2,21,22
 228 495 228 495 313 463 c 1,23,24
 649 511 649 511 649 589 c 1,25,-1
 691 610 l 1,26,27
 728 589 728 589 775 589 c 1,28,-1
 775 526 l 1,29,30
 629 316 629 316 376 316 c 0,31,32
 147 316 147 316 60 484 c 1,33,-1
 60 631 l 1,34,-1
 165 821 l 1,35,36
 116 821 116 821 102 968 c 1,37,38
 197 1326 197 1326 397 1326 c 2,0,-1
EndSplineSet
EndChar

StartChar: theta
Encoding: 952 952 128
Width: 1002
Flags: W
LayerCount: 2
Fore
SplineSet
523 1200 m 1,0,1
 628 1200 628 1200 628 1158 c 1,2,3
 669 1179 669 1179 691 1179 c 1,4,5
 923 1050 923 1050 923 800 c 1,6,7
 902 800 902 800 902 779 c 1,8,9
 923 779 923 779 923 758 c 1,10,11
 888 758 888 758 754 484 c 1,12,13
 411 126 411 126 228 126 c 0,14,15
 110 126 110 126 60 442 c 1,16,17
 100 657 100 657 376 1031 c 1,18,19
 523 1147 523 1147 523 1200 c 1,0,1
334 737 m 1,20,-1
 355 737 l 2,21,22
 754 737 754 737 754 821 c 1,23,24
 775 862 775 862 775 884 c 1,25,26
 747 1010 747 1010 670 1010 c 1,27,28
 425 890 425 890 334 737 c 1,20,-1
439 589 m 1,29,-1
 270 589 l 1,30,31
 207 576 207 576 207 421 c 2,32,-1
 207 337 l 2,33,34
 207 307 207 307 270 274 c 1,35,36
 605 501 605 501 649 610 c 1,37,-1
 439 589 l 1,29,-1
EndSplineSet
EndChar

StartChar: pi
Encoding: 960 960 129
Width: 1297
Flags: W
LayerCount: 2
Fore
SplineSet
481 1137 m 1,0,-1
 481 1115 l 1,1,-1
 523 1137 l 1,2,-1
 544 1137 l 2,3,4
 649 1137 649 1137 818 905 c 1,5,6
 967 863 967 863 986 863 c 2,7,-1
 1007 863 l 2,8,9
 1027 863 1027 863 1175 905 c 1,10,11
 1217 898 1217 898 1217 863 c 2,12,-1
 1217 842 l 2,13,14
 1217 674 1217 674 965 674 c 1,15,16
 909 626 909 626 860 337 c 1,17,-1
 881 295 l 1,18,19
 881 169 881 169 754 169 c 2,20,-1
 733 169 l 1,21,-1
 712 274 l 1,22,-1
 712 463 l 1,23,24
 749 510 749 510 775 695 c 0,25,26
 775 728 775 728 628 842 c 1,27,28
 585 968 585 968 544 968 c 2,29,-1
 418 968 l 1,30,-1
 418 926 l 1,31,32
 502 926 502 926 502 884 c 2,33,-1
 502 758 l 2,34,35
 502 530 502 530 439 295 c 1,36,-1
 460 169 l 1,37,38
 418 100 418 100 418 63 c 1,39,-1
 291 63 l 1,40,-1
 291 190 l 2,41,42
 355 660 355 660 355 800 c 2,43,-1
 355 884 l 1,44,-1
 397 947 l 1,45,-1
 376 947 l 1,46,47
 157 779 157 779 102 779 c 0,48,49
 60 779 60 779 60 821 c 2,50,-1
 60 884 l 1,51,52
 148 1026 148 1026 481 1137 c 1,0,-1
EndSplineSet
EndChar

StartChar: rho
Encoding: 961 961 130
Width: 855
Flags: W
LayerCount: 2
Fore
SplineSet
397 968 m 1,0,-1
 502 968 l 1,1,2
 775 898 775 898 775 547 c 0,3,4
 775 398 775 398 460 274 c 1,5,-1
 439 232 l 1,6,7
 317 244 317 244 249 295 c 1,8,-1
 228 295 l 1,9,-1
 228 84 l 2,10,11
 270 -223 270 -223 270 -252 c 1,12,-1
 165 -273 l 1,13,-1
 123 -273 l 1,14,-1
 60 295 l 2,15,16
 60 771 60 771 313 905 c 1,17,-1
 397 968 l 1,0,-1
228 463 m 1,18,19
 297 421 297 421 355 421 c 2,20,-1
 397 421 l 1,21,22
 586 521 586 521 586 547 c 2,23,-1
 586 695 l 1,24,25
 544 800 544 800 439 800 c 1,26,27
 228 658 228 658 228 463 c 1,18,19
EndSplineSet
EndChar

StartChar: omega
Encoding: 969 969 131
Width: 1466
Flags: W
LayerCount: 2
Fore
SplineSet
1196 884 m 0,0,1
 1330 884 1330 884 1386 610 c 1,2,-1
 1386 526 l 2,3,4
 1386 505 1386 505 1365 505 c 1,5,-1
 1386 463 l 1,6,7
 1244 126 1244 126 1091 126 c 1,8,9
 1015 63 1015 63 881 63 c 2,10,-1
 860 63 l 1,11,12
 712 162 712 162 712 211 c 1,13,14
 631 103 631 103 481 84 c 1,15,16
 60 153 60 153 60 337 c 0,17,18
 60 641 60 641 355 863 c 1,19,-1
 439 863 l 2,20,21
 469 863 469 863 502 800 c 1,22,-1
 502 737 l 1,23,24
 249 589 249 589 249 421 c 2,25,-1
 249 379 l 1,26,27
 279 274 279 274 397 274 c 2,28,-1
 523 274 l 2,29,30
 545 274 545 274 691 463 c 1,31,-1
 775 463 l 1,32,33
 872 253 872 253 944 253 c 2,34,-1
 965 253 l 1,35,36
 1217 386 1217 386 1217 568 c 2,37,-1
 1217 610 l 1,38,-1
 1070 737 l 1,39,-1
 1070 821 l 1,40,41
 1091 884 1091 884 1196 884 c 0,0,1
EndSplineSet
EndChar

StartChar: quoteleft
Encoding: 8216 8216 132
Width: 497
Flags: W
LayerCount: 2
Fore
SplineSet
207 1094 m 1,0,-1
 123 1094 l 2,1,2
 91 1094 91 1094 60 1178 c 1,3,4
 60 1393 60 1393 291 1514 c 1,5,-1
 375 1514 l 2,6,7
 417 1514 417 1514 417 1472 c 2,8,-1
 417 1430 l 1,9,10
 299 1430 299 1430 207 1199 c 1,11,-1
 228 1157 l 1,12,13
 207 1116 207 1116 207 1094 c 1,0,-1
EndSplineSet
EndChar

StartChar: quoteright
Encoding: 8217 8217 133
Width: 497
Flags: W
LayerCount: 2
Fore
SplineSet
270 1514 m 1,0,-1
 354 1514 l 2,1,2
 386 1514 386 1514 417 1430 c 1,3,4
 417 1215 417 1215 186 1094 c 1,5,-1
 102 1094 l 2,6,7
 60 1094 60 1094 60 1136 c 2,8,-1
 60 1178 l 1,9,10
 178 1178 178 1178 270 1409 c 1,11,-1
 249 1451 l 1,12,13
 270 1492 270 1492 270 1514 c 1,0,-1
EndSplineSet
EndChar

StartChar: quotedblleft
Encoding: 8220 8220 134
Width: 997
Flags: W
LayerCount: 2
Fore
SplineSet
207 1094 m 1,0,-1
 123 1094 l 2,1,2
 91 1094 91 1094 60 1178 c 1,3,4
 60 1393 60 1393 291 1514 c 1,5,-1
 375 1514 l 2,6,7
 417 1514 417 1514 417 1472 c 2,8,-1
 417 1430 l 1,9,10
 299 1430 299 1430 207 1199 c 1,11,-1
 228 1157 l 1,12,13
 207 1116 207 1116 207 1094 c 1,0,-1
707 1094 m 1,14,-1
 623 1094 l 2,15,16
 591 1094 591 1094 560 1178 c 1,17,18
 560 1393 560 1393 791 1514 c 1,19,-1
 875 1514 l 2,20,21
 917 1514 917 1514 917 1472 c 2,22,-1
 917 1430 l 1,23,24
 799 1430 799 1430 707 1199 c 1,25,-1
 728 1157 l 1,26,27
 707 1116 707 1116 707 1094 c 1,14,-1
EndSplineSet
EndChar

StartChar: quotedblright
Encoding: 8221 8221 135
Width: 997
Flags: W
LayerCount: 2
Fore
SplineSet
270 1514 m 1,0,-1
 354 1514 l 2,1,2
 386 1514 386 1514 417 1430 c 1,3,4
 417 1215 417 1215 186 1094 c 1,5,-1
 102 1094 l 2,6,7
 60 1094 60 1094 60 1136 c 2,8,-1
 60 1178 l 1,9,10
 178 1178 178 1178 270 1409 c 1,11,-1
 249 1451 l 1,12,13
 270 1492 270 1492 270 1514 c 1,0,-1
770 1514 m 1,14,-1
 854 1514 l 2,15,16
 886 1514 886 1514 917 1430 c 1,17,18
 917 1215 917 1215 686 1094 c 1,19,-1
 602 1094 l 2,20,21
 560 1094 560 1094 560 1136 c 2,22,-1
 560 1178 l 1,23,24
 678 1178 678 1178 770 1409 c 1,25,-1
 749 1451 l 1,26,27
 770 1492 770 1492 770 1514 c 1,14,-1
EndSplineSet
EndChar

StartChar: dagger
Encoding: 8224 8224 136
Width: 813
Flags: W
LayerCount: 2
Fore
SplineSet
439 1809 m 1,0,1
 523 1796 523 1796 523 1641 c 2,2,-1
 523 1598 l 1,3,-1
 670 1619 l 1,4,-1
 733 1535 l 1,5,-1
 712 1430 l 1,6,-1
 691 1430 l 2,7,8
 670 1430 670 1430 670 1451 c 1,9,10
 481 1435 481 1435 481 1325 c 1,11,-1
 502 1283 l 1,12,13
 481 1242 481 1242 481 1220 c 0,14,15
 481 1199 481 1199 502 1199 c 1,16,17
 481 946 481 946 460 946 c 1,18,19
 502 840 502 840 502 799 c 1,20,-1
 418 694 l 1,21,-1
 312 694 l 1,22,23
 312 764 312 764 291 799 c 1,24,25
 354 936 354 936 354 1136 c 2,26,-1
 354 1430 l 1,27,-1
 270 1430 l 2,28,29
 223 1430 223 1430 186 1409 c 1,30,31
 60 1452 60 1452 60 1493 c 2,32,-1
 60 1514 l 2,33,34
 60 1545 60 1545 123 1577 c 1,35,36
 145 1577 145 1577 186 1556 c 1,37,-1
 291 1577 l 1,38,39
 328 1556 328 1556 376 1556 c 1,40,-1
 376 1746 l 2,41,42
 376 1776 376 1776 439 1809 c 1,0,1
EndSplineSet
EndChar

StartChar: daggerdbl
Encoding: 8225 8225 137
Width: 771
Flags: W
LayerCount: 2
Fore
SplineSet
439 1830 m 2,0,-1
 460 1830 l 1,1,-1
 481 1704 l 1,2,3
 460 1667 460 1667 460 1619 c 1,4,-1
 502 1598 l 1,5,-1
 607 1662 l 1,6,-1
 670 1662 l 1,7,-1
 691 1556 l 1,8,9
 439 1451 439 1451 439 1409 c 1,10,-1
 397 1178 l 1,11,-1
 607 1178 l 1,12,13
 628 1137 628 1137 628 1115 c 1,14,15
 354 1007 354 1007 354 904 c 0,16,17
 354 673 354 673 249 673 c 1,18,19
 249 715 249 715 186 715 c 1,20,-1
 186 757 l 2,21,22
 186 804 186 804 207 841 c 1,23,24
 186 882 186 882 186 904 c 1,25,-1
 228 988 l 1,26,-1
 186 1009 l 1,27,28
 145 988 145 988 123 988 c 1,29,-1
 60 1073 l 1,30,-1
 60 1094 l 1,31,32
 67 1136 67 1136 102 1136 c 2,33,-1
 249 1136 l 1,34,35
 291 1294 291 1294 291 1430 c 1,36,-1
 102 1451 l 1,37,-1
 102 1535 l 2,38,39
 102 1571 102 1571 228 1598 c 1,40,41
 269 1577 269 1577 291 1577 c 1,42,43
 291 1830 291 1830 439 1830 c 2,0,-1
EndSplineSet
EndChar

StartChar: bullet
Encoding: 8226 8226 138
Width: 455
Flags: W
LayerCount: 2
Fore
SplineSet
249 988 m 2,0,-1
 291 988 l 2,1,2
 324 988 324 988 376 904 c 1,3,-1
 376 862 l 2,4,5
 376 638 376 638 249 568 c 0,6,7
 209 547 209 547 186 547 c 0,8,9
 60 547 60 547 60 736 c 2,10,-1
 60 799 l 1,11,12
 217 988 217 988 249 988 c 2,0,-1
EndSplineSet
EndChar

StartChar: uni2102
Encoding: 8450 8450 139
Width: 1445
Flags: W
LayerCount: 2
Fore
SplineSet
923 1578 m 0,0,1
 945 1578 945 1578 986 1557 c 1,2,3
 1027 1578 1027 1578 1049 1578 c 1,4,5
 1259 1521 1259 1521 1259 1473 c 0,6,7
 1259 1452 1259 1452 1302 1452 c 1,8,-1
 1281 1305 l 1,9,-1
 1154 1305 l 1,10,-1
 1007 1431 l 1,11,12
 986 1431 986 1431 986 1410 c 1,13,14
 964 1410 964 1410 923 1431 c 1,15,16
 670 1431 670 1431 670 1284 c 1,17,-1
 502 505 l 1,18,-1
 523 463 l 1,19,-1
 502 337 l 1,20,-1
 544 316 l 1,21,-1
 628 316 l 1,22,-1
 775 337 l 1,23,-1
 775 316 l 1,24,25
 1154 365 1154 365 1154 400 c 1,26,-1
 1259 379 l 1,27,-1
 1344 379 l 1,28,-1
 1365 274 l 1,29,-1
 1365 232 l 1,30,31
 795 148 795 148 565 148 c 0,32,33
 217 148 217 148 102 379 c 1,34,35
 60 516 60 516 60 568 c 0,36,37
 92 910 92 910 334 1284 c 0,38,39
 580 1578 580 1578 923 1578 c 0,0,1
460 1179 m 1,40,41
 313 979 313 979 228 589 c 1,42,43
 291 379 291 379 334 379 c 1,44,45
 334 479 334 479 481 1179 c 1,46,-1
 460 1179 l 1,40,41
EndSplineSet
EndChar

StartChar: uni2115
Encoding: 8469 8469 140
Width: 1824
Flags: W
LayerCount: 2
Fore
SplineSet
1617 1642 m 2,0,-1
 1701 1642 l 1,1,2
 1743 1635 1743 1635 1743 1599 c 2,3,-1
 1743 1578 l 1,4,5
 1638 983 1638 983 1575 400 c 1,6,7
 1509 148 1509 148 1470 148 c 2,8,-1
 1407 148 l 1,9,10
 1407 184 1407 184 1238 295 c 0,11,12
 911 554 911 554 628 968 c 1,13,-1
 607 968 l 1,14,15
 565 758 565 758 565 589 c 2,16,-1
 565 421 l 1,17,-1
 544 295 l 1,18,19
 565 260 565 260 565 190 c 2,20,-1
 565 42 l 1,21,22
 523 -42 523 -42 439 -42 c 1,23,24
 397 27 397 27 397 84 c 2,25,-1
 397 295 l 1,26,-1
 418 421 l 1,27,-1
 397 463 l 1,28,29
 431 800 431 800 460 800 c 1,30,-1
 439 842 l 1,31,32
 469 908 469 908 502 1137 c 1,33,34
 481 1177 481 1177 481 1200 c 1,35,-1
 439 1179 l 1,36,37
 439 1236 439 1236 376 1263 c 1,38,39
 313 1360 313 1360 313 1389 c 1,40,41
 270 1382 270 1382 270 1347 c 0,42,43
 249 693 249 693 249 484 c 1,44,-1
 228 484 l 1,45,-1
 249 442 l 1,46,-1
 249 379 l 1,47,-1
 228 253 l 1,48,49
 249 212 249 212 249 190 c 1,50,51
 209 94 209 94 165 84 c 1,52,-1
 60 105 l 1,53,54
 60 181 60 181 81 295 c 1,55,56
 60 336 60 336 60 358 c 1,57,58
 102 442 102 442 102 505 c 0,59,60
 102 526 102 526 81 526 c 1,61,-1
 102 631 l 1,62,-1
 102 779 l 2,63,64
 102 800 102 800 123 800 c 1,65,66
 123 821 123 821 102 821 c 1,67,-1
 165 1452 l 1,68,-1
 186 1452 l 1,69,-1
 228 1431 l 1,70,71
 264 1536 264 1536 334 1536 c 0,72,73
 363 1536 363 1536 502 1368 c 1,74,75
 508 1473 508 1473 565 1473 c 1,76,77
 649 1452 649 1452 649 1389 c 2,78,-1
 649 1179 l 1,79,-1
 1133 589 l 1,80,81
 1345 400 1345 400 1407 400 c 1,82,83
 1428 441 1428 441 1428 463 c 1,84,-1
 1407 505 l 1,85,86
 1462 505 1462 505 1554 1368 c 1,87,88
 1575 1368 1575 1368 1575 1389 c 1,89,-1
 1554 1431 l 1,90,91
 1575 1642 1575 1642 1617 1642 c 2,0,-1
EndSplineSet
EndChar

StartChar: uni211A
Encoding: 8474 8474 141
Width: 1487
Flags: W
LayerCount: 2
Fore
SplineSet
775 1557 m 2,0,-1
 860 1557 l 1,1,2
 1196 1494 1196 1494 1196 1326 c 1,3,4
 1407 1102 1407 1102 1407 821 c 2,5,-1
 1407 779 l 1,6,7
 1370 593 1370 593 1238 337 c 1,8,9
 1407 261 1407 261 1407 169 c 1,10,11
 1386 132 1386 132 1386 84 c 1,12,-1
 1323 84 l 2,13,14
 1242 84 1242 84 1112 253 c 1,15,16
 870 42 870 42 670 42 c 1,17,-1
 670 63 l 1,18,19
 629 42 629 42 607 42 c 0,20,21
 381 42 381 42 249 337 c 1,22,23
 182 337 182 337 60 674 c 1,24,25
 60 1038 60 1038 607 1473 c 0,26,27
 696 1557 696 1557 775 1557 c 2,0,-1
797 1368 m 1,28,-1
 397 463 l 1,29,30
 481 246 481 246 565 211 c 1,31,-1
 670 211 l 2,32,33
 831 211 831 211 965 337 c 1,34,35
 818 479 818 479 818 505 c 1,36,37
 839 542 839 542 839 589 c 1,38,-1
 944 589 l 1,39,40
 1091 489 1091 489 1091 463 c 1,41,42
 1259 543 1259 543 1259 905 c 1,43,44
 1203 1091 1203 1091 965 1368 c 1,45,-1
 923 1347 l 1,46,47
 898 1368 898 1368 797 1368 c 1,28,-1
523 1221 m 1,48,49
 523 1186 523 1186 313 968 c 1,50,51
 228 825 228 825 228 674 c 1,52,53
 249 633 249 633 249 610 c 1,54,-1
 270 610 l 1,55,56
 432 863 432 863 544 1200 c 1,57,-1
 544 1221 l 1,58,-1
 523 1221 l 1,48,49
EndSplineSet
EndChar

StartChar: uni211D
Encoding: 8477 8477 142
Width: 1508
Flags: W
LayerCount: 2
Fore
SplineSet
818 1726 m 1,0,1
 1133 1682 1133 1682 1133 1452 c 0,2,3
 1133 1187 1133 1187 881 842 c 1,4,-1
 881 779 l 1,5,6
 1063 690 1063 690 1281 442 c 1,7,8
 1281 463 1281 463 1302 463 c 1,9,-1
 1323 421 l 1,10,11
 1302 421 1302 421 1302 400 c 1,12,13
 1385 358 1385 358 1428 358 c 1,14,15
 1351 190 1351 190 1302 190 c 0,16,17
 1201 190 1201 190 1154 316 c 1,18,19
 1027 480 1027 480 986 484 c 1,20,21
 965 568 965 568 586 737 c 1,22,23
 586 602 586 602 565 463 c 1,24,25
 586 319 586 319 586 232 c 0,26,27
 586 21 586 21 481 21 c 1,28,-1
 376 84 l 1,29,30
 481 1081 481 1081 481 1200 c 2,31,-1
 481 1431 l 2,32,33
 481 1473 481 1473 439 1473 c 1,34,35
 439 1436 439 1436 291 1368 c 1,36,37
 291 1266 291 1266 249 842 c 1,38,39
 270 801 270 801 270 779 c 1,40,-1
 249 779 l 1,41,42
 249 758 249 758 270 758 c 1,43,44
 270 717 270 717 228 610 c 1,45,46
 249 574 249 574 249 526 c 1,47,-1
 228 526 l 1,48,49
 228 505 228 505 249 505 c 1,50,-1
 228 400 l 1,51,-1
 228 379 l 1,52,-1
 291 63 l 1,53,54
 215 0 215 0 144 0 c 0,55,56
 86 0 86 0 60 211 c 1,57,-1
 81 358 l 1,58,59
 81 379 81 379 60 379 c 1,60,-1
 144 1284 l 1,61,62
 123 1325 123 1325 123 1347 c 1,63,-1
 144 1347 l 1,64,65
 144 1368 144 1368 123 1368 c 1,66,67
 155 1599 155 1599 207 1599 c 0,68,69
 270 1599 270 1599 270 1515 c 1,70,71
 438 1663 438 1663 544 1663 c 1,72,-1
 818 1726 l 1,0,1
628 1536 m 1,73,-1
 649 1410 l 1,74,75
 628 987 628 987 607 905 c 1,76,-1
 628 905 l 2,77,78
 818 905 818 905 986 1326 c 1,79,-1
 986 1452 l 1,80,81
 932 1557 932 1557 818 1557 c 2,82,-1
 628 1536 l 1,73,-1
EndSplineSet
EndChar

StartChar: trademark
Encoding: 8482 8482 143
Width: 1570
Flags: W
LayerCount: 2
Fore
SplineSet
144 1683 m 1,0,1
 207 1662 207 1662 207 1641 c 1,2,-1
 249 1662 l 1,3,4
 272 1662 272 1662 312 1641 c 1,5,6
 456 1662 456 1662 544 1662 c 2,7,-1
 628 1662 l 2,8,9
 658 1662 658 1662 691 1598 c 1,10,11
 686 1556 686 1556 481 1493 c 1,12,13
 434 1304 434 1304 418 1304 c 1,14,-1
 439 1262 l 1,15,-1
 418 1178 l 1,16,17
 439 1137 439 1137 439 1115 c 1,18,19
 418 1074 418 1074 418 1052 c 1,20,21
 397 1052 397 1052 397 1073 c 1,22,-1
 354 1052 l 1,23,24
 326 1053 326 1053 270 1157 c 1,25,-1
 270 1199 l 2,26,27
 270 1344 270 1344 333 1514 c 1,28,29
 60 1514 60 1514 60 1641 c 1,30,-1
 144 1683 l 1,0,1
1280 1641 m 0,31,32
 1355 1641 1355 1641 1385 1472 c 1,33,34
 1406 1472 1406 1472 1406 1451 c 256,35,36
 1406 1430 1406 1430 1385 1430 c 1,37,38
 1410 1211 1410 1211 1490 1009 c 1,39,-1
 1385 1009 l 1,40,41
 1333 1052 1333 1052 1280 1052 c 1,42,-1
 1301 1094 l 1,43,44
 1259 1151 1259 1151 1238 1367 c 1,45,-1
 1217 1367 l 1,46,-1
 1049 1220 l 1,47,48
 1012 1220 1012 1220 880 1346 c 1,49,-1
 859 1346 l 1,50,51
 804 988 804 988 733 988 c 2,52,-1
 670 988 l 1,53,54
 670 1030 670 1030 649 1030 c 1,55,56
 759 1514 759 1514 796 1514 c 1,57,-1
 838 1535 l 1,58,59
 986 1484 986 1484 986 1409 c 1,60,-1
 1007 1409 l 2,61,62
 1042 1409 1042 1409 1217 1619 c 1,63,64
 1258 1641 1258 1641 1280 1641 c 0,31,32
EndSplineSet
EndChar

StartChar: onethird
Encoding: 8531 8531 144
Width: 729
Flags: W
LayerCount: 2
Fore
SplineSet
439 1515 m 1,0,-1
 439 1347 l 2,1,2
 439 1300 439 1300 460 1263 c 1,3,4
 439 1226 439 1226 439 1179 c 2,5,-1
 439 1115 l 1,6,-1
 313 1115 l 1,7,8
 313 1221 313 1221 270 1221 c 1,9,10
 270 1452 270 1452 397 1515 c 1,11,-1
 439 1515 l 1,0,-1
607 1094 m 1,12,13
 649 1043 649 1043 649 1010 c 1,14,15
 608 914 608 914 565 905 c 1,16,-1
 334 905 l 1,17,-1
 207 926 l 1,18,19
 167 905 167 905 144 905 c 1,20,-1
 102 968 l 1,21,-1
 102 989 l 1,22,23
 144 1073 144 1073 228 1073 c 2,24,-1
 481 1052 l 1,25,26
 550 1094 550 1094 607 1094 c 1,12,13
270 821 m 2,27,-1
 376 821 l 1,28,29
 480 766 480 766 481 737 c 2,30,-1
 481 653 l 1,31,-1
 460 610 l 1,32,33
 565 570 565 570 565 379 c 1,34,35
 462 84 462 84 249 84 c 1,36,-1
 60 169 l 1,37,38
 81 337 81 337 123 337 c 2,39,-1
 144 337 l 2,40,41
 186 337 186 337 186 274 c 1,42,-1
 291 274 l 2,43,44
 318 274 318 274 397 400 c 1,45,-1
 397 442 l 1,46,-1
 334 442 l 2,47,48
 224 442 224 442 207 505 c 1,49,-1
 207 547 l 2,50,51
 207 559 207 559 291 653 c 1,52,53
 144 653 144 653 144 695 c 2,54,-1
 144 758 l 1,55,56
 165 821 165 821 270 821 c 2,27,-1
EndSplineSet
EndChar

StartChar: twothirds
Encoding: 8532 8532 145
Width: 856
Flags: W
LayerCount: 2
Fore
SplineSet
418 1642 m 1,0,-1
 565 1642 l 2,1,2
 595 1642 595 1642 628 1578 c 1,3,-1
 628 1536 l 2,4,5
 628 1488 628 1488 481 1221 c 1,6,-1
 502 1221 l 2,7,8
 609 1211 609 1211 691 1115 c 1,9,-1
 691 1052 l 1,10,-1
 670 1010 l 1,11,12
 774 955 774 955 775 926 c 2,13,-1
 775 905 l 2,14,15
 774 876 774 876 670 821 c 1,16,17
 601 863 601 863 544 863 c 2,18,-1
 481 863 l 2,19,20
 345 863 345 863 186 821 c 1,21,-1
 144 884 l 1,22,-1
 144 947 l 2,23,24
 144 1010 144 1010 502 1010 c 1,25,-1
 502 1031 l 1,26,27
 270 1031 270 1031 270 1179 c 2,28,-1
 270 1221 l 1,29,-1
 439 1473 l 1,30,-1
 439 1515 l 1,31,-1
 228 1389 l 1,32,-1
 207 1389 l 2,33,34
 165 1389 165 1389 165 1431 c 0,35,36
 165 1594 165 1594 418 1642 c 1,0,-1
270 737 m 1,37,-1
 376 737 l 2,38,39
 428 737 428 737 565 695 c 1,40,-1
 565 568 l 1,41,-1
 523 505 l 1,42,43
 613 505 613 505 649 337 c 1,44,45
 649 141 649 141 376 63 c 1,46,-1
 313 63 l 2,47,48
 60 63 60 63 60 211 c 2,49,-1
 60 274 l 1,50,-1
 186 274 l 1,51,52
 186 219 186 219 291 190 c 1,53,54
 332 190 332 190 481 274 c 1,55,-1
 481 337 l 2,56,57
 481 365 481 365 291 421 c 1,58,-1
 291 484 l 2,59,60
 291 498 291 498 397 589 c 1,61,62
 321 589 321 589 207 610 c 1,63,-1
 207 653 l 1,64,65
 270 653 270 653 270 716 c 2,66,-1
 270 737 l 1,37,-1
EndSplineSet
EndChar

StartChar: uni2155
Encoding: 8533 8533 146
Width: 771
Flags: W
LayerCount: 2
Fore
SplineSet
313 1684 m 1,0,-1
 376 1684 l 2,1,2
 431 1684 431 1684 460 1515 c 1,3,-1
 460 1242 l 2,4,5
 460 1209 460 1209 376 1158 c 1,6,7
 347 1159 347 1159 291 1263 c 1,8,-1
 291 1305 l 2,9,10
 291 1326 291 1326 313 1326 c 1,11,12
 291 1367 291 1367 291 1389 c 256,13,14
 291 1411 291 1411 313 1452 c 1,15,-1
 291 1578 l 1,16,-1
 313 1684 l 1,0,-1
397 1094 m 1,17,18
 691 1094 691 1094 691 947 c 2,19,-1
 691 926 l 1,20,-1
 670 926 l 2,21,22
 600 926 600 926 565 947 c 1,23,-1
 439 926 l 1,24,25
 418 926 418 926 418 947 c 1,26,27
 397 947 397 947 397 926 c 1,28,29
 374 926 374 926 334 947 c 1,30,31
 220 926 220 926 144 926 c 2,32,-1
 102 926 l 2,33,34
 60 926 60 926 60 968 c 2,35,-1
 60 1010 l 2,36,37
 60 1041 60 1041 123 1073 c 1,38,-1
 270 1073 l 1,39,-1
 397 1094 l 1,17,18
481 863 m 1,40,-1
 523 800 l 1,41,-1
 523 758 l 2,42,43
 523 716 523 716 334 695 c 1,44,45
 334 653 334 653 291 653 c 1,46,-1
 291 631 l 1,47,-1
 334 568 l 1,48,-1
 439 589 l 1,49,50
 523 589 523 589 565 421 c 1,51,52
 528 148 528 148 186 148 c 1,53,54
 186 175 186 175 81 253 c 1,55,-1
 81 316 l 1,56,57
 102 316 102 316 102 337 c 1,58,-1
 249 316 l 1,59,-1
 313 316 l 2,60,61
 361 316 361 316 376 421 c 1,62,-1
 355 421 l 1,63,64
 318 400 318 400 270 400 c 1,65,66
 123 543 123 543 123 653 c 1,67,68
 259 863 259 863 481 863 c 1,40,-1
EndSplineSet
EndChar

StartChar: uni2156
Encoding: 8534 8534 147
Width: 708
Flags: W
LayerCount: 2
Fore
SplineSet
249 1557 m 2,0,-1
 418 1557 l 1,1,2
 418 1525 418 1525 460 1473 c 1,3,-1
 460 1452 l 2,4,5
 460 1370 460 1370 334 1200 c 1,6,-1
 334 1179 l 1,7,-1
 439 1179 l 2,8,9
 628 1179 628 1179 628 1052 c 1,10,11
 602 1021 602 1021 376 989 c 1,12,-1
 334 1010 l 1,13,-1
 144 1010 l 1,14,-1
 123 1115 l 1,15,16
 123 1132 123 1132 270 1389 c 1,17,-1
 249 1389 l 1,18,-1
 102 1368 l 1,19,-1
 60 1431 l 1,20,-1
 60 1473 l 1,21,22
 88 1557 88 1557 249 1557 c 2,0,-1
502 905 m 1,23,-1
 502 884 l 1,24,-1
 544 905 l 1,25,-1
 628 905 l 1,26,-1
 628 821 l 2,27,28
 628 774 628 774 186 716 c 2,29,-1
 144 716 l 2,30,31
 102 716 102 716 102 758 c 2,32,-1
 102 800 l 2,33,34
 102 884 102 884 502 905 c 1,23,-1
460 716 m 1,35,-1
 502 653 l 1,36,-1
 502 610 l 1,37,38
 460 526 460 526 439 526 c 1,39,40
 398 547 398 547 376 547 c 1,41,-1
 355 505 l 1,42,-1
 355 484 l 1,43,-1
 376 484 l 2,44,45
 423 484 423 484 460 505 c 1,46,47
 586 456 586 456 586 421 c 2,48,-1
 586 358 l 2,49,50
 586 199 586 199 291 21 c 1,51,-1
 228 21 l 2,52,53
 195 21 195 21 144 105 c 1,54,-1
 144 148 l 1,55,56
 270 148 270 148 376 295 c 1,57,-1
 376 316 l 1,58,59
 207 316 207 316 207 463 c 1,60,61
 165 463 165 463 165 505 c 2,62,-1
 165 568 l 2,63,64
 165 631 165 631 460 716 c 1,35,-1
EndSplineSet
EndChar

StartChar: uni2157
Encoding: 8535 8535 148
Width: 960
Flags: W
LayerCount: 2
Fore
SplineSet
460 1621 m 1,0,-1
 502 1599 l 1,1,2
 543 1621 543 1621 565 1621 c 1,3,4
 733 1597 733 1597 733 1515 c 0,5,6
 712 1365 712 1365 712 1347 c 1,7,8
 774 1347 774 1347 818 1263 c 1,9,10
 789 1010 789 1010 628 1010 c 1,11,12
 481 960 481 960 481 926 c 1,13,-1
 334 947 l 1,14,-1
 270 947 l 1,15,-1
 270 1073 l 1,16,17
 334 1073 334 1073 334 1115 c 1,18,-1
 376 1094 l 1,19,-1
 439 1137 l 1,20,-1
 481 1115 l 1,21,22
 628 1165 628 1165 628 1200 c 1,23,-1
 586 1200 l 1,24,25
 379 1158 379 1158 355 1158 c 1,26,-1
 334 1200 l 1,27,-1
 334 1284 l 1,28,-1
 565 1431 l 1,29,-1
 586 1473 l 1,30,-1
 397 1473 l 1,31,-1
 334 1431 l 1,32,-1
 291 1431 l 2,33,34
 261 1431 261 1431 228 1494 c 1,35,-1
 228 1536 l 2,36,37
 228 1584 228 1584 460 1621 c 1,0,-1
628 926 m 1,38,-1
 670 905 l 1,39,-1
 775 926 l 1,40,-1
 881 905 l 1,41,-1
 881 884 l 1,42,-1
 818 779 l 1,43,-1
 670 800 l 2,44,45
 491 800 491 800 123 695 c 1,46,47
 82 716 82 716 60 716 c 1,48,-1
 60 800 l 2,49,50
 60 852 60 852 291 884 c 1,51,-1
 291 863 l 1,52,53
 568 905 568 905 628 926 c 1,38,-1
523 758 m 1,54,-1
 628 737 l 1,55,-1
 628 695 l 2,56,57
 628 572 628 572 418 547 c 1,58,-1
 418 505 l 1,59,-1
 460 526 l 1,60,61
 481 526 481 526 481 505 c 1,62,-1
 586 526 l 1,63,64
 696 526 696 526 754 421 c 1,65,-1
 754 379 l 2,66,67
 754 358 754 358 733 358 c 1,68,-1
 754 316 l 1,69,-1
 754 295 l 1,70,71
 539 63 539 63 334 63 c 1,72,73
 249 84 249 84 249 190 c 1,74,75
 488 316 488 316 544 316 c 1,76,-1
 544 358 l 1,77,-1
 481 358 l 1,78,-1
 418 316 l 1,79,-1
 334 316 l 1,80,81
 228 388 228 388 228 484 c 0,82,83
 228 631 228 631 481 716 c 1,84,85
 487 758 487 758 523 758 c 1,54,-1
EndSplineSet
EndChar

StartChar: uni2158
Encoding: 8536 8536 149
Width: 1003
Flags: W
LayerCount: 2
Fore
SplineSet
733 1684 m 1,0,-1
 754 1642 l 1,1,2
 607 1107 607 1107 565 1052 c 1,3,-1
 586 1052 l 1,4,-1
 586 1073 l 1,5,6
 607 1073 607 1073 607 1052 c 1,7,8
 797 1094 797 1094 881 1094 c 1,9,-1
 923 1031 l 1,10,-1
 923 1010 l 2,11,12
 923 980 923 980 860 947 c 1,13,-1
 712 968 l 1,14,15
 636 926 636 926 81 779 c 1,16,-1
 60 884 l 1,17,18
 401 1010 401 1010 481 1010 c 1,19,-1
 460 1221 l 1,20,-1
 313 1200 l 1,21,22
 123 1200 123 1200 123 1326 c 1,23,24
 171 1599 171 1599 291 1599 c 1,25,-1
 334 1536 l 1,26,27
 291 1400 291 1400 291 1347 c 1,28,29
 313 1347 313 1347 313 1326 c 1,30,31
 607 1396 607 1396 607 1578 c 1,32,33
 628 1684 628 1684 733 1684 c 1,0,-1
565 800 m 1,34,-1
 586 800 l 1,35,-1
 691 779 l 1,36,37
 691 647 691 647 460 610 c 1,38,-1
 460 568 l 1,39,-1
 607 589 l 1,40,41
 775 589 775 589 775 442 c 0,42,43
 775 294 775 294 397 84 c 1,44,45
 397 63 397 63 376 63 c 1,46,-1
 334 84 l 1,47,48
 297 63 297 63 249 63 c 0,49,50
 219 63 219 63 186 126 c 1,51,-1
 186 148 l 1,52,-1
 544 379 l 1,53,-1
 565 421 l 1,54,-1
 544 421 l 1,55,56
 438 337 438 337 376 337 c 1,57,58
 376 379 376 379 313 379 c 1,59,-1
 313 421 l 2,60,61
 313 474 313 474 270 610 c 1,62,63
 270 684 270 684 565 800 c 1,34,-1
EndSplineSet
EndChar

StartChar: uni2159
Encoding: 8537 8537 150
Width: 961
Flags: W
LayerCount: 2
Fore
SplineSet
502 1599 m 1,0,1
 502 1567 502 1567 544 1515 c 1,2,-1
 544 1115 l 1,3,-1
 502 1052 l 1,4,-1
 797 1052 l 1,5,6
 881 1009 881 1009 881 947 c 1,7,8
 860 884 860 884 839 884 c 1,9,10
 550 926 550 926 523 926 c 1,11,-1
 439 905 l 1,12,13
 418 905 418 905 418 926 c 1,14,-1
 102 884 l 1,15,-1
 60 947 l 1,16,-1
 60 968 l 2,17,18
 60 1022 60 1022 249 1052 c 1,19,-1
 249 1031 l 1,20,21
 255 1052 255 1052 460 1052 c 1,22,-1
 397 1137 l 1,23,-1
 397 1389 l 2,24,25
 397 1431 397 1431 460 1431 c 1,26,-1
 460 1557 l 1,27,28
 466 1599 466 1599 502 1599 c 1,0,1
334 800 m 1,29,-1
 439 800 l 2,30,31
 469 800 469 800 502 737 c 1,32,33
 391 613 391 613 376 463 c 2,34,-1
 376 358 l 1,35,-1
 418 358 l 1,36,37
 473 610 473 610 670 610 c 2,38,-1
 691 610 l 1,39,40
 691 547 691 547 775 547 c 1,41,-1
 775 484 l 2,42,43
 775 371 775 371 586 211 c 1,44,45
 586 169 586 169 460 169 c 0,46,47
 292 169 292 169 249 379 c 1,48,49
 270 420 270 420 270 442 c 1,50,51
 249 483 249 483 249 505 c 1,52,-1
 270 505 l 1,53,-1
 249 547 l 1,54,55
 277 674 277 674 334 674 c 1,56,-1
 334 800 l 1,29,-1
EndSplineSet
EndChar

StartChar: uni215A
Encoding: 8538 8538 151
Width: 1065
Flags: W
LayerCount: 2
Fore
SplineSet
670 1810 m 1,0,1
 754 1778 754 1778 754 1747 c 2,2,-1
 754 1705 l 1,3,4
 515 1705 515 1705 481 1515 c 1,5,-1
 649 1515 l 2,6,7
 860 1489 860 1489 860 1431 c 2,8,-1
 860 1305 l 2,9,10
 854 1245 854 1245 544 1115 c 1,11,-1
 544 1094 l 1,12,-1
 733 1094 l 2,13,14
 986 1094 986 1094 986 968 c 1,15,-1
 965 968 l 1,16,-1
 881 926 l 1,17,-1
 881 968 l 1,18,19
 818 968 818 968 818 947 c 1,20,-1
 712 968 l 1,21,-1
 628 968 l 2,22,23
 181 905 181 905 81 905 c 1,24,-1
 60 947 l 1,25,-1
 60 989 l 2,26,27
 60 1019 60 1019 123 1052 c 1,28,29
 144 1052 144 1052 144 1031 c 1,30,31
 255 1073 255 1073 439 1094 c 1,32,-1
 439 1115 l 1,33,-1
 397 1115 l 1,34,-1
 397 1179 l 1,35,-1
 670 1368 l 1,36,-1
 502 1368 l 1,37,-1
 355 1326 l 1,38,-1
 291 1410 l 1,39,-1
 291 1494 l 1,40,41
 397 1755 397 1755 460 1768 c 0,42,43
 543 1789 543 1789 607 1789 c 1,44,45
 607 1768 607 1768 628 1768 c 1,46,47
 635 1810 635 1810 670 1810 c 1,0,1
460 821 m 1,48,-1
 586 821 l 1,49,50
 460 487 460 487 460 421 c 1,51,-1
 481 421 l 1,52,53
 657 618 657 618 712 631 c 1,54,-1
 733 631 l 1,55,56
 786 589 786 589 839 589 c 1,57,-1
 839 463 l 1,58,59
 812 373 812 373 586 211 c 1,60,-1
 586 190 l 1,61,-1
 565 190 l 2,62,63
 376 190 376 190 313 463 c 1,64,65
 346 644 346 644 460 821 c 1,48,-1
EndSplineSet
EndChar

StartChar: arrowright
Encoding: 8594 8594 152
Width: 1613
Flags: W
LayerCount: 2
Fore
SplineSet
1238 1158 m 1,0,1
 1533 848 1533 848 1533 821 c 1,2,3
 1449 705 1449 705 1344 358 c 1,4,-1
 1281 316 l 1,5,-1
 1238 316 l 2,6,7
 1197 316 1197 316 1154 442 c 1,8,-1
 1281 695 l 1,9,-1
 1281 758 l 1,10,-1
 1091 716 l 1,11,12
 1027 716 1027 716 944 737 c 1,13,-1
 102 653 l 1,14,-1
 60 716 l 1,15,-1
 60 737 l 1,16,17
 123 789 123 789 123 821 c 1,18,-1
 249 821 l 2,19,20
 270 821 270 821 270 800 c 1,21,-1
 502 863 l 1,22,23
 523 863 523 863 523 842 c 1,24,25
 783 878 783 878 1175 905 c 1,26,27
 1091 1023 1091 1023 1091 1094 c 1,28,29
 1168 1158 1168 1158 1238 1158 c 1,0,1
EndSplineSet
EndChar

StartChar: arrowboth
Encoding: 8596 8596 153
Width: 2308
Flags: W
LayerCount: 2
Fore
SplineSet
439 1200 m 2,0,-1
 481 1200 l 2,1,2
 514 1200 514 1200 565 1115 c 1,3,4
 355 821 355 821 355 758 c 1,5,-1
 376 758 l 2,6,7
 617 758 617 758 944 821 c 1,8,-1
 1049 800 l 1,9,10
 1412 842 1412 842 1491 842 c 1,11,-1
 1491 821 l 1,12,13
 1612 863 1612 863 1975 884 c 1,14,15
 1828 1058 1828 1058 1828 1137 c 0,16,17
 1828 1167 1828 1167 1891 1200 c 1,18,19
 2227 970 2227 970 2227 821 c 2,20,-1
 2227 779 l 1,21,22
 2127 647 2127 647 2017 337 c 1,23,-1
 1912 316 l 1,24,25
 1870 385 1870 385 1870 442 c 1,26,27
 1975 705 1975 705 1975 716 c 1,28,-1
 1933 737 l 1,29,-1
 1828 716 l 1,30,-1
 1828 737 l 1,31,-1
 1175 653 l 2,32,33
 1154 653 1154 653 1154 674 c 1,34,35
 452 589 452 589 355 589 c 1,36,37
 355 610 355 610 334 610 c 1,38,-1
 313 568 l 1,39,40
 544 476 544 476 544 316 c 1,41,42
 515 211 515 211 397 211 c 1,43,-1
 397 253 l 1,44,-1
 355 232 l 1,45,-1
 334 232 l 1,46,-1
 334 253 l 2,47,48
 334 274 334 274 355 274 c 1,49,50
 355 327 355 327 60 568 c 1,51,-1
 60 589 l 2,52,53
 60 647 60 647 376 1115 c 1,54,55
 386 1200 386 1200 439 1200 c 2,0,-1
EndSplineSet
EndChar

StartChar: arrowupdn
Encoding: 8597 8597 154
Width: 2308
Flags: W
LayerCount: 2
Fore
SplineSet
649 1 m 2,0,-1
 649 43 l 2,1,2
 649 76 649 76 734 127 c 1,3,4
 1028 -83 1028 -83 1091 -83 c 1,5,-1
 1091 -62 l 2,6,7
 1091 179 1091 179 1028 506 c 1,8,-1
 1049 611 l 1,9,10
 1007 974 1007 974 1007 1053 c 1,11,-1
 1028 1053 l 1,12,13
 986 1174 986 1174 965 1537 c 1,14,15
 791 1390 791 1390 712 1390 c 0,16,17
 682 1390 682 1390 649 1453 c 1,18,19
 879 1789 879 1789 1028 1789 c 2,20,-1
 1070 1789 l 1,21,22
 1202 1689 1202 1689 1512 1579 c 1,23,-1
 1533 1474 l 1,24,25
 1464 1432 1464 1432 1407 1432 c 1,26,27
 1144 1537 1144 1537 1133 1537 c 1,28,-1
 1112 1495 l 1,29,-1
 1133 1390 l 1,30,-1
 1112 1390 l 1,31,-1
 1196 737 l 2,32,33
 1196 716 1196 716 1175 716 c 1,34,35
 1260 14 1260 14 1260 -83 c 1,36,37
 1239 -83 1239 -83 1239 -104 c 1,38,-1
 1281 -125 l 1,39,40
 1373 106 1373 106 1533 106 c 1,41,42
 1638 77 1638 77 1638 -41 c 1,43,-1
 1596 -41 l 1,44,-1
 1617 -83 l 1,45,-1
 1617 -104 l 1,46,-1
 1596 -104 l 2,47,48
 1575 -104 1575 -104 1575 -83 c 1,49,50
 1522 -83 1522 -83 1281 -378 c 1,51,-1
 1260 -378 l 2,52,53
 1202 -378 1202 -378 734 -62 c 1,54,55
 649 -52 649 -52 649 1 c 2,0,-1
EndSplineSet
EndChar

StartChar: universal
Encoding: 8704 8704 155
Width: 1340
Flags: W
LayerCount: 2
Fore
SplineSet
123 1578 m 0,0,1
 220 1577 220 1577 460 989 c 1,2,-1
 712 968 l 1,3,-1
 818 968 l 1,4,-1
 881 1052 l 2,5,6
 977 1207 977 1207 1049 1452 c 1,7,8
 1098 1515 1098 1515 1175 1536 c 1,9,10
 1212 1515 1212 1515 1259 1515 c 1,11,12
 1259 1494 1259 1494 1238 1494 c 1,13,-1
 1259 1452 l 1,14,-1
 1259 1347 l 1,15,16
 1202 1347 1202 1347 1175 1284 c 1,17,18
 1027 1066 1027 1066 965 800 c 1,19,20
 883 800 883 800 754 421 c 0,21,22
 678 211 678 211 565 211 c 0,23,24
 460 211 460 211 460 358 c 1,25,-1
 481 358 l 1,26,27
 481 613 481 613 60 1494 c 1,28,29
 92 1578 92 1578 123 1578 c 0,0,1
502 821 m 1,30,31
 593 526 593 526 628 526 c 1,32,33
 754 772 754 772 754 800 c 1,34,35
 691 800 691 800 691 821 c 1,36,-1
 649 800 l 1,37,-1
 523 821 l 1,38,-1
 502 821 l 1,30,31
EndSplineSet
EndChar

StartChar: existential
Encoding: 8707 8707 156
Width: 1108
Flags: W
LayerCount: 2
Fore
SplineSet
165 1599 m 1,0,1
 510 1557 510 1557 691 1557 c 2,2,-1
 839 1578 l 1,3,4
 839 1557 839 1557 860 1557 c 1,5,6
 866 1599 866 1599 902 1599 c 2,7,-1
 944 1599 l 2,8,9
 994 1599 994 1599 1028 1431 c 1,10,11
 1028 1410 1028 1410 1007 1410 c 1,12,-1
 1028 1326 l 1,13,14
 1000 968 1000 968 965 968 c 1,15,16
 965 947 965 947 986 947 c 1,17,18
 936 547 936 547 923 547 c 1,19,20
 923 526 923 526 944 526 c 1,21,-1
 923 379 l 1,22,-1
 923 358 l 1,23,-1
 944 232 l 1,24,25
 944 105 944 105 523 105 c 2,26,-1
 439 105 l 1,27,-1
 376 63 l 1,28,29
 355 63 355 63 355 84 c 1,30,-1
 249 63 l 1,31,-1
 186 63 l 2,32,33
 60 63 60 63 60 148 c 1,34,35
 74 203 74 203 165 253 c 1,36,-1
 249 211 l 1,37,-1
 754 295 l 1,38,39
 775 526 775 526 797 526 c 1,40,41
 775 567 775 567 775 589 c 1,42,43
 797 630 797 630 797 653 c 1,44,45
 775 653 775 653 775 674 c 1,46,-1
 733 653 l 1,47,-1
 586 653 l 2,48,49
 565 653 565 653 565 674 c 1,50,51
 544 674 544 674 544 653 c 1,52,53
 348 674 348 674 249 716 c 1,54,-1
 249 779 l 2,55,56
 249 827 249 827 355 842 c 1,57,-1
 397 821 l 1,58,59
 437 842 437 842 460 842 c 1,60,-1
 460 821 l 1,61,62
 501 842 501 842 523 842 c 1,63,-1
 565 821 l 1,64,65
 586 821 586 821 586 842 c 1,66,-1
 818 800 l 1,67,-1
 818 821 l 2,68,69
 818 1070 818 1070 881 1284 c 1,70,71
 853 1410 853 1410 818 1410 c 2,72,-1
 460 1410 l 2,73,74
 354 1410 354 1410 144 1431 c 1,75,-1
 123 1578 l 1,76,-1
 165 1599 l 1,0,1
EndSplineSet
EndChar

StartChar: element
Encoding: 8712 8712 157
Width: 939
Flags: W
LayerCount: 2
Fore
SplineSet
565 1158 m 1,0,1
 670 1131 670 1131 670 1094 c 2,2,-1
 670 989 l 1,3,4
 424 989 424 989 291 779 c 1,5,6
 355 779 355 779 355 758 c 1,7,8
 534 779 534 779 607 842 c 1,9,-1
 649 842 l 1,10,11
 691 835 691 835 691 800 c 2,12,-1
 691 779 l 1,13,-1
 565 631 l 1,14,15
 228 631 228 631 228 568 c 1,16,17
 349 400 349 400 523 400 c 0,18,19
 602 400 602 400 754 484 c 1,20,21
 860 455 860 455 860 337 c 1,22,23
 754 274 754 274 565 232 c 1,24,25
 81 288 81 288 81 568 c 1,26,27
 60 568 60 568 60 589 c 0,28,29
 60 855 60 855 397 1073 c 2,30,-1
 439 1094 l 1,31,32
 480 1073 480 1073 502 1073 c 1,33,34
 565 1126 565 1126 565 1158 c 1,0,1
EndSplineSet
EndChar

StartChar: notelement
Encoding: 8713 8713 158
Width: 1087
Flags: W
LayerCount: 2
Fore
SplineSet
775 1410 m 1,0,-1
 839 1410 l 1,1,-1
 839 1389 l 1,2,-1
 754 1115 l 1,3,4
 818 1115 818 1115 818 1010 c 2,5,-1
 818 989 l 2,6,7
 818 947 818 947 775 947 c 2,8,-1
 733 947 l 1,9,-1
 691 968 l 1,10,11
 607 789 607 789 607 737 c 2,12,-1
 607 716 l 1,13,14
 712 716 712 716 712 653 c 0,15,16
 712 578 712 578 544 547 c 1,17,18
 544 505 544 505 481 400 c 1,19,-1
 523 400 l 2,20,21
 691 400 691 400 839 526 c 1,22,-1
 860 526 l 2,23,24
 973 526 973 526 1007 442 c 1,25,26
 1007 326 1007 326 628 253 c 1,27,28
 628 232 628 232 586 232 c 1,29,-1
 586 253 l 1,30,31
 355 253 355 253 355 -21 c 1,32,-1
 397 -21 l 1,33,-1
 397 -105 l 1,34,35
 365 -105 365 -105 313 -168 c 1,36,-1
 249 -168 l 1,37,38
 249 -131 249 -131 207 -63 c 1,39,-1
 228 -21 l 1,40,41
 207 20 207 20 207 42 c 1,42,43
 248 42 248 42 313 274 c 1,44,45
 60 379 60 379 60 547 c 2,46,-1
 60 589 l 2,47,48
 60 786 60 786 481 1052 c 1,49,50
 628 1052 628 1052 733 1389 c 1,51,-1
 775 1410 l 1,0,-1
270 695 m 1,52,-1
 376 716 l 1,53,54
 397 716 397 716 397 695 c 1,55,56
 486 695 486 695 523 884 c 1,57,58
 544 884 544 884 544 926 c 1,59,60
 314 804 314 804 270 695 c 1,52,-1
291 526 m 1,61,62
 251 547 251 547 228 547 c 1,63,-1
 228 505 l 1,64,65
 313 505 313 505 313 421 c 1,66,67
 397 455 397 455 397 568 c 1,68,-1
 291 526 l 1,61,62
EndSplineSet
EndChar

StartChar: product
Encoding: 8719 8719 159
Width: 1781
Flags: W
LayerCount: 2
Fore
SplineSet
144 1536 m 1,0,1
 281 1473 281 1473 397 1473 c 0,2,3
 844 1473 844 1473 1133 1515 c 1,4,5
 1302 1501 1302 1501 1302 1473 c 1,6,-1
 1344 1494 l 1,7,-1
 1659 1494 l 1,8,-1
 1701 1347 l 1,9,10
 1670 1310 1670 1310 1428 1284 c 1,11,-1
 1302 1305 l 1,12,-1
 1238 1305 l 1,13,-1
 1238 1263 l 2,14,15
 1238 1078 1238 1078 1175 737 c 1,16,17
 1196 716 1196 716 1217 400 c 1,18,-1
 1196 358 l 1,19,-1
 1217 232 l 1,20,-1
 1217 148 l 2,21,22
 1217 84 1217 84 1133 84 c 1,23,24
 1077 98 1077 98 1028 190 c 1,25,-1
 1028 274 l 2,26,27
 1028 295 1028 295 1049 295 c 1,28,-1
 1007 442 l 1,29,30
 1049 668 1049 668 1049 1305 c 1,31,32
 1007 1305 1007 1305 1007 1326 c 1,33,-1
 965 1305 l 1,34,-1
 923 1305 l 2,35,36
 860 1305 860 1305 860 1326 c 1,37,-1
 754 1305 l 1,38,-1
 628 1305 l 1,39,40
 586 1055 586 1055 565 758 c 1,41,-1
 586 716 l 1,42,43
 565 505 565 505 544 505 c 1,44,-1
 565 463 l 1,45,-1
 565 400 l 2,46,47
 565 379 565 379 544 379 c 1,48,-1
 565 337 l 1,49,-1
 565 126 l 2,50,51
 565 84 565 84 523 84 c 2,52,-1
 439 84 l 1,53,54
 376 250 376 250 376 274 c 1,55,-1
 397 379 l 1,56,57
 397 400 397 400 376 400 c 1,58,59
 402 626 402 626 418 674 c 1,60,61
 418 695 418 695 397 695 c 1,62,-1
 418 800 l 1,63,64
 439 1287 439 1287 439 1305 c 1,65,66
 60 1326 60 1326 60 1431 c 2,67,-1
 60 1452 l 2,68,69
 60 1485 60 1485 144 1536 c 1,0,1
EndSplineSet
EndChar

StartChar: uni2210
Encoding: 8720 8720 160
Width: 1781
Flags: W
LayerCount: 2
Fore
SplineSet
144 84 m 1,0,1
 60 135 60 135 60 168 c 2,2,-1
 60 189 l 2,3,4
 60 294 60 294 439 315 c 1,5,6
 439 333 439 333 418 820 c 1,7,-1
 397 925 l 1,8,9
 418 925 418 925 418 946 c 1,10,11
 402 994 402 994 376 1220 c 1,12,13
 397 1220 397 1220 397 1241 c 1,14,-1
 376 1346 l 1,15,16
 376 1370 376 1370 439 1536 c 1,17,-1
 523 1536 l 2,18,19
 565 1536 565 1536 565 1494 c 2,20,-1
 565 1283 l 1,21,-1
 544 1241 l 1,22,23
 565 1241 565 1241 565 1220 c 2,24,-1
 565 1157 l 1,25,-1
 544 1115 l 1,26,27
 565 1115 565 1115 586 904 c 1,28,-1
 565 862 l 1,29,30
 586 565 586 565 628 315 c 1,31,-1
 754 315 l 1,32,-1
 860 294 l 1,33,34
 860 315 860 315 923 315 c 2,35,36
 965 315 l 1,37,-1
 1007 294 l 1,38,39
 1007 315 1007 315 1049 315 c 1,40,41
 1049 952 1049 952 1007 1178 c 1,42,-1
 1049 1325 l 1,43,44
 1028 1325 1028 1325 1028 1346 c 2,45,-1
 1028 1430 l 1,46,47
 1077 1522 1077 1522 1133 1536 c 1,48,49
 1217 1536 1217 1536 1217 1472 c 2,50,-1
 1217 1388 l 1,51,-1
 1196 1262 l 1,52,-1
 1217 1220 l 1,53,54
 1196 904 1196 904 1175 883 c 1,55,56
 1238 542 1238 542 1238 357 c 2,57,-1
 1238 315 l 1,58,-1
 1302 315 l 1,59,-1
 1428 336 l 1,60,61
 1670 310 1670 310 1701 273 c 1,62,-1
 1659 126 l 1,63,-1
 1344 126 l 1,64,-1
 1302 147 l 1,65,66
 1302 119 1302 119 1133 105 c 1,67,68
 844 147 844 147 397 147 c 0,69,70
 281 147 281 147 144 84 c 1,0,1
EndSplineSet
EndChar

StartChar: summation
Encoding: 8721 8721 161
Width: 1298
Flags: W
LayerCount: 2
Fore
SplineSet
1070 1663 m 1,0,1
 1217 1663 1217 1663 1217 1515 c 1,2,3
 1141 1431 1141 1431 1049 1431 c 0,4,5
 1002 1431 1002 1431 965 1452 c 1,6,-1
 818 1431 l 1,7,8
 698 1431 698 1431 565 1473 c 1,9,10
 524 1452 524 1452 502 1452 c 1,11,-1
 502 1473 l 1,12,13
 470 1452 470 1452 376 1452 c 1,14,15
 499 926 499 926 607 926 c 1,16,-1
 628 779 l 1,17,-1
 628 758 l 1,18,19
 459 525 459 525 313 253 c 1,20,21
 350 232 350 232 754 190 c 1,22,-1
 797 211 l 1,23,24
 833 190 833 190 881 190 c 1,25,-1
 923 211 l 1,26,27
 1112 158 1112 158 1112 84 c 2,28,-1
 1112 42 l 2,29,30
 1112 12 1112 12 1049 -21 c 1,31,-1
 902 0 l 1,32,33
 902 -21 902 -21 881 -21 c 1,34,-1
 881 21 l 1,35,36
 375 42 375 42 81 105 c 1,37,38
 81 121 81 121 60 232 c 1,39,40
 94 232 94 232 228 505 c 1,41,42
 418 715 418 715 418 821 c 1,43,-1
 165 1452 l 1,44,45
 123 1452 123 1452 123 1494 c 2,46,-1
 123 1557 l 2,47,48
 123 1608 123 1608 313 1621 c 0,49,50
 335 1621 335 1621 376 1599 c 1,51,-1
 502 1621 l 1,52,-1
 565 1621 l 2,53,54
 641 1621 641 1621 754 1599 c 1,55,-1
 797 1621 l 1,56,57
 837 1599 837 1599 860 1599 c 1,58,-1
 1070 1663 l 1,0,1
EndSplineSet
EndChar

StartChar: uni2213
Encoding: 8723 8723 162
Width: 1045
Flags: W
LayerCount: 2
Fore
SplineSet
249 1305 m 0,0,1
 399 1284 399 1284 418 1284 c 0,2,3
 439 1284 439 1284 439 1305 c 1,4,-1
 544 1284 l 1,5,6
 666 1284 666 1284 881 1305 c 1,7,8
 965 1284 965 1284 965 1179 c 1,9,-1
 860 1115 l 1,10,11
 509 1143 509 1143 481 1158 c 1,12,-1
 439 1137 l 1,13,14
 295 1158 295 1158 207 1158 c 1,15,16
 167 1137 167 1137 144 1137 c 1,17,18
 108 1221 108 1221 60 1221 c 1,19,20
 88 1305 88 1305 249 1305 c 0,0,1
523 884 m 1,21,22
 553 884 553 884 586 821 c 1,23,-1
 586 758 l 2,24,25
 586 737 586 737 565 737 c 1,26,27
 586 696 586 696 586 674 c 1,28,29
 565 633 565 633 565 610 c 1,30,-1
 586 610 l 2,31,32
 631 610 631 610 818 631 c 1,33,-1
 881 505 l 1,34,35
 849 505 849 505 797 442 c 1,36,-1
 586 442 l 1,37,-1
 544 421 l 1,38,-1
 565 379 l 1,39,-1
 565 358 l 2,40,41
 565 337 565 337 544 337 c 1,42,-1
 565 295 l 1,43,44
 565 262 565 262 481 211 c 1,45,-1
 397 211 l 1,46,-1
 376 295 l 1,47,-1
 397 295 l 1,48,-1
 376 337 l 1,49,-1
 376 421 l 1,50,-1
 397 463 l 1,51,52
 165 463 165 463 165 505 c 2,53,-1
 165 589 l 1,54,-1
 270 610 l 1,55,-1
 418 610 l 1,56,57
 418 658 418 658 439 695 c 1,58,-1
 418 821 l 1,59,-1
 418 863 l 1,60,-1
 523 884 l 1,21,22
EndSplineSet
EndChar

StartChar: uni2218
Encoding: 8728 8728 163
Width: 793
Flags: W
LayerCount: 2
Fore
SplineSet
523 1094 m 1,0,1
 712 1005 712 1005 712 800 c 1,2,3
 649 463 649 463 376 463 c 2,4,-1
 313 463 l 1,5,6
 60 525 60 525 60 758 c 1,7,8
 139 1094 139 1094 397 1094 c 2,9,-1
 523 1094 l 1,0,1
228 695 m 1,10,-1
 334 631 l 1,11,12
 490 631 490 631 544 779 c 1,13,14
 523 905 523 905 481 905 c 2,15,-1
 439 905 l 1,16,17
 392 867 392 867 249 842 c 1,18,-1
 228 695 l 1,10,-1
EndSplineSet
EndChar

StartChar: radical
Encoding: 8730 8730 164
Width: 1403
Flags: W
LayerCount: 2
Fore
SplineSet
1281 1705 m 1,0,-1
 1323 1642 l 1,1,2
 1323 1558 1323 1558 1217 1494 c 1,3,-1
 1112 1515 l 1,4,5
 1078 1515 1078 1515 860 1494 c 1,6,7
 860 1444 860 1444 733 1368 c 1,8,-1
 733 1347 l 1,9,10
 754 1347 754 1347 754 1326 c 1,11,12
 676 1326 676 1326 565 695 c 1,13,14
 376 200 376 200 376 148 c 1,15,16
 311 126 311 126 249 126 c 1,17,18
 178 180 178 180 60 758 c 1,19,20
 129 800 129 800 186 800 c 1,21,22
 270 620 270 620 270 484 c 1,23,-1
 313 463 l 1,24,25
 523 1245 523 1245 670 1621 c 1,26,27
 1012 1705 1012 1705 1070 1705 c 1,28,-1
 1070 1684 l 1,29,30
 1070 1705 1070 1705 1281 1705 c 1,0,-1
EndSplineSet
EndChar

StartChar: uni221B
Encoding: 8731 8731 165
Width: 1697
Flags: W
LayerCount: 2
Fore
SplineSet
355 1621 m 1,0,1
 510 1621 510 1621 607 1347 c 1,2,3
 637 1347 637 1347 733 1221 c 1,4,-1
 733 1158 l 1,5,6
 539 884 539 884 355 884 c 1,7,-1
 144 926 l 1,8,9
 196 1073 196 1073 334 1073 c 1,10,-1
 334 1052 l 1,11,12
 492 1108 492 1108 502 1158 c 1,13,-1
 502 1179 l 1,14,-1
 313 1158 l 1,15,-1
 270 1221 l 1,16,-1
 270 1284 l 1,17,18
 313 1368 313 1368 397 1368 c 1,19,-1
 397 1410 l 1,20,-1
 270 1494 l 1,21,-1
 270 1536 l 2,22,23
 270 1569 270 1569 355 1621 c 1,0,1
1070 1621 m 1,24,-1
 1238 1578 l 1,25,26
 1275 1599 1275 1599 1323 1599 c 1,27,-1
 1323 1578 l 1,28,29
 1435 1621 1435 1621 1554 1621 c 1,30,-1
 1617 1494 l 1,31,32
 1609 1438 1609 1438 1512 1410 c 1,33,-1
 1428 1431 l 1,34,-1
 1281 1410 l 1,35,36
 1244 1431 1244 1431 1196 1431 c 1,37,38
 1091 1392 1091 1392 733 379 c 1,39,40
 686 371 686 371 586 42 c 1,41,-1
 460 42 l 2,42,43
 430 42 430 42 397 105 c 1,44,-1
 397 126 l 1,45,-1
 418 169 l 1,46,47
 391 169 391 169 270 484 c 1,48,49
 245 488 245 488 60 716 c 1,50,-1
 60 737 l 2,51,52
 60 767 60 767 123 800 c 1,53,-1
 186 800 l 1,54,55
 270 765 270 765 376 547 c 1,56,57
 481 479 481 479 481 337 c 1,58,-1
 544 337 l 1,59,60
 544 380 544 380 818 1010 c 0,61,62
 1000 1536 1000 1536 1070 1621 c 1,24,-1
EndSplineSet
EndChar

StartChar: uni221C
Encoding: 8732 8732 166
Width: 1865
Flags: W
LayerCount: 2
Fore
SplineSet
965 1684 m 1,0,1
 1175 1663 1175 1663 1217 1621 c 1,2,-1
 1449 1621 l 2,3,4
 1519 1621 1519 1621 1743 1663 c 1,5,6
 1764 1599 1764 1599 1786 1599 c 1,7,8
 1786 1553 1786 1553 1722 1389 c 1,9,10
 1617 1389 1617 1389 1617 1452 c 1,11,-1
 1596 1452 l 2,12,13
 1575 1452 1575 1452 1575 1431 c 1,14,-1
 1533 1452 l 1,15,-1
 1491 1452 l 2,16,17
 1354 1452 1354 1452 1070 1473 c 1,18,19
 818 861 818 861 670 421 c 0,20,21
 547 53 547 53 502 42 c 1,22,-1
 439 42 l 2,23,24
 402 47 402 47 228 505 c 1,25,26
 214 505 214 505 60 758 c 1,27,-1
 60 821 l 1,28,29
 67 863 67 863 102 863 c 2,30,-1
 207 863 l 1,31,32
 439 432 439 432 439 358 c 1,33,-1
 481 358 l 1,34,35
 754 1003 754 1003 944 1663 c 1,36,37
 965 1663 965 1663 965 1684 c 1,0,1
270 1663 m 0,38,39
 323 1663 323 1663 376 1452 c 1,40,-1
 397 1452 l 1,41,42
 482 1660 482 1660 523 1663 c 2,43,-1
 565 1663 l 2,44,45
 607 1663 607 1663 607 1599 c 0,46,47
 607 1488 607 1488 523 1137 c 1,48,49
 544 1100 544 1100 544 1052 c 0,50,51
 544 1024 544 1024 439 947 c 1,52,-1
 376 1031 l 1,53,54
 355 1031 355 1031 355 1052 c 1,55,-1
 376 1094 l 1,56,57
 376 1131 376 1131 334 1221 c 1,58,-1
 376 1221 l 1,59,-1
 376 1284 l 1,60,-1
 228 1263 l 1,61,-1
 207 1263 l 2,62,63
 144 1263 144 1263 123 1431 c 1,64,65
 241 1660 241 1660 270 1663 c 0,38,39
EndSplineSet
EndChar

StartChar: angle
Encoding: 8736 8736 167
Width: 1066
Flags: W
LayerCount: 2
Fore
SplineSet
607 1031 m 2,0,-1
 691 1031 l 1,1,-1
 712 926 l 1,2,3
 541 564 541 564 313 190 c 1,4,-1
 313 148 l 1,5,-1
 439 148 l 2,6,7
 486 148 486 148 523 169 c 1,8,-1
 565 148 l 1,9,10
 850 210 850 210 923 211 c 1,11,-1
 986 126 l 1,12,-1
 986 84 l 1,13,-1
 923 0 l 1,14,15
 900 0 900 0 860 21 c 1,16,17
 645 0 645 0 523 0 c 2,18,-1
 418 0 l 2,19,20
 370 0 370 0 334 -21 c 1,21,22
 60 0 60 0 60 84 c 0,23,24
 60 130 60 130 481 737 c 1,25,26
 572 1031 572 1031 607 1031 c 2,0,-1
EndSplineSet
EndChar

StartChar: uni2223
Encoding: 8739 8739 168
Width: 434
Flags: W
LayerCount: 2
Fore
SplineSet
228 1956 m 1,0,-1
 354 1956 l 1,1,-1
 354 1935 l 2,2,3
 354 1524 354 1524 291 967 c 0,4,5
 291 946 291 946 312 946 c 1,6,7
 270 611 270 611 270 189 c 1,8,-1
 249 189 l 1,9,10
 249 168 249 168 270 168 c 1,11,-1
 249 63 l 1,12,-1
 249 -84 l 2,13,14
 249 -105 249 -105 228 -105 c 1,15,16
 228 -126 228 -126 249 -126 c 1,17,18
 233 -337 233 -337 186 -337 c 2,19,-1
 123 -337 l 2,20,21
 93 -337 93 -337 60 -274 c 1,22,23
 123 -33 123 -33 186 1451 c 1,24,25
 207 1451 207 1451 207 1472 c 256,26,27
 207 1493 207 1493 186 1493 c 1,28,-1
 207 1598 l 1,29,-1
 207 1788 l 2,30,31
 207 1809 207 1809 228 1809 c 1,32,33
 228 1830 228 1830 207 1830 c 1,34,-1
 228 1956 l 1,0,-1
EndSplineSet
EndChar

StartChar: uni2224
Encoding: 8740 8740 169
Width: 876
Flags: W
LayerCount: 2
Fore
SplineSet
439 1726 m 2,0,-1
 460 1726 l 1,1,-1
 523 1684 l 1,2,3
 502 1400 502 1400 502 1263 c 2,4,-1
 502 1158 l 2,5,6
 502 1137 502 1137 481 1137 c 1,7,-1
 502 1094 l 1,8,-1
 502 1031 l 1,9,-1
 481 989 l 1,10,-1
 502 989 l 1,11,-1
 586 1073 l 1,12,13
 586 1052 586 1052 607 1052 c 1,14,15
 614 1094 614 1094 649 1094 c 2,16,-1
 754 1094 l 2,17,18
 797 1088 797 1088 797 1052 c 2,19,-1
 797 1010 l 1,20,21
 439 825 439 825 439 653 c 0,22,23
 397 179 397 179 397 148 c 0,24,25
 397 106 397 106 439 -63 c 1,26,27
 412 -168 412 -168 376 -168 c 2,28,-1
 291 -168 l 2,29,30
 261 -168 261 -168 228 -105 c 1,31,-1
 228 -63 l 2,32,33
 228 -42 228 -42 249 -42 c 1,34,-1
 228 0 l 1,35,36
 228 21 228 21 249 21 c 1,37,-1
 228 105 l 1,38,39
 291 616 291 616 313 674 c 1,40,-1
 249 674 l 1,41,-1
 186 631 l 1,42,-1
 123 631 l 2,43,44
 92 631 92 631 60 716 c 1,45,46
 60 786 60 786 334 863 c 1,47,48
 355 1726 355 1726 439 1726 c 2,0,-1
EndSplineSet
EndChar

StartChar: uni2225
Encoding: 8741 8741 170
Width: 898
Flags: W
LayerCount: 2
Fore
SplineSet
691 1578 m 1,0,1
 818 1565 818 1565 818 1515 c 2,2,-1
 818 1431 l 1,3,-1
 607 -84 l 1,4,-1
 628 -168 l 1,5,6
 587 -264 587 -264 544 -273 c 1,7,-1
 523 -273 l 2,8,9
 481 -273 481 -273 439 -147 c 1,10,11
 439 -37 439 -37 565 568 c 1,12,-1
 544 610 l 1,13,14
 586 760 586 760 691 1578 c 1,0,1
249 1557 m 2,15,-1
 313 1557 l 1,16,17
 355 1551 355 1551 355 1515 c 2,18,-1
 355 1494 l 1,19,-1
 228 42 l 1,20,-1
 249 0 l 1,21,22
 228 -37 228 -37 228 -84 c 2,23,-1
 228 -147 l 1,24,-1
 123 -168 l 1,25,-1
 102 -168 l 1,26,27
 81 -16 81 -16 60 21 c 1,28,29
 165 769 165 769 207 1347 c 1,30,-1
 186 1389 l 1,31,32
 207 1557 207 1557 249 1557 c 2,15,-1
EndSplineSet
EndChar

StartChar: uni2226
Encoding: 8742 8742 171
Width: 1613
Flags: W
LayerCount: 2
Fore
SplineSet
1133 1726 m 1,0,1
 1217 1694 1217 1694 1217 1663 c 1,2,3
 1196 1519 1196 1519 1196 1431 c 1,4,-1
 1217 1347 l 1,5,6
 1196 1312 1196 1312 1196 1242 c 2,7,-1
 1196 1200 l 1,8,-1
 1217 1200 l 1,9,10
 1373 1326 1373 1326 1449 1326 c 1,11,12
 1533 1294 1533 1294 1533 1263 c 2,13,-1
 1533 1242 l 1,14,15
 1521 1173 1521 1173 1281 1052 c 0,16,17
 1154 984 1154 984 1154 884 c 0,18,19
 1091 -24 1091 -24 1091 -168 c 0,20,21
 1091 -191 1091 -191 1112 -231 c 1,22,23
 1091 -266 1091 -266 1091 -336 c 1,24,-1
 1007 -336 l 2,25,26
 974 -336 974 -336 923 -252 c 1,27,-1
 923 -168 l 2,28,29
 923 -147 923 -147 944 -147 c 1,30,31
 944 -126 944 -126 923 -126 c 1,32,33
 965 405 965 405 986 463 c 1,34,-1
 965 505 l 1,35,-1
 1007 863 l 1,36,37
 674 641 674 641 607 547 c 1,38,-1
 607 358 l 1,39,40
 629 358 629 358 670 337 c 1,41,42
 677 379 677 379 712 379 c 2,43,-1
 733 379 l 1,44,-1
 733 358 l 1,45,46
 607 251 607 251 607 232 c 1,47,-1
 649 211 l 1,48,49
 602 -358 602 -358 544 -358 c 2,50,-1
 502 -358 l 2,51,52
 439 -358 439 -358 439 -126 c 0,53,54
 439 -79 439 -79 460 -42 c 1,55,56
 444 14 444 14 418 211 c 1,57,-1
 460 358 l 1,58,59
 439 421 439 421 418 421 c 1,60,-1
 165 274 l 1,61,-1
 123 274 l 1,62,-1
 60 400 l 1,63,64
 481 577 481 577 481 758 c 0,65,66
 481 1135 481 1135 544 1642 c 1,67,-1
 565 1642 l 2,68,69
 670 1642 670 1642 691 1557 c 1,70,71
 649 1407 649 1407 628 800 c 1,72,-1
 649 800 l 1,73,74
 1028 1042 1028 1042 1028 1094 c 0,75,76
 1043 1726 1043 1726 1133 1726 c 1,0,1
EndSplineSet
EndChar

StartChar: logicaland
Encoding: 8743 8743 172
Width: 1444
Flags: W
LayerCount: 2
Fore
SplineSet
712 989 m 2,0,-1
 797 989 l 1,1,2
 1083 718 1083 718 1154 568 c 1,3,4
 1365 380 1365 380 1365 274 c 1,5,6
 1355 230 1355 230 1259 190 c 1,7,8
 1201 190 1201 190 1028 484 c 0,9,10
 843 758 843 758 733 758 c 1,11,12
 228 274 228 274 228 232 c 1,13,14
 249 232 249 232 249 211 c 1,15,-1
 186 211 l 2,16,17
 81 211 81 211 60 295 c 1,18,19
 81 387 81 387 165 421 c 1,20,21
 165 457 165 457 586 821 c 1,22,23
 697 989 697 989 712 989 c 2,0,-1
EndSplineSet
EndChar

StartChar: logicalor
Encoding: 8744 8744 173
Width: 1676
Flags: W
LayerCount: 2
Fore
SplineSet
1407 968 m 1,0,1
 1581 968 1581 968 1596 779 c 1,2,3
 1548 731 1548 731 1323 716 c 1,4,5
 1162 618 1162 618 818 232 c 1,6,7
 744 211 744 211 733 211 c 1,8,9
 366 552 366 552 102 758 c 1,10,11
 102 792 102 792 60 821 c 1,12,13
 74 877 74 877 165 926 c 1,14,15
 523 624 523 624 628 505 c 1,16,17
 736 442 736 442 754 442 c 0,18,19
 785 442 785 442 1049 716 c 0,20,21
 1180 868 1180 868 1407 968 c 1,0,1
EndSplineSet
EndChar

StartChar: intersection
Encoding: 8745 8745 174
Width: 1424
Flags: W
LayerCount: 2
Fore
SplineSet
691 1389 m 1,0,-1
 691 1368 l 1,1,-1
 733 1389 l 1,2,-1
 754 1389 l 2,3,4
 1237 1389 1237 1389 1302 968 c 0,5,6
 1323 742 1323 742 1344 695 c 1,7,-1
 1323 568 l 1,8,-1
 1323 463 l 1,9,-1
 1344 358 l 1,10,-1
 1323 358 l 1,11,12
 1344 317 1344 317 1344 295 c 1,13,-1
 1323 253 l 1,14,-1
 1344 211 l 1,15,16
 1302 124 1302 124 1302 84 c 1,17,-1
 1238 84 l 2,18,19
 1181 84 1181 84 1133 295 c 1,20,-1
 1154 400 l 1,21,-1
 1154 568 l 2,22,23
 1154 1179 1154 1179 881 1179 c 0,24,25
 691 1192 691 1192 691 1221 c 1,26,27
 287 1221 287 1221 228 379 c 1,28,29
 249 347 249 347 249 253 c 1,30,31
 180 211 180 211 123 211 c 0,32,33
 92 211 92 211 60 295 c 1,34,35
 60 1083 60 1083 439 1305 c 1,36,37
 439 1374 439 1374 691 1389 c 1,0,-1
EndSplineSet
EndChar

StartChar: union
Encoding: 8746 8746 175
Width: 1466
Flags: W
LayerCount: 2
Fore
SplineSet
1323 1452 m 1,0,1
 1354 1368 1354 1368 1386 1368 c 1,2,3
 1308 386 1308 386 986 253 c 1,4,5
 856 169 856 169 565 169 c 0,6,7
 144 228 144 228 144 695 c 1,8,9
 97 695 97 695 60 1284 c 1,10,-1
 165 1326 l 1,11,12
 249 1313 249 1313 249 1158 c 2,13,-1
 249 1137 l 2,14,15
 249 1115 249 1115 228 1115 c 1,16,17
 309 379 309 379 523 379 c 1,18,-1
 523 358 l 1,19,20
 544 358 544 358 544 379 c 1,21,-1
 628 358 l 1,22,23
 1069 358 1069 358 1154 947 c 2,24,-1
 1175 1137 l 2,25,26
 1175 1158 1175 1158 1154 1158 c 1,27,28
 1154 1452 1154 1452 1323 1452 c 1,0,1
EndSplineSet
EndChar

StartChar: integral
Encoding: 8747 8747 176
Width: 813
Flags: W
LayerCount: 2
Fore
SplineSet
439 1852 m 2,0,-1
 544 1852 l 1,1,2
 733 1740 733 1740 733 1621 c 2,3,-1
 733 1536 l 1,4,5
 699 1536 699 1536 670 1494 c 1,6,7
 544 1526 544 1526 544 1663 c 1,8,-1
 502 1663 l 1,9,10
 486 1389 486 1389 460 1389 c 1,11,-1
 481 1242 l 1,12,-1
 481 1010 l 2,13,14
 485 800 485 800 523 800 c 1,15,-1
 502 674 l 1,16,17
 502 574 502 574 523 463 c 1,18,19
 502 353 502 353 502 337 c 0,20,21
 523 153 523 153 523 21 c 1,22,23
 451 -273 451 -273 291 -273 c 0,24,25
 60 -273 60 -273 60 -126 c 1,26,-1
 102 -105 l 1,27,28
 143 -126 143 -126 165 -126 c 1,29,-1
 334 -21 l 1,30,-1
 334 211 l 2,31,32
 334 232 334 232 355 232 c 1,33,34
 355 253 355 253 334 253 c 1,35,-1
 355 442 l 1,36,37
 313 1065 313 1065 313 1410 c 2,38,-1
 313 1536 l 1,39,40
 383 1852 383 1852 439 1852 c 2,0,-1
EndSplineSet
EndChar

StartChar: congruent
Encoding: 8773 8773 177
Width: 1340
Flags: W
LayerCount: 2
Fore
SplineSet
418 1578 m 0,0,1
 679 1578 679 1578 839 1452 c 1,2,-1
 965 1452 l 1,3,4
 1109 1578 1109 1578 1175 1578 c 0,5,6
 1231 1578 1231 1578 1259 1431 c 1,7,8
 1056 1305 1056 1305 1007 1305 c 1,9,-1
 1007 1326 l 1,10,11
 939 1284 939 1284 902 1284 c 1,12,-1
 481 1452 l 1,13,14
 348 1410 348 1410 249 1263 c 1,15,-1
 144 1158 l 1,16,17
 60 1189 60 1189 60 1221 c 2,18,-1
 60 1263 l 1,19,20
 297 1578 297 1578 418 1578 c 0,0,1
1070 1073 m 1,21,22
 1259 1021 1259 1021 1259 926 c 1,23,24
 1175 905 1175 905 1175 842 c 1,25,26
 1091 858 1091 858 1091 884 c 1,27,28
 1070 884 1070 884 1070 863 c 1,29,-1
 986 884 l 1,30,-1
 249 737 l 1,31,-1
 207 800 l 1,32,-1
 207 884 l 1,33,34
 1013 1031 1013 1031 1070 1052 c 1,35,-1
 1070 1073 l 1,21,22
881 547 m 1,36,-1
 1112 547 l 1,37,-1
 1112 526 l 2,38,39
 1112 505 1112 505 1091 505 c 1,40,41
 1112 464 1112 464 1112 442 c 0,42,43
 1112 337 1112 337 649 337 c 1,44,45
 649 316 649 316 102 274 c 1,46,-1
 81 379 l 1,47,48
 81 428 81 428 397 463 c 1,49,-1
 439 442 l 1,50,51
 545 484 545 484 586 484 c 1,52,-1
 586 463 l 1,53,54
 839 505 839 505 881 547 c 1,36,-1
EndSplineSet
EndChar

StartChar: uni2247
Encoding: 8775 8775 178
Width: 1339
Flags: W
LayerCount: 2
Fore
SplineSet
733 1957 m 1,0,-1
 818 1957 l 2,1,2
 881 1957 881 1957 881 1873 c 0,3,4
 881 1843 881 1843 775 1431 c 1,5,-1
 818 1431 l 2,6,7
 971 1431 971 1431 1049 1599 c 1,8,9
 1049 1663 1049 1663 1112 1663 c 1,10,11
 1238 1619 1238 1619 1238 1494 c 1,12,13
 1100 1263 1100 1263 944 1263 c 1,14,-1
 818 1242 l 1,15,-1
 818 1263 l 1,16,17
 716 1263 716 1263 691 1031 c 1,18,19
 670 1031 670 1031 670 989 c 1,20,-1
 691 989 l 2,21,22
 702 989 702 989 775 1010 c 1,23,-1
 860 989 l 1,24,25
 1007 989 1007 989 1007 1052 c 1,26,27
 1196 1000 1196 1000 1196 947 c 2,28,-1
 1196 926 l 2,29,30
 1196 770 1196 770 1112 758 c 1,31,32
 1016 799 1016 799 1007 842 c 1,33,-1
 902 821 l 1,34,-1
 607 821 l 1,35,36
 523 484 523 484 523 421 c 1,37,-1
 544 421 l 1,38,39
 658 442 658 442 733 442 c 2,40,-1
 881 442 l 1,41,-1
 881 484 l 1,42,43
 923 484 923 484 923 463 c 1,44,-1
 1070 484 l 1,45,-1
 1154 484 l 1,46,-1
 1259 463 l 1,47,48
 1229 274 1229 274 1175 274 c 2,49,-1
 1049 274 l 2,50,51
 1028 274 1028 274 1028 295 c 1,52,-1
 986 274 l 1,53,-1
 754 274 l 2,54,55
 460 274 460 274 460 148 c 0,56,57
 460 -252 460 -252 270 -252 c 2,58,-1
 228 -252 l 1,59,-1
 228 -105 l 1,60,61
 313 13 313 13 313 211 c 1,62,-1
 165 190 l 1,63,-1
 144 190 l 1,64,-1
 123 295 l 1,65,-1
 123 316 l 2,66,67
 123 346 123 346 376 421 c 1,68,69
 447 750 447 750 481 821 c 1,70,-1
 439 821 l 1,71,-1
 186 800 l 1,72,-1
 165 842 l 1,73,-1
 165 884 l 2,74,75
 165 917 165 917 249 968 c 1,76,-1
 418 968 l 2,77,78
 573 968 573 968 607 1284 c 1,79,80
 494 1333 494 1333 334 1473 c 1,81,82
 293 1473 293 1473 165 1305 c 1,83,-1
 123 1305 l 1,84,85
 60 1326 60 1326 60 1431 c 1,86,87
 222 1642 222 1642 291 1642 c 0,88,89
 365 1642 365 1642 649 1473 c 1,90,-1
 649 1494 l 1,91,92
 670 1533 670 1533 733 1957 c 1,0,-1
EndSplineSet
EndChar

StartChar: approxequal
Encoding: 8776 8776 179
Width: 1529
Flags: W
LayerCount: 2
Fore
SplineSet
481 1347 m 1,0,-1
 523 1347 l 2,1,2
 676 1347 676 1347 1007 1073 c 1,3,4
 1151 1073 1151 1073 1217 1221 c 1,5,6
 1365 1221 1365 1221 1407 1115 c 1,7,8
 1407 975 1407 975 1070 884 c 1,9,-1
 1049 884 l 2,10,11
 921 884 921 884 775 1010 c 0,12,13
 614 1158 614 1158 481 1158 c 1,14,-1
 270 989 l 1,15,16
 198 884 198 884 102 884 c 1,17,-1
 60 947 l 1,18,19
 60 1043 60 1043 334 1263 c 1,20,-1
 481 1347 l 1,0,-1
1302 695 m 1,21,-1
 1344 695 l 1,22,-1
 1344 653 l 1,23,-1
 1386 674 l 1,24,25
 1449 575 1449 575 1449 526 c 0,26,27
 1449 421 1449 421 1217 337 c 1,28,29
 1217 316 1217 316 1196 316 c 0,30,31
 1076 316 1076 316 944 274 c 1,32,33
 791 278 791 278 544 484 c 1,34,-1
 460 484 l 2,35,36
 337 484 337 484 249 337 c 1,37,-1
 228 337 l 1,38,39
 177 379 177 379 144 379 c 1,40,-1
 144 484 l 1,41,42
 304 674 304 674 481 674 c 2,43,-1
 523 674 l 2,44,45
 581 674 581 674 923 484 c 1,46,-1
 1049 484 l 1,47,-1
 1281 653 l 1,48,49
 1302 653 1302 653 1302 695 c 1,21,-1
EndSplineSet
EndChar

StartChar: uni2249
Encoding: 8777 8777 180
Width: 1655
Flags: W
LayerCount: 2
Fore
SplineSet
1070 1621 m 1,0,-1
 1112 1621 l 1,1,2
 1112 1449 1112 1449 986 1073 c 1,3,-1
 1133 1073 l 1,4,5
 1133 1108 1133 1108 1259 1179 c 1,6,7
 1281 1215 1281 1215 1281 1263 c 1,8,-1
 1323 1242 l 1,9,-1
 1344 1242 l 1,10,-1
 1386 1263 l 1,11,12
 1386 1221 1386 1221 1449 1221 c 1,13,-1
 1449 1094 l 1,14,-1
 1428 1052 l 1,15,16
 1449 1052 1449 1052 1449 1031 c 1,17,18
 1123 884 1123 884 1070 884 c 1,19,20
 954 905 954 905 902 905 c 1,21,22
 818 722 818 722 818 610 c 1,23,-1
 860 589 l 1,24,25
 860 610 860 610 881 610 c 1,26,27
 881 561 881 561 986 505 c 1,28,29
 1007 505 1007 505 1007 526 c 1,30,-1
 1112 505 l 1,31,32
 1288 505 1288 505 1386 695 c 1,33,-1
 1575 653 l 1,34,35
 1575 472 1575 472 1407 421 c 1,36,37
 1276 316 1276 316 1007 316 c 0,38,39
 986 316 986 316 712 421 c 1,40,41
 712 358 712 358 628 190 c 1,42,-1
 628 105 l 1,43,44
 649 65 649 65 649 42 c 1,45,-1
 628 42 l 1,46,-1
 649 0 l 1,47,48
 628 -69 628 -69 565 -84 c 1,49,50
 439 -84 439 -84 439 105 c 1,51,52
 493 194 493 194 607 505 c 1,53,54
 591 505 591 505 481 526 c 1,55,56
 437 525 437 525 270 337 c 1,57,58
 234 358 234 358 186 358 c 1,59,-1
 186 484 l 1,60,61
 353 695 353 695 481 695 c 2,62,-1
 649 695 l 1,63,-1
 691 674 l 1,64,65
 691 716 691 716 797 989 c 1,66,67
 619 1094 619 1094 544 1094 c 0,68,69
 398 1094 398 1094 207 884 c 1,70,71
 167 863 167 863 144 863 c 1,72,73
 60 895 60 895 60 926 c 2,74,-1
 60 989 l 1,75,76
 365 1263 365 1263 460 1263 c 2,77,-1
 628 1263 l 2,78,79
 706 1263 706 1263 839 1179 c 1,80,81
 897 1179 897 1179 1007 1578 c 1,82,-1
 1070 1621 l 1,0,-1
EndSplineSet
EndChar

StartChar: uni2252
Encoding: 8786 8786 181
Width: 1508
Flags: W
LayerCount: 2
Fore
SplineSet
712 1158 m 0,0,1
 1045 1158 1045 1158 1196 926 c 2,2,3
 1428 802 1428 802 1428 589 c 1,4,-1
 1407 547 l 1,5,6
 1407 526 1407 526 1428 526 c 1,7,8
 1428 155 1428 155 902 -63 c 1,9,-1
 902 -84 l 1,10,11
 881 -84 881 -84 881 -63 c 1,12,-1
 712 -126 l 1,13,-1
 649 -126 l 1,14,-1
 649 -147 l 1,15,16
 81 -36 81 -36 81 232 c 1,17,18
 60 268 60 268 60 316 c 0,19,20
 60 930 60 930 628 1137 c 1,21,22
 665 1158 665 1158 712 1158 c 0,0,1
207 400 m 2,23,-1
 207 316 l 2,24,25
 207 163 207 163 544 21 c 1,26,27
 783 21 783 21 1154 274 c 0,28,29
 1259 356 1259 356 1259 631 c 2,30,-1
 1259 674 l 2,31,32
 1259 705 1259 705 1070 800 c 1,33,34
 1070 842 1070 842 1028 842 c 1,35,36
 1028 821 1028 821 1007 821 c 1,37,38
 1007 901 1007 901 860 1010 c 1,39,-1
 754 1010 l 1,40,41
 440 921 440 921 334 737 c 0,42,43
 207 456 207 456 207 400 c 2,23,-1
691 653 m 1,44,-1
 754 653 l 1,45,-1
 775 547 l 1,46,-1
 775 505 l 1,47,-1
 670 484 l 1,48,49
 670 501 670 501 607 547 c 1,50,51
 648 643 648 643 691 653 c 1,44,-1
EndSplineSet
EndChar

StartChar: notequal
Encoding: 8800 8800 182
Width: 1339
Flags: W
LayerCount: 2
Fore
SplineSet
923 1305 m 1,0,1
 965 1221 965 1221 965 1158 c 1,2,3
 881 936 881 936 881 905 c 1,4,5
 975 905 975 905 1007 884 c 1,6,-1
 1049 905 l 1,7,-1
 1091 884 l 1,8,-1
 1133 905 l 1,9,10
 1259 856 1259 856 1259 821 c 2,11,-1
 1259 737 l 1,12,13
 1196 737 1196 737 1196 695 c 1,14,15
 1021 737 1021 737 818 737 c 1,16,17
 818 709 818 709 691 484 c 1,18,-1
 691 442 l 1,19,20
 889 484 889 484 1070 505 c 1,21,-1
 1070 484 l 1,22,-1
 1112 505 l 1,23,24
 1196 474 1196 474 1196 442 c 1,25,-1
 1154 295 l 1,26,-1
 1091 295 l 2,27,28
 1049 295 1049 295 1049 337 c 1,29,30
 565 295 565 295 565 253 c 1,31,32
 434 -68 434 -68 397 -231 c 1,33,-1
 291 -231 l 2,34,35
 255 -231 255 -231 228 -126 c 1,36,37
 314 18 314 18 418 295 c 1,38,-1
 186 295 l 2,39,40
 77 295 77 295 60 358 c 1,41,-1
 60 421 l 1,42,-1
 207 442 l 1,43,-1
 502 442 l 1,44,45
 559 593 559 593 628 674 c 1,46,-1
 628 716 l 1,47,-1
 565 716 l 2,48,49
 459 716 459 716 249 737 c 1,50,51
 249 759 249 759 228 800 c 1,52,53
 270 800 270 800 270 905 c 1,54,55
 397 877 397 877 397 842 c 1,56,-1
 439 863 l 1,57,-1
 712 863 l 1,58,59
 818 1146 818 1146 818 1284 c 1,60,-1
 923 1305 l 1,0,1
EndSplineSet
EndChar

StartChar: lessequal
Encoding: 8804 8804 183
Width: 1171
Flags: W
LayerCount: 2
Fore
SplineSet
986 1557 m 1,0,-1
 1028 1557 l 2,1,2
 1060 1557 1060 1557 1091 1473 c 1,3,4
 1091 1405 1091 1405 460 779 c 1,5,6
 460 736 460 736 797 484 c 1,7,8
 1070 373 1070 373 1070 295 c 1,9,10
 1029 199 1029 199 986 190 c 1,11,12
 795 296 795 296 334 653 c 1,13,14
 249 653 249 653 249 758 c 2,15,-1
 249 779 l 1,16,17
 291 779 291 779 481 1031 c 2,18,19
 943 1427 943 1427 986 1557 c 1,0,-1
123 421 m 1,20,21
 439 257 439 257 439 211 c 1,22,23
 628 145 628 145 628 21 c 1,24,25
 597 21 597 21 544 -42 c 1,26,27
 96 266 96 266 60 337 c 1,28,-1
 60 379 l 2,29,30
 60 421 60 421 123 421 c 1,20,21
EndSplineSet
EndChar

StartChar: greaterequal
Encoding: 8805 8805 184
Width: 1150
Flags: W
LayerCount: 2
Fore
SplineSet
186 1389 m 1,0,-1
 249 1389 l 1,1,-1
 249 1326 l 1,2,-1
 355 1347 l 1,3,4
 355 1300 355 1300 628 1052 c 0,5,6
 797 920 797 920 797 842 c 1,7,8
 626 585 626 585 228 253 c 1,9,-1
 228 126 l 1,10,11
 206 126 206 126 165 105 c 1,12,13
 132 105 132 105 81 190 c 1,14,-1
 60 190 l 1,15,-1
 60 316 l 1,16,17
 397 577 397 577 397 610 c 1,18,19
 558 736 558 736 607 842 c 1,20,21
 607 924 607 924 397 1094 c 1,22,-1
 186 1347 l 1,23,-1
 186 1389 l 1,0,-1
986 674 m 1,24,-1
 1028 674 l 1,25,26
 1070 667 1070 667 1070 631 c 2,27,-1
 1070 589 l 1,28,29
 1032 589 1032 589 965 442 c 1,30,31
 946 442 946 442 649 21 c 1,32,-1
 607 0 l 1,33,34
 502 34 502 34 502 126 c 1,35,36
 600 168 600 168 902 631 c 1,37,38
 935 631 935 631 986 674 c 1,24,-1
EndSplineSet
EndChar

StartChar: propersubset
Encoding: 8834 8834 185
Width: 1571
Flags: W
LayerCount: 2
Fore
SplineSet
1112 1452 m 1,0,1
 1181 1431 1181 1431 1196 1368 c 1,2,3
 1154 1300 1154 1300 1154 1263 c 1,4,-1
 1049 1284 l 1,5,6
 707 1247 707 1247 544 1137 c 0,7,8
 228 876 228 876 228 737 c 1,9,-1
 249 695 l 1,10,11
 249 674 249 674 228 674 c 1,12,13
 228 501 228 501 607 421 c 1,14,-1
 649 442 l 1,15,-1
 712 442 l 2,16,17
 760 442 760 442 797 421 c 1,18,19
 889 457 889 457 1133 484 c 1,20,21
 1491 426 1491 426 1491 358 c 1,22,23
 1470 317 1470 317 1470 295 c 1,24,-1
 1323 295 l 1,25,-1
 1175 274 l 1,26,-1
 1175 295 l 1,27,-1
 1133 274 l 1,28,-1
 1007 274 l 2,29,30
 986 274 986 274 986 295 c 1,31,-1
 944 274 l 1,32,33
 923 274 923 274 923 295 c 1,34,35
 735 269 735 269 691 253 c 1,36,37
 81 308 81 308 81 610 c 1,38,-1
 60 716 l 1,39,-1
 102 737 l 1,40,-1
 81 779 l 1,41,42
 81 977 81 977 207 1010 c 1,43,44
 207 1116 207 1116 544 1305 c 0,45,46
 745 1389 745 1389 1112 1452 c 1,0,1
EndSplineSet
EndChar

StartChar: propersuperset
Encoding: 8835 8835 186
Width: 1339
Flags: W
LayerCount: 2
Fore
SplineSet
249 1473 m 1,0,-1
 334 1452 l 1,1,2
 374 1473 374 1473 397 1473 c 1,3,-1
 439 1452 l 1,4,5
 480 1473 480 1473 502 1473 c 1,6,-1
 1091 1368 l 1,7,8
 1238 1208 1238 1208 1238 1031 c 1,9,-1
 1259 1031 l 1,10,11
 1259 1009 1259 1009 1238 968 c 1,12,13
 1259 818 1259 818 1259 800 c 0,14,15
 1259 324 1259 324 923 148 c 1,16,17
 908 148 908 148 544 84 c 1,18,19
 481 84 481 84 481 105 c 1,20,-1
 123 63 l 1,21,-1
 60 148 l 1,22,-1
 60 169 l 2,23,24
 60 295 60 295 144 295 c 0,25,26
 167 295 167 295 207 274 c 1,27,-1
 313 295 l 1,28,-1
 439 274 l 1,29,30
 1028 274 1028 274 1028 589 c 1,31,32
 1070 589 1070 589 1070 842 c 2,33,-1
 1070 947 l 2,34,35
 1070 1263 1070 1263 754 1263 c 0,36,37
 455 1305 455 1305 334 1305 c 2,38,-1
 165 1305 l 2,39,40
 123 1305 123 1305 123 1347 c 2,41,-1
 123 1389 l 2,42,43
 123 1417 123 1417 249 1473 c 1,0,-1
EndSplineSet
EndChar

StartChar: notsubset
Encoding: 8836 8836 187
Width: 1655
Flags: W
LayerCount: 2
Fore
SplineSet
1007 1957 m 1,0,-1
 1091 1957 l 1,1,-1
 1091 1936 l 2,2,3
 1091 1886 1091 1886 1028 1663 c 1,4,5
 1154 1663 1154 1663 1154 1599 c 1,6,7
 839 1359 839 1359 839 1094 c 1,8,-1
 586 505 l 1,9,-1
 733 484 l 1,10,11
 770 505 770 505 818 505 c 1,12,-1
 818 484 l 1,13,-1
 860 505 l 1,14,-1
 1133 505 l 2,15,16
 1153 505 1153 505 1302 547 c 1,17,-1
 1449 547 l 2,18,19
 1575 534 1575 534 1575 484 c 2,20,-1
 1575 442 l 1,21,22
 1533 391 1533 391 1533 358 c 1,23,-1
 1428 358 l 2,24,25
 1380 358 1380 358 1344 337 c 1,26,27
 1303 358 1303 358 1281 358 c 0,28,29
 1246 358 1246 358 1028 337 c 0,30,31
 981 337 981 337 944 358 c 1,32,33
 830 337 830 337 754 337 c 2,34,-1
 649 337 l 1,35,-1
 544 358 l 1,36,37
 418 85 418 85 418 -147 c 1,38,-1
 313 -147 l 1,39,40
 270 -78 270 -78 270 -21 c 2,41,-1
 270 42 l 1,42,43
 328 42 328 42 355 274 c 0,44,45
 355 307 355 307 397 358 c 1,46,-1
 397 379 l 1,47,48
 60 428 60 428 60 631 c 0,49,50
 60 874 60 874 502 1305 c 0,51,52
 881 1587 881 1587 881 1621 c 0,53,54
 881 1716 881 1716 1007 1936 c 1,55,-1
 1007 1957 l 1,0,-1
249 674 m 1,56,57
 249 526 249 526 460 526 c 1,58,59
 775 1274 775 1274 775 1347 c 1,60,61
 348 1029 348 1029 249 674 c 1,56,57
EndSplineSet
EndChar

StartChar: uni2285
Encoding: 8837 8837 188
Width: 1719
Flags: W
LayerCount: 2
Fore
SplineSet
1028 1873 m 1,0,-1
 1133 1852 l 1,1,-1
 1133 1578 l 1,2,-1
 1449 1410 l 1,3,4
 1638 1261 1638 1261 1638 884 c 2,5,-1
 1638 800 l 1,6,7
 1588 800 1588 800 1533 653 c 1,8,9
 1384 453 1384 453 1112 379 c 1,10,-1
 1091 379 l 1,11,-1
 1091 400 l 1,12,13
 1022 358 1022 358 965 358 c 2,14,-1
 670 358 l 2,15,16
 481 358 481 358 481 169 c 1,17,18
 430 -68 430 -68 376 -84 c 1,19,-1
 313 -84 l 1,20,21
 313 -47 313 -47 270 21 c 1,22,-1
 291 63 l 1,23,24
 270 104 270 104 270 126 c 1,25,26
 308 126 308 126 355 316 c 1,27,28
 270 305 270 305 270 253 c 1,29,-1
 249 253 l 2,30,31
 228 253 228 253 228 274 c 1,32,-1
 186 253 l 1,33,-1
 144 253 l 2,34,35
 97 253 97 253 60 400 c 1,36,37
 77 484 77 484 228 484 c 1,38,-1
 249 442 l 1,39,40
 502 492 502 492 502 674 c 1,41,-1
 881 1452 l 1,42,-1
 839 1452 l 2,43,44
 717 1452 717 1452 165 1389 c 1,45,-1
 144 1431 l 1,46,-1
 144 1515 l 1,47,-1
 355 1578 l 1,48,-1
 355 1557 l 1,49,-1
 397 1578 l 1,50,51
 418 1578 418 1578 418 1557 c 1,52,53
 472 1578 472 1578 691 1621 c 1,54,-1
 691 1599 l 1,55,-1
 733 1621 l 1,56,-1
 944 1599 l 1,57,58
 944 1615 944 1615 1028 1873 c 1,0,-1
1007 1410 m 1,59,60
 1007 1369 1007 1369 628 631 c 1,61,62
 628 595 628 595 586 526 c 1,63,64
 649 526 649 526 649 505 c 1,65,66
 1242 505 1242 505 1428 842 c 1,67,-1
 1428 1031 l 2,68,69
 1428 1237 1428 1237 1217 1326 c 1,70,71
 1217 1410 1217 1410 1007 1410 c 1,59,60
EndSplineSet
EndChar

StartChar: reflexsubset
Encoding: 8838 8838 189
Width: 1465
Flags: W
LayerCount: 2
Fore
SplineSet
944 1515 m 1,0,1
 950 1473 950 1473 986 1473 c 2,2,-1
 1133 1473 l 1,3,-1
 1238 1494 l 1,4,-1
 1238 1473 l 1,5,-1
 1281 1494 l 1,6,-1
 1344 1494 l 1,7,8
 1344 1416 1344 1416 1386 1368 c 1,9,10
 1332 1242 1332 1242 1217 1242 c 1,11,12
 1128 1305 1128 1305 1049 1305 c 1,13,-1
 944 1284 l 1,14,15
 830 1305 830 1305 754 1305 c 1,16,17
 368 1072 368 1072 249 674 c 1,18,-1
 249 568 l 2,19,20
 249 421 249 421 439 421 c 2,21,-1
 481 421 l 1,22,-1
 1070 484 l 1,23,-1
 1070 463 l 1,24,-1
 1112 484 l 1,25,-1
 1154 484 l 2,26,27
 1344 484 1344 484 1344 379 c 1,28,29
 1297 253 1297 253 1217 253 c 0,30,31
 1031 274 1031 274 986 274 c 2,32,-1
 797 253 l 1,33,-1
 797 274 l 1,34,35
 775 253 775 253 544 232 c 0,36,37
 170 232 170 232 102 358 c 1,38,39
 60 507 60 507 60 589 c 0,40,41
 60 1035 60 1035 649 1431 c 1,42,-1
 944 1515 l 1,0,1
1049 211 m 1,43,-1
 1070 211 l 1,44,45
 1070 148 1070 148 1259 105 c 1,46,-1
 1281 -21 l 1,47,-1
 1281 -42 l 1,48,49
 1228 -42 1228 -42 1175 -84 c 1,50,-1
 1070 -42 l 1,51,-1
 1070 -63 l 1,52,53
 1091 -63 1091 -63 1091 -84 c 1,54,-1
 1028 -84 l 1,55,56
 1028 -21 1028 -21 944 -21 c 1,57,58
 903 -42 903 -42 881 -42 c 1,59,-1
 881 -21 l 1,60,-1
 839 -42 l 1,61,62
 818 -42 818 -42 818 -21 c 1,63,-1
 670 -42 l 1,64,-1
 460 -42 l 1,65,-1
 355 -63 l 1,66,-1
 355 -42 l 1,67,68
 314 -63 314 -63 291 -63 c 1,69,70
 186 -34 186 -34 186 84 c 1,71,72
 291 148 291 148 334 148 c 1,73,-1
 355 105 l 1,74,-1
 397 126 l 1,75,-1
 628 126 l 2,76,77
 986 126 986 126 1049 211 c 1,43,-1
EndSplineSet
EndChar

StartChar: reflexsuperset
Encoding: 8839 8839 190
Width: 1550
Flags: W
LayerCount: 2
Fore
SplineSet
355 1515 m 1,0,1
 391 1494 391 1494 439 1494 c 0,2,3
 481 1494 481 1494 481 1515 c 1,4,5
 1162 1515 1162 1515 1365 1137 c 1,6,7
 1470 777 1470 777 1470 737 c 1,8,9
 1362 411 1362 411 1259 400 c 1,10,11
 1129 295 1129 295 818 253 c 0,12,13
 797 253 797 253 797 274 c 1,14,-1
 691 253 l 1,15,-1
 291 253 l 2,16,17
 244 253 244 253 207 232 c 1,18,19
 139 274 139 274 102 274 c 1,20,21
 113 442 113 442 249 442 c 1,22,-1
 334 400 l 1,23,-1
 376 421 l 1,24,-1
 481 400 l 1,25,26
 533 400 533 400 712 442 c 1,27,28
 749 421 749 421 797 421 c 1,29,30
 837 442 837 442 860 442 c 1,31,-1
 902 421 l 1,32,33
 1281 553 1281 553 1281 758 c 1,34,35
 1162 1221 1162 1221 1028 1221 c 1,36,37
 1028 1271 1028 1271 628 1347 c 1,38,-1
 439 1347 l 1,39,-1
 291 1326 l 1,40,-1
 228 1410 l 1,41,-1
 228 1452 l 2,42,43
 228 1488 228 1488 355 1515 c 1,0,1
1028 126 m 2,44,-1
 1049 126 l 2,45,46
 1070 126 1070 126 1070 105 c 1,47,-1
 1112 126 l 1,48,49
 1133 126 1133 126 1133 105 c 1,50,51
 1174 126 1174 126 1196 126 c 0,52,53
 1236 126 1236 126 1449 84 c 1,54,-1
 1449 63 l 2,55,56
 1449 -42 1449 -42 1344 -42 c 1,57,-1
 1281 -84 l 1,58,59
 1212 -42 1212 -42 1175 -42 c 0,60,61
 1154 -42 1154 -42 1154 -63 c 1,62,63
 986 -49 986 -49 986 -21 c 1,64,-1
 670 -63 l 1,65,-1
 670 -42 l 1,66,-1
 628 -63 l 1,67,-1
 607 -63 l 2,68,69
 544 -63 544 -63 544 -42 c 1,70,-1
 439 -63 l 1,71,-1
 397 -63 l 2,72,73
 349 -63 349 -63 313 -42 c 1,74,75
 276 -63 276 -63 228 -63 c 2,76,-1
 165 -63 l 1,77,-1
 60 -42 l 1,78,-1
 60 42 l 1,79,80
 67 84 67 84 102 84 c 2,81,-1
 291 84 l 2,82,83
 339 84 339 84 376 105 c 1,84,85
 412 84 412 84 460 84 c 1,86,-1
 586 105 l 1,87,88
 627 84 627 84 649 84 c 1,89,90
 859 126 859 126 1028 126 c 2,44,-1
EndSplineSet
EndChar

StartChar: uni2288
Encoding: 8840 8840 191
Width: 1782
Flags: W
LayerCount: 2
Fore
SplineSet
1196 1789 m 2,0,-1
 1217 1789 l 2,1,2
 1248 1789 1248 1789 1281 1726 c 1,3,-1
 1217 1557 l 1,4,5
 1258 1536 1258 1536 1281 1536 c 1,6,-1
 1281 1431 l 2,7,8
 1281 1397 1281 1397 1154 1347 c 1,9,-1
 839 442 l 1,10,-1
 860 442 l 1,11,12
 1052 505 1052 505 1512 547 c 1,13,-1
 1512 526 l 1,14,-1
 1554 547 l 1,15,16
 1595 526 1595 526 1617 526 c 1,17,18
 1617 547 1617 547 1638 547 c 1,19,20
 1701 478 1701 478 1701 442 c 1,21,-1
 1617 316 l 1,22,23
 1586 337 1586 337 1344 358 c 1,24,25
 712 273 712 273 712 148 c 1,26,27
 670 148 670 148 670 42 c 1,28,-1
 691 42 l 1,29,30
 948 84 948 84 1344 105 c 1,31,-1
 1344 84 l 1,32,-1
 1449 126 l 1,33,34
 1490 105 1490 105 1512 105 c 1,35,-1
 1512 84 l 2,36,37
 1512 -84 1512 -84 1196 -84 c 1,38,-1
 1196 -63 l 1,39,-1
 1154 -84 l 1,40,-1
 1133 -84 l 2,41,42
 544 -84 544 -84 544 -231 c 0,43,44
 544 -379 544 -379 481 -379 c 2,45,-1
 439 -379 l 1,46,-1
 376 -336 l 1,47,48
 418 -179 418 -179 418 -147 c 1,49,-1
 313 -168 l 1,50,51
 270 -168 270 -168 270 -126 c 2,52,-1
 270 -63 l 1,53,54
 565 8 565 8 565 126 c 1,55,56
 607 213 607 213 607 253 c 1,57,-1
 565 253 l 2,58,59
 128 253 128 253 60 674 c 1,60,61
 208 1133 208 1133 418 1221 c 1,62,63
 683 1416 683 1416 986 1494 c 1,64,65
 1027 1473 1027 1473 1049 1473 c 1,66,67
 1148 1789 1148 1789 1196 1789 c 2,0,-1
249 716 m 2,68,-1
 249 631 l 2,69,70
 249 487 249 487 523 421 c 1,71,-1
 691 421 l 1,72,73
 986 1185 986 1185 986 1347 c 1,74,75
 291 1047 291 1047 291 758 c 1,76,77
 249 751 249 751 249 716 c 2,68,-1
EndSplineSet
EndChar

StartChar: uni2289
Encoding: 8841 8841 192
Width: 1613
Flags: W
LayerCount: 2
Fore
SplineSet
1133 1810 m 1,0,-1
 1175 1810 l 1,1,2
 1217 1803 1217 1803 1217 1768 c 1,3,4
 1154 1660 1154 1660 1154 1557 c 1,5,6
 1314 1524 1314 1524 1491 1326 c 1,7,8
 1491 1285 1491 1285 1533 1179 c 1,9,-1
 1491 1010 l 1,10,-1
 1512 968 l 1,11,12
 1444 724 1444 724 1154 547 c 1,13,14
 986 510 986 510 986 442 c 1,15,-1
 944 463 l 1,16,17
 628 463 628 463 628 316 c 1,18,-1
 649 316 l 2,19,20
 1124 337 1124 337 1175 421 c 1,21,-1
 1217 421 l 1,22,-1
 1217 379 l 1,23,-1
 1238 379 l 1,24,-1
 1238 421 l 1,25,-1
 1281 421 l 1,26,27
 1281 379 1281 379 1365 316 c 1,28,-1
 1365 232 l 2,29,30
 1365 190 1365 190 1154 169 c 1,31,32
 1070 185 1070 185 1070 211 c 1,33,-1
 1028 190 l 1,34,-1
 1007 190 l 2,35,36
 502 190 502 190 502 63 c 1,37,38
 413 -379 413 -379 334 -379 c 2,39,-1
 291 -379 l 2,40,41
 249 -379 249 -379 249 -336 c 2,42,-1
 249 -315 l 1,43,-1
 376 126 l 1,44,45
 191 84 191 84 81 84 c 1,46,-1
 60 126 l 1,47,-1
 60 148 l 1,48,49
 107 148 107 148 144 211 c 1,50,-1
 144 232 l 1,51,-1
 165 232 l 2,52,53
 502 232 502 232 502 442 c 1,54,55
 455 442 455 442 418 421 c 1,56,57
 381 442 381 442 334 442 c 2,58,-1
 291 442 l 1,59,-1
 291 400 l 1,60,-1
 207 400 l 2,61,62
 177 400 177 400 144 463 c 1,63,-1
 144 547 l 2,64,65
 144 589 144 589 334 610 c 0,66,67
 355 610 355 610 355 589 c 1,68,-1
 460 610 l 1,69,-1
 544 610 l 1,70,-1
 586 589 l 1,71,-1
 965 1431 l 1,72,73
 944 1431 944 1431 944 1452 c 1,74,-1
 902 1431 l 1,75,-1
 860 1431 l 2,76,77
 839 1431 839 1431 839 1452 c 1,78,-1
 249 1368 l 1,79,80
 207 1437 207 1437 207 1494 c 1,81,82
 368 1557 368 1557 1007 1599 c 1,83,-1
 1133 1810 l 1,0,-1
1091 1410 m 1,84,85
 1091 1368 1091 1368 733 589 c 1,86,-1
 818 589 l 1,87,88
 1281 783 1281 783 1281 905 c 1,89,90
 1365 989 1365 989 1365 1137 c 2,91,-1
 1365 1158 l 2,92,93
 1365 1339 1365 1339 1091 1410 c 1,84,85
EndSplineSet
EndChar

StartChar: circleplus
Encoding: 8853 8853 193
Width: 1298
Flags: W
LayerCount: 2
Fore
SplineSet
628 1410 m 1,0,-1
 628 1389 l 1,1,-1
 670 1410 l 1,2,3
 1007 1410 1007 1410 1196 1010 c 1,4,5
 1217 831 1217 831 1217 716 c 1,6,-1
 1196 716 l 1,7,-1
 1217 674 l 1,8,9
 1154 393 1154 393 965 253 c 0,10,11
 824 169 824 169 670 105 c 1,12,13
 191 105 191 105 60 547 c 1,14,-1
 81 547 l 1,15,-1
 60 589 l 1,16,-1
 60 674 l 2,17,18
 60 695 60 695 81 695 c 1,19,-1
 60 737 l 1,20,21
 164 1167 164 1167 397 1326 c 0,22,23
 476 1379 476 1379 628 1410 c 1,0,-1
228 589 m 1,24,25
 336 295 336 295 544 295 c 1,26,-1
 586 316 l 1,27,28
 627 295 627 295 649 295 c 1,29,30
 1049 429 1049 429 1049 758 c 1,31,-1
 1070 863 l 1,32,33
 1070 1125 1070 1125 733 1221 c 1,34,-1
 691 1158 l 1,35,36
 733 1158 733 1158 754 926 c 1,37,38
 797 926 797 926 797 989 c 1,39,40
 924 989 924 989 965 863 c 1,41,-1
 986 863 l 1,42,-1
 986 842 l 1,43,-1
 881 737 l 1,44,-1
 775 758 l 1,45,-1
 733 758 l 1,46,-1
 733 737 l 1,47,-1
 754 547 l 1,48,-1
 670 484 l 1,49,-1
 607 484 l 2,50,51
 565 484 565 484 544 653 c 1,52,53
 586 721 586 721 586 758 c 1,54,-1
 418 758 l 2,55,56
 376 758 376 758 376 800 c 2,57,-1
 376 842 l 2,58,59
 377 871 377 871 481 926 c 1,60,-1
 586 926 l 1,61,62
 586 1079 586 1079 670 1158 c 1,63,64
 662 1214 662 1214 565 1242 c 1,65,66
 228 1079 228 1079 228 589 c 1,24,25
EndSplineSet
EndChar

StartChar: circlemultiply
Encoding: 8855 8855 194
Width: 1381
Flags: W
LayerCount: 2
Fore
SplineSet
754 1326 m 1,0,1
 754 1229 754 1229 1028 1200 c 1,2,3
 1139 1110 1139 1110 1302 842 c 1,4,-1
 1302 800 l 2,5,6
 1302 378 1302 378 1070 253 c 1,7,8
 1070 211 1070 211 754 148 c 1,9,10
 406 148 406 148 228 337 c 1,11,12
 108 337 108 337 60 631 c 1,13,-1
 81 674 l 1,14,15
 81 695 81 695 60 695 c 1,16,17
 110 1010 110 1010 207 1010 c 1,18,19
 207 1263 207 1263 754 1326 c 1,0,1
418 1073 m 1,20,21
 438 977 438 977 670 779 c 1,22,23
 670 808 670 808 881 1052 c 1,24,25
 881 1073 881 1073 860 1073 c 0,26,27
 628 1094 628 1094 628 1158 c 1,28,29
 418 1122 418 1122 418 1073 c 1,20,21
775 695 m 1,30,31
 1021 442 1021 442 1070 442 c 1,32,-1
 1070 463 l 1,33,34
 1154 544 1154 544 1154 737 c 0,35,36
 1154 782 1154 782 1049 989 c 1,37,-1
 1028 989 l 2,38,39
 1005 989 1005 989 775 695 c 1,30,31
291 926 m 1,40,41
 228 764 228 764 228 695 c 2,42,-1
 228 610 l 2,43,44
 228 524 228 524 334 442 c 1,45,-1
 334 421 l 1,46,-1
 376 421 l 1,47,48
 376 484 376 484 565 674 c 1,49,50
 534 674 534 674 313 926 c 1,51,-1
 291 926 l 1,40,41
544 337 m 1,52,53
 660 316 660 316 712 316 c 0,54,55
 902 329 902 329 902 358 c 0,56,57
 902 415 902 415 712 547 c 1,58,-1
 670 547 l 1,59,60
 544 471 544 471 544 337 c 1,52,53
EndSplineSet
EndChar

StartChar: uni2299
Encoding: 8857 8857 195
Width: 1424
Flags: W
LayerCount: 2
Fore
SplineSet
670 1284 m 1,0,-1
 797 1263 l 1,1,-1
 923 1263 l 1,2,3
 1302 947 1302 947 1302 821 c 1,4,5
 1344 724 1344 724 1344 631 c 1,6,7
 1238 268 1238 268 1070 190 c 0,8,9
 775 0 775 0 523 0 c 1,10,11
 523 47 523 47 334 105 c 1,12,13
 334 137 334 137 186 274 c 1,14,15
 123 353 123 353 60 779 c 1,16,17
 210 1263 210 1263 649 1263 c 1,18,19
 649 1284 649 1284 670 1284 c 1,0,-1
228 821 m 1,20,-1
 249 779 l 1,21,-1
 249 695 l 2,22,23
 249 674 249 674 228 674 c 1,24,25
 319 190 319 190 628 190 c 1,26,-1
 818 253 l 1,27,28
 818 232 818 232 839 232 c 1,29,-1
 1007 358 l 1,30,31
 1089 358 1089 358 1175 653 c 1,32,33
 1175 926 1175 926 754 1115 c 1,34,35
 291 1079 291 1079 291 863 c 1,36,37
 257 863 257 863 228 821 c 1,20,-1
839 905 m 1,38,-1
 902 737 l 1,39,-1
 881 737 l 1,40,-1
 902 695 l 1,41,-1
 902 653 l 1,42,43
 748 484 748 484 670 484 c 0,44,45
 502 484 502 484 502 674 c 2,46,-1
 502 737 l 1,47,48
 587 905 587 905 839 905 c 1,38,-1
EndSplineSet
EndChar

StartChar: H22073
Encoding: 9633 9633 196
Width: 1423
Flags: W
LayerCount: 2
Fore
SplineSet
1196 1052 m 1,0,-1
 1238 1031 l 1,1,2
 1275 1052 1275 1052 1323 1052 c 1,3,-1
 1344 1010 l 1,4,5
 1208 -21 1208 -21 1154 -21 c 0,6,7
 1135 -21 1135 -21 1028 -105 c 1,8,-1
 944 -84 l 1,9,10
 923 -84 923 -84 923 -105 c 1,11,-1
 691 -63 l 1,12,13
 508 -84 508 -84 376 -84 c 2,14,-1
 270 -84 l 2,15,16
 177 -84 177 -84 60 63 c 1,17,-1
 60 126 l 2,18,19
 60 174 60 174 81 211 c 1,20,21
 81 232 81 232 60 232 c 1,22,23
 144 705 144 705 144 737 c 0,24,25
 144 758 144 758 123 758 c 1,26,27
 123 831 123 831 186 1010 c 1,28,-1
 228 1010 l 1,29,-1
 376 1031 l 1,30,-1
 376 1010 l 1,31,32
 397 1010 397 1010 397 1031 c 1,33,-1
 607 1010 l 1,34,-1
 775 1010 l 2,35,36
 823 1010 823 1010 860 1031 c 1,37,38
 881 1031 881 1031 881 1010 c 1,39,-1
 1196 1052 l 1,0,-1
733 842 m 1,40,-1
 565 884 l 1,41,-1
 439 863 l 1,42,-1
 313 863 l 1,43,44
 245 400 245 400 228 400 c 1,45,-1
 249 358 l 1,46,47
 228 179 228 179 228 63 c 1,48,-1
 249 63 l 2,49,50
 458 63 458 63 754 84 c 0,51,52
 770 84 770 84 881 63 c 1,53,54
 1049 63 1049 63 1049 190 c 1,55,-1
 1175 884 l 1,56,-1
 1133 905 l 1,57,58
 962 863 962 863 733 842 c 1,40,-1
EndSplineSet
EndChar

StartChar: uni25B3
Encoding: 9651 9651 197
Width: 1529
Flags: W
LayerCount: 2
Fore
SplineSet
797 1326 m 1,0,1
 972 1173 972 1173 1070 905 c 1,2,3
 1303 630 1303 630 1449 337 c 1,4,-1
 1449 232 l 1,5,-1
 1365 126 l 1,6,-1
 1259 148 l 1,7,-1
 1070 148 l 2,8,9
 939 148 939 148 628 84 c 1,10,11
 60 116 60 116 60 190 c 2,12,-1
 60 232 l 1,13,14
 187 485 187 485 481 926 c 0,15,16
 668 1286 668 1286 797 1326 c 1,0,1
754 1115 m 1,17,-1
 270 295 l 1,18,-1
 270 274 l 1,19,-1
 502 274 l 2,20,21
 523 274 523 274 523 253 c 1,22,-1
 565 274 l 1,23,-1
 670 253 l 1,24,25
 707 274 707 274 754 274 c 1,26,-1
 754 253 l 1,27,28
 818 295 818 295 1133 337 c 1,29,-1
 1175 316 l 1,30,31
 1216 337 1216 337 1238 337 c 1,32,-1
 1238 358 l 1,33,34
 797 1072 797 1072 797 1115 c 1,35,-1
 754 1115 l 1,17,-1
EndSplineSet
EndChar

StartChar: uni25C9
Encoding: 9673 9673 198
Width: 1297
Flags: W
LayerCount: 2
Fore
SplineSet
460 1347 m 1,0,1
 1007 1272 1007 1272 1007 1137 c 1,2,3
 1117 1137 1117 1137 1217 695 c 1,4,-1
 1217 653 l 1,5,6
 1144 253 1144 253 965 253 c 1,7,8
 814 148 814 148 691 148 c 2,9,-1
 628 148 l 1,10,11
 207 253 207 253 207 400 c 1,12,13
 60 533 60 533 60 631 c 2,14,-1
 60 653 l 2,15,16
 60 1002 60 1002 291 1179 c 1,17,18
 291 1199 291 1199 460 1263 c 1,19,-1
 460 1347 l 1,0,1
228 695 m 2,20,21
 228 545 228 545 481 379 c 0,22,23
 563 337 563 337 712 337 c 1,24,25
 1070 425 1070 425 1070 695 c 2,26,-1
 1070 716 l 1,27,28
 968 1137 968 1137 691 1137 c 2,29,-1
 670 1137 l 1,30,-1
 628 1115 l 1,31,32
 591 1137 591 1137 544 1137 c 2,33,-1
 502 1137 l 1,34,35
 324 1060 324 1060 228 821 c 1,36,-1
 228 695 l 2,20,21
565 947 m 1,37,-1
 607 947 l 2,38,39
 732 947 732 947 775 821 c 1,40,-1
 754 779 l 1,41,-1
 775 737 l 1,42,43
 772 691 772 691 649 610 c 1,44,45
 481 709 481 709 481 737 c 2,46,-1
 481 758 l 2,47,48
 481 808 481 808 565 926 c 1,49,-1
 565 947 l 1,37,-1
EndSplineSet
EndChar

StartChar: circle
Encoding: 9675 9675 199
Width: 1276
Flags: W
LayerCount: 2
Fore
SplineSet
818 1137 m 1,0,-1
 818 1115 l 1,1,-1
 860 1137 l 1,2,3
 1028 1016 1028 1016 1028 989 c 1,4,5
 1175 841 1175 841 1175 695 c 1,6,-1
 1196 695 l 1,7,-1
 1175 547 l 1,8,-1
 1175 421 l 1,9,10
 861 63 861 63 691 63 c 1,11,12
 691 38 691 38 460 21 c 1,13,14
 60 267 60 267 60 526 c 1,15,16
 185 898 185 898 418 1073 c 1,17,18
 439 1073 439 1073 439 1052 c 1,19,-1
 481 1073 l 1,20,-1
 733 1073 l 1,21,-1
 818 1137 l 1,0,-1
228 526 m 1,22,23
 324 276 324 276 523 211 c 1,24,-1
 544 211 l 1,25,26
 944 311 944 311 944 442 c 1,27,28
 1028 442 1028 442 1028 631 c 2,29,-1
 1028 695 l 1,30,31
 937 870 937 870 797 905 c 1,32,-1
 797 926 l 1,33,-1
 712 926 l 2,34,35
 415 926 415 926 334 758 c 2,36,-1
 228 526 l 1,22,23
EndSplineSet
EndChar

StartChar: H18533
Encoding: 9679 9679 202
Width: 1297
Flags: W
LayerCount: 2
Fore
SplineSet
649 1221 m 1,0,1
 772 1094 772 1094 797 1094 c 2,2,-1
 818 1094 l 2,3,4
 865 1094 865 1094 902 1115 c 1,5,6
 1217 1020 1217 1020 1217 674 c 1,7,8
 1128 232 1128 232 965 232 c 1,9,10
 965 148 965 148 607 84 c 1,11,12
 380 112 380 112 186 253 c 1,13,14
 63 438 63 438 60 484 c 1,15,16
 240 1137 240 1137 649 1137 c 1,17,-1
 649 1221 l 1,0,1
EndSplineSet
EndChar

StartChar: uni25D0
Encoding: 9680 9680 203
Width: 1381
Flags: W
LayerCount: 2
Fore
SplineSet
797 1073 m 1,0,1
 1238 1001 1238 1001 1238 779 c 1,2,3
 1285 779 1285 779 1302 589 c 2,4,-1
 1302 463 l 2,5,6
 1294 317 1294 317 1112 126 c 1,7,8
 937 10 937 10 712 -63 c 1,9,10
 349 -29 349 -29 186 148 c 0,11,12
 116 239 116 239 60 463 c 1,13,14
 102 710 102 710 291 884 c 0,15,16
 527 1073 527 1073 797 1073 c 1,0,1
839 863 m 1,17,18
 775 559 775 559 775 526 c 1,19,-1
 797 484 l 1,20,21
 775 370 775 370 775 295 c 2,22,-1
 775 190 l 1,23,-1
 797 148 l 1,24,25
 1154 342 1154 342 1154 526 c 0,26,27
 1108 884 1108 884 839 884 c 1,28,-1
 839 863 l 1,17,18
EndSplineSet
EndChar

StartChar: uni25D1
Encoding: 9681 9681 204
Width: 1487
Flags: W
LayerCount: 2
Fore
SplineSet
944 1137 m 1,0,1
 1344 953 1344 953 1344 821 c 1,2,3
 1407 643 1407 643 1407 589 c 0,4,5
 1387 345 1387 345 1070 42 c 0,6,7
 856 -168 856 -168 649 -168 c 0,8,9
 224 -168 224 -168 60 358 c 1,10,11
 60 663 60 663 313 926 c 1,12,13
 313 1080 313 1080 944 1137 c 1,0,1
207 421 m 1,14,15
 244 237 244 237 355 169 c 1,16,17
 355 79 355 79 670 0 c 1,18,-1
 670 148 l 2,19,20
 670 196 670 196 733 442 c 1,21,22
 712 479 712 479 712 526 c 1,23,24
 754 716 754 716 754 800 c 2,25,-1
 754 884 l 2,26,27
 754 914 754 914 691 947 c 1,28,-1
 670 947 l 2,29,30
 394 947 394 947 207 421 c 1,14,15
EndSplineSet
EndChar

StartChar: uni25D2
Encoding: 9682 9682 205
Width: 1465
Flags: W
LayerCount: 2
Fore
SplineSet
607 1284 m 1,0,-1
 733 1263 l 1,1,-1
 775 1284 l 1,2,3
 1323 1053 1323 1053 1323 884 c 1,4,5
 1386 718 1386 718 1386 674 c 1,6,-1
 1365 674 l 1,7,-1
 1386 631 l 1,8,9
 1146 63 1146 63 797 63 c 2,10,11
 775 42 775 42 628 42 c 2,12,-1
 502 42 l 1,13,14
 60 155 60 155 60 421 c 0,15,16
 60 1127 60 1127 565 1284 c 1,17,-1
 607 1284 l 1,0,-1
228 631 m 1,18,-1
 228 421 l 1,19,20
 248 323 248 323 586 190 c 1,21,22
 1112 267 1112 267 1112 505 c 1,23,24
 1133 505 1133 505 1133 547 c 1,25,-1
 1091 526 l 1,26,-1
 607 568 l 1,27,-1
 502 547 l 1,28,-1
 228 631 l 1,18,-1
EndSplineSet
EndChar

StartChar: uni25D3
Encoding: 9683 9683 206
Width: 1403
Flags: W
LayerCount: 2
Fore
SplineSet
839 1242 m 1,0,1
 1259 1114 1259 1114 1259 968 c 1,2,3
 1323 968 1323 968 1323 631 c 1,4,5
 1216 84 1216 84 923 84 c 1,6,7
 923 50 923 50 754 21 c 1,8,-1
 712 42 l 1,9,10
 691 42 691 42 691 21 c 1,11,12
 196 21 196 21 60 568 c 1,13,-1
 60 610 l 1,14,15
 162 855 162 855 228 968 c 1,16,17
 253 968 253 968 397 1158 c 1,18,19
 532 1242 532 1242 839 1242 c 1,0,1
670 968 m 1,20,21
 628 968 628 968 628 1031 c 1,22,-1
 565 1031 l 2,23,24
 473 1031 473 1031 418 926 c 1,25,26
 249 721 249 721 249 631 c 1,27,-1
 397 631 l 2,28,29
 472 631 472 631 586 653 c 1,30,31
 733 631 733 631 733 610 c 1,32,-1
 775 631 l 1,33,-1
 1154 631 l 1,34,35
 1154 674 1154 674 1175 674 c 1,36,37
 1139 1052 1139 1052 881 1052 c 1,38,39
 881 1073 881 1073 818 1094 c 1,40,-1
 670 1010 l 1,41,-1
 670 968 l 1,20,21
EndSplineSet
EndChar

StartChar: uni25D4
Encoding: 9684 9684 207
Width: 1487
Flags: W
LayerCount: 2
Fore
SplineSet
733 1179 m 1,0,1
 908 1094 908 1094 923 1094 c 0,2,3
 945 1094 945 1094 986 1115 c 1,4,5
 1325 1115 1325 1115 1365 779 c 1,6,-1
 1407 779 l 1,7,8
 1375 613 1375 613 1323 526 c 1,9,-1
 1344 484 l 1,10,11
 1007 -42 1007 -42 691 -42 c 2,12,-1
 523 -42 l 2,13,14
 212 -42 212 -42 102 232 c 0,15,16
 60 399 60 399 60 484 c 0,17,18
 60 905 60 905 502 1137 c 1,19,20
 502 1174 502 1174 733 1179 c 1,0,1
228 442 m 0,21,22
 228 223 228 223 418 126 c 1,23,-1
 628 126 l 1,24,-1
 733 105 l 1,25,-1
 923 232 l 2,26,27
 1043 339 1043 339 1133 484 c 1,28,-1
 1112 484 l 1,29,-1
 1112 463 l 1,30,-1
 1070 484 l 1,31,-1
 965 484 l 2,32,33
 785 484 785 484 628 547 c 1,34,35
 670 824 670 824 691 884 c 1,36,37
 670 916 670 916 670 1010 c 1,38,39
 228 908 228 908 228 442 c 0,21,22
EndSplineSet
EndChar

StartChar: uni25D5
Encoding: 9685 9685 208
Width: 1402
Flags: W
LayerCount: 2
Fore
SplineSet
544 1115 m 2,0,1
 580 1115 580 1115 586 1073 c 1,2,-1
 629 1094 l 1,3,-1
 755 1094 l 2,4,5
 944 1078 944 1078 944 1031 c 1,6,7
 1323 758 1323 758 1323 337 c 2,8,-1
 1323 295 l 1,9,10
 1175 -84 1175 -84 839 -84 c 0,11,12
 571 -84 571 -84 313 42 c 0,13,14
 60 172 60 172 60 631 c 2,15,-1
 60 758 l 2,16,17
 60 975 60 975 397 1115 c 1,18,-1
 544 1115 l 2,0,1
608 589 m 1,19,20
 608 947 608 947 481 947 c 0,21,22
 292 947 292 947 208 631 c 1,23,24
 243 631 243 631 250 589 c 1,25,-1
 229 547 l 1,26,-1
 250 547 l 2,27,28
 285 547 285 547 292 589 c 1,29,-1
 439 568 l 1,30,31
 458 568 458 568 608 589 c 1,19,20
EndSplineSet
EndChar

